{
.appVersion = "1286";
DisplayStrings = (
"/ogonek"
);
copyright = "Copyright (c) 2019, Lincoln Public Schools Computing Services (www.lps.org),\012with Reserved Font Name \"First Hand.\"";
date = "2019-09-10 20:14:48 +0000";
designer = "Lincoln Public Schools";
designerURL = www.lps.org;
familyName = "First Hand";
fontMaster = (
{
ascender = 800;
capHeight = 700;
descender = -200;
id = "2F22A4FE-F550-4776-9C81-47C8675FAB27";
userData = {
GSCornerRadius = 24;
GSOffsetHorizontal = 15;
GSOffsetVertical = 10;
};
xHeight = 500;
}
);
glyphs = (
{
glyphname = A;
lastChange = "2020-01-06 21:20:50 +0000";
layers = (
{
layerId = "2F22A4FE-F550-4776-9C81-47C8675FAB27";
paths = (
{
closed = 1;
nodes = (
"48 -18 OFFCURVE",
"69 34 CURVE",
"150 223 LINE",
"505 223 LINE",
"593 20 LINE",
"606 -12 OFFCURVE",
"650 -6 OFFCURVE",
"640 37 CURVE",
"368 667 LINE",
"354 700 OFFCURVE",
"306 700 OFFCURVE",
"291 667 CURVE",
"20 49 LINE",
"-4 -7 OFFCURVE"
);
},
{
closed = 1;
nodes = (
"327 625 LINE",
"484 272 LINE",
"172 272 LINE"
);
}
);
width = 600;
}
);
unicode = 0041;
},
{
glyphname = AE;
lastChange = "2019-11-25 19:44:24 +0000";
layers = (
{
layerId = "2F22A4FE-F550-4776-9C81-47C8675FAB27";
paths = (
{
closed = 1;
nodes = (
"309 72 LINE",
"309 295 LINE",
"589 295 LINE SMOOTH",
"615 295 OFFCURVE",
"634 308 OFFCURVE",
"634 332 CURVE SMOOTH",
"634 355 OFFCURVE",
"615 368 OFFCURVE",
"589 368 CURVE SMOOTH",
"309 368 LINE",
"309 590 LINE",
"681 590 LINE SMOOTH",
"707 590 OFFCURVE",
"721 603 OFFCURVE",
"721 626 CURVE SMOOTH",
"721 649 OFFCURVE",
"707 662 OFFCURVE",
"681 662 CURVE SMOOTH",
"282 662 LINE",
"274 662 LINE SMOOTH",
"261 661 OFFCURVE",
"245 653 OFFCURVE",
"232 638 CURVE SMOOTH",
"-304 52 LINE",
"-320 32 OFFCURVE",
"-324 17 OFFCURVE",
"-304 0 CURVE",
"-282 -14 OFFCURVE",
"-259 -9 OFFCURVE",
"-237 11 CURVE",
"-59 200 LINE",
"234 200 LINE",
"234 39 LINE SMOOTH",
"234 14 OFFCURVE",
"243 0 OFFCURVE",
"274 0 CURVE SMOOTH",
"681 0 LINE SMOOTH",
"707 0 OFFCURVE",
"721 13 OFFCURVE",
"721 36 CURVE SMOOTH",
"721 59 OFFCURVE",
"707 72 OFFCURVE",
"681 72 CURVE SMOOTH"
);
},
{
closed = 1;
nodes = (
"234 529 LINE",
"234 272 LINE",
"-1 272 LINE"
);
}
);
width = 600;
}
);
unicode = 00C6;
},
{
glyphname = B;
lastChange = "2020-01-06 21:37:49 +0000";
layers = (
{
layerId = "2F22A4FE-F550-4776-9C81-47C8675FAB27";
paths = (
{
closed = 1;
nodes = (
"523 558 OFFCURVE",
"477 604 QCURVE SMOOTH",
"419 662 OFFCURVE",
"314 662 QCURVE SMOOTH",
"95 662 LINE SMOOTH",
"69 662 OFFCURVE",
"55 648 OFFCURVE",
"55 622 CURVE SMOOTH",
"55 40 LINE SMOOTH",
"55 14 OFFCURVE",
"69 0 OFFCURVE",
"95 0 CURVE SMOOTH",
"331 0 LINE SMOOTH",
"388 0 OFFCURVE",
"430 14 QCURVE SMOOTH",
"557 56 OFFCURVE",
"557 174 QCURVE SMOOTH",
"557 211 OFFCURVE",
"546 239 QCURVE SMOOTH",
"517 312 OFFCURVE",
"434 338 QCURVE",
"523 378 OFFCURVE",
"523 487 QCURVE SMOOTH"
);
},
{
closed = 1;
nodes = (
"105 612 LINE",
"322 612 LINE SMOOTH",
"405 612 OFFCURVE",
"442 577 QCURVE SMOOTH",
"458 562 OFFCURVE",
"471 523 OFFCURVE",
"471 443 OFFCURVE",
"460 421 QCURVE SMOOTH",
"428 358 OFFCURVE",
"314 358 QCURVE SMOOTH",
"105 358 LINE"
);
},
{
closed = 1;
nodes = (
"105 50 LINE",
"105 308 LINE",
"331 308 LINE SMOOTH",
"427 308 OFFCURVE",
"467 272 QCURVE SMOOTH",
"503 240 OFFCURVE",
"503 190 QCURVE SMOOTH",
"503 138 OFFCURVE",
"429 50 OFFCURVE",
"339 50 QCURVE SMOOTH"
);
}
);
width = 600;
}
);
unicode = 0042;
},
{
glyphname = C;
lastChange = "2020-02-05 16:30:23 +0000";
layers = (
{
layerId = "2F22A4FE-F550-4776-9C81-47C8675FAB27";
paths = (
{
closed = 1;
nodes = (
"225 707 OFFCURVE",
"85 615 OFFCURVE",
"7 453 OFFCURVE",
"7 349 QCURVE SMOOTH",
"7 246 OFFCURVE",
"85 83 OFFCURVE",
"225 -7 OFFCURVE",
"314 -7 QCURVE SMOOTH",
"429 -7 OFFCURVE",
"539 87 OFFCURVE",
"580 185 QCURVE",
"587 216 OFFCURVE",
"582 225 OFFCURVE",
"565 227 CURVE",
"543 227 OFFCURVE",
"538 216 OFFCURVE",
"519 168 CURVE",
"484 96 OFFCURVE",
"408 45 OFFCURVE",
"313 45 QCURVE SMOOTH",
"242 45 OFFCURVE",
"126 119 OFFCURVE",
"53 257 OFFCURVE",
"53 349 QCURVE SMOOTH",
"53 444 OFFCURVE",
"126 582 OFFCURVE",
"242 658 OFFCURVE",
"313 658 QCURVE SMOOTH",
"408 658 OFFCURVE",
"495 616 OFFCURVE",
"527 541 QCURVE",
"532 529 OFFCURVE",
"544 514 OFFCURVE",
"560 519 CURVE",
"570 522 OFFCURVE",
"575 533 OFFCURVE",
"573 548 CURVE",
"542 635 OFFCURVE",
"429 707 OFFCURVE",
"314 707 QCURVE",
"314 707 LINE"
);
}
);
width = 600;
}
);
unicode = 0043;
},
{
glyphname = D;
lastChange = "2020-02-03 17:43:50 +0000";
layers = (
{
layerId = "2F22A4FE-F550-4776-9C81-47C8675FAB27";
paths = (
{
closed = 1;
nodes = (
"121 662 LINE SMOOTH",
"95 662 OFFCURVE",
"81 648 OFFCURVE",
"81 622 CURVE SMOOTH",
"81 40 LINE SMOOTH",
"81 14 OFFCURVE",
"95 0 OFFCURVE",
"121 0 CURVE SMOOTH",
"318 0 LINE SMOOTH",
"377 0 OFFCURVE",
"487 45 OFFCURVE",
"529 88 QCURVE SMOOTH",
"622 183 OFFCURVE",
"622 331 QCURVE SMOOTH",
"622 479 OFFCURVE",
"529 574 QCURVE SMOOTH",
"487 617 OFFCURVE",
"377 662 OFFCURVE",
"318 662 QCURVE SMOOTH"
);
},
{
closed = 1;
nodes = (
"138 49 LINE",
"138 613 LINE",
"314 613 LINE SMOOTH",
"426 613 OFFCURVE",
"497 529 QCURVE SMOOTH",
"565 449 OFFCURVE",
"565 331 QCURVE SMOOTH",
"565 213 OFFCURVE",
"497 133 QCURVE SMOOTH",
"426 49 OFFCURVE",
"314 49 QCURVE SMOOTH"
);
}
);
width = 600;
}
);
unicode = 0044;
},
{
glyphname = E;
lastChange = "2020-02-03 17:45:52 +0000";
layers = (
{
layerId = "2F22A4FE-F550-4776-9C81-47C8675FAB27";
paths = (
{
closed = 1;
nodes = (
"528 611 LINE SMOOTH",
"554 611 OFFCURVE",
"568 611 OFFCURVE",
"568 638 CURVE SMOOTH",
"568 659 OFFCURVE",
"554 661 OFFCURVE",
"528 661 CURVE SMOOTH",
"121 661 LINE SMOOTH",
"95 661 OFFCURVE",
"94 648 OFFCURVE",
"94 622 CURVE SMOOTH",
"94 40 LINE SMOOTH",
"94 14 OFFCURVE",
"95 11 OFFCURVE",
"121 11 CURVE SMOOTH",
"528 11 LINE SMOOTH",
"554 11 OFFCURVE",
"568 13 OFFCURVE",
"568 36 CURVE SMOOTH",
"568 59 OFFCURVE",
"554 61 OFFCURVE",
"528 61 CURVE SMOOTH",
"144 61 LINE",
"144 307 LINE",
"436 307 LINE SMOOTH",
"462 307 OFFCURVE",
"481 308 OFFCURVE",
"481 332 CURVE SMOOTH",
"481 355 OFFCURVE",
"462 357 OFFCURVE",
"436 357 CURVE SMOOTH",
"144 357 LINE",
"144 611 LINE"
);
}
);
width = 600;
}
);
unicode = 0045;
},
{
glyphname = F;
lastChange = "2020-02-03 17:46:31 +0000";
layers = (
{
layerId = "2F22A4FE-F550-4776-9C81-47C8675FAB27";
paths = (
{
closed = 1;
nodes = (
"519 601 LINE SMOOTH",
"545 601 OFFCURVE",
"559 603 OFFCURVE",
"559 626 CURVE SMOOTH",
"559 649 OFFCURVE",
"545 651 OFFCURVE",
"519 651 CURVE SMOOTH",
"121 651 LINE SMOOTH",
"95 651 OFFCURVE",
"94 648 OFFCURVE",
"94 622 CURVE SMOOTH",
"94 40 LINE SMOOTH",
"94 14 OFFCURVE",
"95 0 OFFCURVE",
"119 0 CURVE SMOOTH",
"143 0 OFFCURVE",
"144 14 OFFCURVE",
"144 40 CURVE SMOOTH",
"144 299 LINE",
"435 299 LINE SMOOTH",
"461 299 OFFCURVE",
"475 300 OFFCURVE",
"475 324 CURVE SMOOTH",
"475 347 OFFCURVE",
"461 349 OFFCURVE",
"435 349 CURVE SMOOTH",
"144 349 LINE",
"144 601 LINE"
);
}
);
width = 600;
}
);
unicode = 0046;
},
{
glyphname = G;
lastChange = "2020-02-05 17:37:02 +0000";
layers = (
{
layerId = "2F22A4FE-F550-4776-9C81-47C8675FAB27";
paths = (
{
closed = 1;
nodes = (
"424 -7 OFFCURVE",
"555 67 OFFCURVE",
"630 180 OFFCURVE",
"647 284 QCURVE",
"652 323 LINE SMOOTH",
"656 363 OFFCURVE",
"633 366 OFFCURVE",
"582 366 CURVE SMOOTH",
"344 366 LINE SMOOTH",
"315 366 OFFCURVE",
"300 367 OFFCURVE",
"300 343 CURVE",
"300 343 LINE",
"300 318 OFFCURVE",
"315 315 OFFCURVE",
"344 315 CURVE SMOOTH",
"597 315 LINE",
"589 233 OFFCURVE",
"520 103 OFFCURVE",
"393 47 OFFCURVE",
"315 47 QCURVE SMOOTH",
"238 47 OFFCURVE",
"113 107 OFFCURVE",
"53 248 OFFCURVE",
"58 348 QCURVE SMOOTH",
"62 445 OFFCURVE",
"127 585 OFFCURVE",
"262 660 OFFCURVE",
"356 660 QCURVE",
"356 660 LINE",
"443 658 OFFCURVE",
"539 600 OFFCURVE",
"571 534 QCURVE SMOOTH",
"586 503 OFFCURVE",
"590 490 OFFCURVE",
"611 494 CURVE SMOOTH",
"656 508 OFFCURVE",
"513 710 OFFCURVE",
"354 708 QCURVE SMOOTH",
"237 707 OFFCURVE",
"87 618 OFFCURVE",
"5 454 OFFCURVE",
"5 348 QCURVE SMOOTH",
"5 245 OFFCURVE",
"53 101 OFFCURVE",
"211 -7 OFFCURVE",
"315 -7 QCURVE SMOOTH"
);
}
);
width = 600;
}
);
unicode = 0047;
},
{
glyphname = H;
lastChange = "2020-01-31 16:04:56 +0000";
layers = (
{
layerId = "2F22A4FE-F550-4776-9C81-47C8675FAB27";
paths = (
{
closed = 1;
nodes = (
"90 -5 OFFCURVE",
"105 16 OFFCURVE",
"105 40 QCURVE SMOOTH",
"105 323 LINE",
"491 323 LINE",
"491 40 LINE SMOOTH",
"491 16 OFFCURVE",
"502 -5 OFFCURVE",
"515 -5 QCURVE SMOOTH",
"530 -5 OFFCURVE",
"541 16 OFFCURVE",
"541 40 QCURVE SMOOTH",
"541 624 LINE SMOOTH",
"541 648 OFFCURVE",
"530 668 OFFCURVE",
"515 668 QCURVE SMOOTH",
"501 668 OFFCURVE",
"491 648 OFFCURVE",
"491 624 QCURVE SMOOTH",
"491 373 LINE",
"105 373 LINE",
"105 624 LINE SMOOTH",
"105 648 OFFCURVE",
"92 668 OFFCURVE",
"80 668 QCURVE SMOOTH",
"67 668 OFFCURVE",
"55 648 OFFCURVE",
"55 624 QCURVE SMOOTH",
"55 40 LINE SMOOTH",
"55 16 OFFCURVE",
"69 -5 OFFCURVE",
"79 -5 QCURVE SMOOTH"
);
}
);
width = 600;
}
);
unicode = 0048;
},
{
glyphname = I;
lastChange = "2020-02-05 16:31:56 +0000";
layers = (
{
layerId = "2F22A4FE-F550-4776-9C81-47C8675FAB27";
paths = (
{
closed = 1;
nodes = (
"55 2 OFFCURVE",
"69 1 OFFCURVE",
"95 1 CURVE SMOOTH",
"575 1 LINE SMOOTH",
"601 1 OFFCURVE",
"615 3 OFFCURVE",
"615 27 CURVE SMOOTH",
"615 51 OFFCURVE",
"601 51 OFFCURVE",
"575 51 CURVE SMOOTH",
"95 51 LINE SMOOTH",
"69 51 OFFCURVE",
"55 51 OFFCURVE",
"55 27 CURVE SMOOTH"
);
},
{
closed = 1;
nodes = (
"55 658 OFFCURVE",
"69 658 OFFCURVE",
"95 658 CURVE SMOOTH",
"575 658 LINE SMOOTH",
"601 658 OFFCURVE",
"615 659 OFFCURVE",
"615 683 CURVE SMOOTH",
"615 707 OFFCURVE",
"601 708 OFFCURVE",
"575 708 CURVE SMOOTH",
"95 708 LINE SMOOTH",
"69 708 OFFCURVE",
"55 707 OFFCURVE",
"55 683 CURVE SMOOTH"
);
},
{
closed = 1;
nodes = (
"306 42 LINE",
"361 42 LINE",
"361 668 LINE",
"306 668 LINE"
);
}
);
width = 662;
}
);
unicode = 0049;
},
{
glyphname = J;
lastChange = "2020-02-05 16:37:25 +0000";
layers = (
{
layerId = "2F22A4FE-F550-4776-9C81-47C8675FAB27";
paths = (
{
closed = 1;
nodes = (
"317 4 OFFCURVE",
"374 15 OFFCURVE",
"413 62 CURVE SMOOTH",
"446 103 OFFCURVE",
"449 155 OFFCURVE",
"449 219 CURVE SMOOTH",
"449 605 LINE",
"592 605 LINE SMOOTH",
"618 605 OFFCURVE",
"632 606 OFFCURVE",
"632 630 CURVE SMOOTH",
"632 653 OFFCURVE",
"618 655 OFFCURVE",
"592 655 CURVE SMOOTH",
"237 655 LINE SMOOTH",
"211 655 OFFCURVE",
"197 653 OFFCURVE",
"197 630 CURVE SMOOTH",
"197 607 OFFCURVE",
"211 605 OFFCURVE",
"237 605 CURVE SMOOTH",
"399 605 LINE",
"399 222 LINE SMOOTH",
"399 177 OFFCURVE",
"397 130 OFFCURVE",
"382 105 CURVE",
"359 70 OFFCURVE",
"300 54 OFFCURVE",
"245 54 CURVE SMOOTH",
"200 54 OFFCURVE",
"136 65 OFFCURVE",
"109 90 CURVE",
"84 113 OFFCURVE",
"84 130 OFFCURVE",
"70 156 CURVE",
"51 190 OFFCURVE",
"13 170 OFFCURVE",
"25 133 CURVE SMOOTH",
"36 98 OFFCURVE",
"59 67 OFFCURVE",
"89 38 CURVE SMOOTH",
"122 7 OFFCURVE",
"172 4 OFFCURVE",
"241 4 CURVE SMOOTH"
);
}
);
width = 600;
}
);
unicode = 004A;
},
{
glyphname = K;
lastChange = "2020-02-05 16:53:33 +0000";
layers = (
{
layerId = "2F22A4FE-F550-4776-9C81-47C8675FAB27";
paths = (
{
closed = 1;
nodes = (
"489 605 LINE SMOOTH",
"525 637 OFFCURVE",
"520 650 OFFCURVE",
"511 659 CURVE SMOOTH",
"510 660 LINE SMOOTH",
"500 670 OFFCURVE",
"485 668 OFFCURVE",
"456 643 CURVE SMOOTH",
"144 366 LINE",
"144 624 LINE SMOOTH",
"144 650 OFFCURVE",
"134 667 OFFCURVE",
"118 667 CURVE SMOOTH",
"118 667 LINE SMOOTH",
"103 667 OFFCURVE",
"94 650 OFFCURVE",
"94 624 CURVE SMOOTH",
"94 40 LINE SMOOTH",
"94 14 OFFCURVE",
"92 0 OFFCURVE",
"118 0 CURVE SMOOTH",
"118 0 LINE SMOOTH",
"144 0 OFFCURVE",
"144 14 OFFCURVE",
"144 40 CURVE SMOOTH",
"144 317 LINE",
"458 22 LINE SMOOTH",
"481 1 OFFCURVE",
"496 -7 OFFCURVE",
"509 6 CURVE SMOOTH",
"510 7 LINE SMOOTH",
"517 14 OFFCURVE",
"515 36 OFFCURVE",
"486 64 CURVE SMOOTH",
"191 340 LINE"
);
}
);
width = 600;
}
);
unicode = 004B;
},
{
glyphname = L;
lastChange = "2020-02-05 16:54:46 +0000";
layers = (
{
layerId = "2F22A4FE-F550-4776-9C81-47C8675FAB27";
paths = (
{
closed = 1;
nodes = (
"515 1 LINE SMOOTH",
"534 1 OFFCURVE",
"561 9 OFFCURVE",
"561 28 QCURVE SMOOTH",
"561 47 OFFCURVE",
"541 56 OFFCURVE",
"515 56 QCURVE SMOOTH",
"72 56 LINE",
"72 617 LINE SMOOTH",
"72 636 OFFCURVE",
"67 663 OFFCURVE",
"48 663 QCURVE SMOOTH",
"29 663 OFFCURVE",
"22 645 OFFCURVE",
"22 617 QCURVE SMOOTH",
"22 63 LINE SMOOTH",
"22 37 OFFCURVE",
"34 1 OFFCURVE",
"66 1 QCURVE SMOOTH"
);
}
);
width = 600;
}
);
unicode = 004C;
},
{
glyphname = Lslash;
lastChange = "2019-10-21 21:03:46 +0000";
layers = (
{
components = (
{
name = L;
}
);
layerId = "2F22A4FE-F550-4776-9C81-47C8675FAB27";
paths = (
{
closed = 1;
nodes = (
"-89 315 OFFCURVE",
"-55 302 OFFCURVE",
"-21 318 CURVE SMOOTH",
"169 406 LINE SMOOTH",
"185 413 OFFCURVE",
"202 428 OFFCURVE",
"190 457 CURVE SMOOTH",
"182 476 OFFCURVE",
"156 482 OFFCURVE",
"122 466 CURVE SMOOTH",
"-68 378 LINE SMOOTH",
"-81 372 OFFCURVE",
"-89 359 OFFCURVE",
"-89 345 CURVE SMOOTH"
);
}
);
width = 600;
}
);
unicode = 0141;
},
{
glyphname = M;
lastChange = "2020-02-05 17:13:12 +0000";
layers = (
{
layerId = "2F22A4FE-F550-4776-9C81-47C8675FAB27";
paths = (
{
closed = 1;
nodes = (
"553 700 OFFCURVE",
"554 702 OFFCURVE",
"517 612 CURVE",
"325 99 LINE",
"126 610 LINE",
"87 700 OFFCURVE",
"90 700 OFFCURVE",
"55 700 CURVE",
"17 700 OFFCURVE",
"23 700 OFFCURVE",
"21 595 CURVE",
"21 38 LINE",
"21 13 OFFCURVE",
"21 0 OFFCURVE",
"40 0 CURVE",
"51 0 LINE",
"71 0 OFFCURVE",
"71 13 OFFCURVE",
"71 38 CURVE",
"68 623 LINE",
"258 131 LINE",
"268 107 OFFCURVE",
"310 0 OFFCURVE",
"323 0 CURVE SMOOTH",
"346 0 OFFCURVE",
"319 0 OFFCURVE",
"324 0 CURVE",
"330 0 OFFCURVE",
"301 0 OFFCURVE",
"325 0 CURVE SMOOTH",
"336 0 OFFCURVE",
"380 104 OFFCURVE",
"390 128 CURVE",
"576 622 LINE",
"576 38 LINE",
"576 13 OFFCURVE",
"576 0 OFFCURVE",
"595 0 CURVE",
"606 0 LINE",
"626 -1 OFFCURVE",
"626 13 OFFCURVE",
"626 38 CURVE",
"626 595 LINE",
"626 701 OFFCURVE",
"627 700 OFFCURVE",
"592 700 CURVE"
);
}
);
width = 600;
}
);
unicode = 004D;
},
{
glyphname = N;
lastChange = "2020-01-31 20:30:27 +0000";
layers = (
{
layerId = "2F22A4FE-F550-4776-9C81-47C8675FAB27";
paths = (
{
closed = 1;
nodes = (
"122 0 OFFCURVE",
"128 13 OFFCURVE",
"128 38 CURVE",
"128 568 LINE",
"442 42 LINE",
"463 13 OFFCURVE",
"464 0 OFFCURVE",
"496 0 CURVE",
"515 0 OFFCURVE",
"522 32 OFFCURVE",
"522 75 CURVE",
"519 624 LINE",
"519 649 OFFCURVE",
"520 665 OFFCURVE",
"496 665 CURVE",
"495 665 LINE",
"469 665 OFFCURVE",
"472 649 OFFCURVE",
"472 624 CURVE",
"473 90 LINE",
"191 560 LINE",
"132 676 OFFCURVE",
"100 664 OFFCURVE",
"99 664 CURVE",
"77 658 OFFCURVE",
"78 639 OFFCURVE",
"78 596 CURVE",
"78 38 LINE",
"78 13 OFFCURVE",
"87 0 OFFCURVE",
"103 0 CURVE SMOOTH"
);
}
);
width = 600;
}
);
unicode = 004E;
},
{
glyphname = O;
lastChange = "2020-01-31 20:53:23 +0000";
layers = (
{
layerId = "2F22A4FE-F550-4776-9C81-47C8675FAB27";
paths = (
{
closed = 1;
nodes = (
"228 662 OFFCURVE",
"135 565 QCURVE SMOOTH",
"44 471 OFFCURVE",
"44 188 OFFCURVE",
"135 94 QCURVE SMOOTH",
"228 -3 OFFCURVE",
"374 -3 QCURVE SMOOTH",
"519 -3 OFFCURVE",
"612 94 QCURVE SMOOTH",
"703 188 OFFCURVE",
"703 471 OFFCURVE",
"612 565 QCURVE SMOOTH",
"519 662 OFFCURVE",
"374 662 QCURVE SMOOTH"
);
},
{
closed = 1;
nodes = (
"250 50 OFFCURVE",
"173 130 QCURVE SMOOTH",
"100 209 OFFCURVE",
"92 330 QCURVE SMOOTH",
"100 451 OFFCURVE",
"173 528 QCURVE SMOOTH",
"250 610 OFFCURVE",
"374 610 QCURVE SMOOTH",
"499 610 OFFCURVE",
"575 528 QCURVE SMOOTH",
"649 451 OFFCURVE",
"649 330 QCURVE SMOOTH",
"649 209 OFFCURVE",
"575 130 QCURVE SMOOTH",
"499 50 OFFCURVE",
"374 50 QCURVE SMOOTH"
);
}
);
width = 600;
}
);
unicode = 004F;
},
{
glyphname = P;
lastChange = "2020-02-05 17:17:06 +0000";
layers = (
{
layerId = "2F22A4FE-F550-4776-9C81-47C8675FAB27";
paths = (
{
closed = 1;
nodes = (
"144 328 LINE",
"379 328 LINE SMOOTH",
"444 328 OFFCURVE",
"567 402 OFFCURVE",
"567 500 QCURVE SMOOTH",
"562 612 OFFCURVE",
"500 661 QCURVE SMOOTH",
"450 699 OFFCURVE",
"379 699 QCURVE SMOOTH",
"121 699 LINE SMOOTH",
"95 699 OFFCURVE",
"94 695 OFFCURVE",
"94 669 CURVE SMOOTH",
"94 40 LINE SMOOTH",
"94 14 OFFCURVE",
"95 0 OFFCURVE",
"119 0 CURVE SMOOTH",
"143 0 OFFCURVE",
"144 14 OFFCURVE",
"144 40 CURVE SMOOTH"
);
},
{
closed = 1;
nodes = (
"374 649 LINE SMOOTH",
"437 649 OFFCURVE",
"517 576 OFFCURVE",
"517 429 OFFCURVE",
"438 378 OFFCURVE",
"374 378 QCURVE SMOOTH",
"144 378 LINE",
"144 649 LINE"
);
}
);
width = 600;
}
);
unicode = 0050;
},
{
glyphname = Q;
lastChange = "2020-02-05 17:22:20 +0000";
layers = (
{
layerId = "2F22A4FE-F550-4776-9C81-47C8675FAB27";
paths = (
{
closed = 1;
nodes = (
"669 171 OFFCURVE",
"703 249 OFFCURVE",
"703 330 CURVE SMOOTH",
"703 424 OFFCURVE",
"673 502 OFFCURVE",
"612 565 CURVE SMOOTH",
"550 630 OFFCURVE",
"471 662 OFFCURVE",
"374 662 CURVE SMOOTH",
"277 662 OFFCURVE",
"197 630 OFFCURVE",
"135 565 CURVE SMOOTH",
"74 502 OFFCURVE",
"44 424 OFFCURVE",
"44 330 CURVE SMOOTH",
"44 235 OFFCURVE",
"74 157 OFFCURVE",
"135 94 CURVE SMOOTH",
"197 29 OFFCURVE",
"277 -3 OFFCURVE",
"374 -3 CURVE SMOOTH",
"456 -3 OFFCURVE",
"531 26 OFFCURVE",
"588 73 CURVE",
"652 11 LINE SMOOTH",
"671 -8 OFFCURVE",
"684 -16 OFFCURVE",
"701 3 CURVE SMOOTH",
"718 22 OFFCURVE",
"708 36 OFFCURVE",
"690 52 CURVE",
"625 114 LINE"
);
},
{
closed = 1;
nodes = (
"292 49 OFFCURVE",
"224 76 OFFCURVE",
"172 130 CURVE SMOOTH",
"124 182 OFFCURVE",
"97 249 OFFCURVE",
"92 330 CURVE",
"97 411 OFFCURVE",
"124 477 OFFCURVE",
"172 529 CURVE SMOOTH",
"224 583 OFFCURVE",
"292 611 OFFCURVE",
"374 611 CURVE SMOOTH",
"457 611 OFFCURVE",
"525 583 OFFCURVE",
"575 529 CURVE SMOOTH",
"625 477 OFFCURVE",
"649 411 OFFCURVE",
"649 330 CURVE SMOOTH",
"649 265 OFFCURVE",
"622 190 OFFCURVE",
"590 144 CURVE",
"511 227 LINE SMOOTH",
"492 246 OFFCURVE",
"480 253 OFFCURVE",
"463 235 CURVE SMOOTH",
"445 216 OFFCURVE",
"457 211 OFFCURVE",
"486 180 CURVE SMOOTH",
"553 109 LINE",
"507 75 OFFCURVE",
"441 49 OFFCURVE",
"374 49 CURVE SMOOTH"
);
}
);
width = 600;
}
);
unicode = 0051;
},
{
glyphname = R;
lastChange = "2020-02-05 17:28:38 +0000";
layers = (
{
layerId = "2F22A4FE-F550-4776-9C81-47C8675FAB27";
paths = (
{
closed = 1;
nodes = (
"144 602 LINE",
"389 602 LINE SMOOTH",
"460 602 OFFCURVE",
"553 563 OFFCURVE",
"556 488 QCURVE SMOOTH",
"558 445 OFFCURVE",
"540 408 QCURVE SMOOTH",
"513 351 OFFCURVE",
"385 354 QCURVE SMOOTH",
"144 354 LINE"
);
},
{
closed = 1;
nodes = (
"144 303 LINE",
"529 26 LINE SMOOTH",
"547 12 OFFCURVE",
"556 0 OFFCURVE",
"577 0 CURVE SMOOTH",
"591 0 LINE SMOOTH",
"616 0 OFFCURVE",
"630 40 OFFCURVE",
"603 58 CURVE SMOOTH",
"237 303 LINE",
"256 303 OFFCURVE",
"451 299 OFFCURVE",
"504 317 CURVE SMOOTH",
"575 341 OFFCURVE",
"606 405 OFFCURVE",
"606 488 CURVE SMOOTH",
"606 552 OFFCURVE",
"589 580 OFFCURVE",
"560 606 CURVE SMOOTH",
"519 643 OFFCURVE",
"465 652 OFFCURVE",
"398 652 CURVE SMOOTH",
"121 652 LINE SMOOTH",
"95 652 OFFCURVE",
"94 648 OFFCURVE",
"94 622 CURVE SMOOTH",
"94 40 LINE SMOOTH",
"94 14 OFFCURVE",
"95 0 OFFCURVE",
"119 0 CURVE SMOOTH",
"143 0 OFFCURVE",
"144 14 OFFCURVE",
"144 40 CURVE SMOOTH"
);
}
);
width = 600;
}
);
unicode = 0052;
},
{
glyphname = S;
lastChange = "2020-02-05 20:24:16 +0000";
layers = (
{
layerId = "2F22A4FE-F550-4776-9C81-47C8675FAB27";
paths = (
{
closed = 1;
nodes = (
"480 365 OFFCURVE",
"390 374 OFFCURVE",
"310 392 CURVE SMOOTH",
"215 412 OFFCURVE",
"106 416 OFFCURVE",
"106 513 CURVE SMOOTH",
"106 578 OFFCURVE",
"190 656 OFFCURVE",
"313 655 CURVE SMOOTH",
"363 655 OFFCURVE",
"428 649 OFFCURVE",
"462 582 CURVE",
"477 553 OFFCURVE",
"494 556 OFFCURVE",
"502 560 CURVE SMOOTH",
"510 564 OFFCURVE",
"520 587 OFFCURVE",
"509 606 CURVE SMOOTH",
"456 698 OFFCURVE",
"393 705 OFFCURVE",
"301 705 CURVE SMOOTH",
"179 705 OFFCURVE",
"56 623 OFFCURVE",
"56 513 CURVE SMOOTH",
"56 413 OFFCURVE",
"134 359 OFFCURVE",
"310 336 CURVE SMOOTH",
"416 322 OFFCURVE",
"487 290 OFFCURVE",
"487 196 CURVE SMOOTH",
"487 95 OFFCURVE",
"373 43 OFFCURVE",
"272 57 CURVE SMOOTH",
"166 72 OFFCURVE",
"115 117 OFFCURVE",
"84 216 CURVE",
"76 243 OFFCURVE",
"68 258 OFFCURVE",
"47 251 CURVE SMOOTH",
"32 246 OFFCURVE",
"32 224 OFFCURVE",
"38 196 CURVE SMOOTH",
"64 77 OFFCURVE",
"150 3 OFFCURVE",
"306 -1 CURVE SMOOTH",
"440 -4 OFFCURVE",
"547 85 OFFCURVE",
"547 206 CURVE SMOOTH",
"547 229 OFFCURVE",
"540 265 OFFCURVE",
"524 291 CURVE SMOOTH"
);
}
);
width = 600;
}
);
unicode = 0053;
},
{
glyphname = T;
lastChange = "2020-02-05 17:30:26 +0000";
layers = (
{
layerId = "2F22A4FE-F550-4776-9C81-47C8675FAB27";
paths = (
{
closed = 1;
nodes = (
"551 689 OFFCURVE",
"537 691 OFFCURVE",
"511 691 CURVE SMOOTH",
"54 691 LINE SMOOTH",
"28 691 OFFCURVE",
"14 689 OFFCURVE",
"14 666 CURVE SMOOTH",
"14 643 OFFCURVE",
"28 641 OFFCURVE",
"54 641 CURVE SMOOTH",
"255 641 LINE",
"255 40 LINE SMOOTH",
"255 14 OFFCURVE",
"259 0 OFFCURVE",
"283 0 CURVE SMOOTH",
"307 0 OFFCURVE",
"310 14 OFFCURVE",
"310 40 CURVE SMOOTH",
"310 641 LINE",
"511 641 LINE SMOOTH",
"537 641 OFFCURVE",
"551 643 OFFCURVE",
"551 666 CURVE SMOOTH"
);
}
);
width = 600;
}
);
unicode = 0054;
},
{
glyphname = U;
lastChange = "2020-02-05 17:32:34 +0000";
layers = (
{
layerId = "2F22A4FE-F550-4776-9C81-47C8675FAB27";
paths = (
{
closed = 1;
nodes = (
"587 737 OFFCURVE",
"585 721 OFFCURVE",
"585 692 CURVE SMOOTH",
"585 271 LINE SMOOTH",
"585 167 OFFCURVE",
"513 101 QCURVE SMOOTH",
"451 44 OFFCURVE",
"354 44 QCURVE SMOOTH",
"257 44 OFFCURVE",
"195 101 QCURVE SMOOTH",
"123 167 OFFCURVE",
"124 271 QCURVE SMOOTH",
"124 692 LINE SMOOTH",
"124 721 OFFCURVE",
"123 737 OFFCURVE",
"97 737 CURVE SMOOTH",
"73 737 OFFCURVE",
"73 718 OFFCURVE",
"73 692 CURVE SMOOTH",
"73 285 LINE SMOOTH",
"73 153 OFFCURVE",
"230 -8 OFFCURVE",
"354 -8 QCURVE SMOOTH",
"479 -8 OFFCURVE",
"636 153 OFFCURVE",
"636 285 QCURVE SMOOTH",
"636 691 LINE SMOOTH",
"636 717 OFFCURVE",
"636 737 OFFCURVE",
"612 737 CURVE SMOOTH"
);
}
);
width = 600;
}
);
unicode = 0055;
},
{
glyphname = V;
lastChange = "2020-02-05 17:44:54 +0000";
layers = (
{
layerId = "2F22A4FE-F550-4776-9C81-47C8675FAB27";
paths = (
{
closed = 1;
nodes = (
"602 699 LINE SMOOTH",
"576 699 OFFCURVE",
"568 689 OFFCURVE",
"559 668 CURVE SMOOTH",
"306 53 LINE",
"70 668 LINE SMOOTH",
"62 689 OFFCURVE",
"58 699 OFFCURVE",
"35 699 CURVE SMOOTH",
"28 699 LINE SMOOTH",
"4 699 OFFCURVE",
"10 680 OFFCURVE",
"21 653 CURVE SMOOTH",
"250 55 LINE SMOOTH",
"271 0 OFFCURVE",
"290 0 OFFCURVE",
"306 0 CURVE SMOOTH",
"324 0 OFFCURVE",
"338 0 OFFCURVE",
"361 55 CURVE SMOOTH",
"611 660 LINE SMOOTH",
"619 680 OFFCURVE",
"623 699 OFFCURVE",
"605 699 CURVE SMOOTH"
);
}
);
width = 600;
}
);
unicode = 0056;
},
{
glyphname = W;
lastChange = "2020-02-05 19:17:07 +0000";
layers = (
{
layerId = "2F22A4FE-F550-4776-9C81-47C8675FAB27";
paths = (
{
closed = 1;
nodes = (
"303 638 LINE",
"437 58 LINE SMOOTH",
"450 0 OFFCURVE",
"464 0 OFFCURVE",
"487 0 CURVE SMOOTH",
"510 0 OFFCURVE",
"522 0 OFFCURVE",
"535 58 CURVE SMOOTH",
"669 655 LINE SMOOTH",
"673 675 OFFCURVE",
"671 700 OFFCURVE",
"657 700 CURVE SMOOTH",
"653 700 LINE SMOOTH",
"635 700 OFFCURVE",
"622 681 OFFCURVE",
"619 667 CURVE SMOOTH",
"486 61 LINE",
"353 642 LINE SMOOTH",
"338 707 OFFCURVE",
"330 705 OFFCURVE",
"303 705 CURVE SMOOTH",
"277 705 OFFCURVE",
"265 709 OFFCURVE",
"250 642 CURVE SMOOTH",
"121 61 LINE",
"-13 667 LINE SMOOTH",
"-16 679 OFFCURVE",
"-30 709 OFFCURVE",
"-47 703 CURVE SMOOTH",
"-50 702 LINE SMOOTH",
"-66 697 OFFCURVE",
"-67 668 OFFCURVE",
"-64 655 CURVE SMOOTH",
"71 58 LINE SMOOTH",
"84 0 OFFCURVE",
"96 0 OFFCURVE",
"120 0 CURVE SMOOTH",
"143 0 OFFCURVE",
"157 0 OFFCURVE",
"170 58 CURVE SMOOTH"
);
}
);
width = 600;
}
);
unicode = 0057;
},
{
glyphname = X;
lastChange = "2020-02-05 19:21:38 +0000";
layers = (
{
layerId = "2F22A4FE-F550-4776-9C81-47C8675FAB27";
paths = (
{
closed = 1;
nodes = (
"560 664 LINE SMOOTH",
"574 684 OFFCURVE",
"567 700 OFFCURVE",
"544 700 CURVE SMOOTH",
"542 700 LINE SMOOTH",
"527 700 OFFCURVE",
"517 695 OFFCURVE",
"508 683 CURVE SMOOTH",
"307 402 LINE",
"103 683 LINE SMOOTH",
"94 695 OFFCURVE",
"81 700 OFFCURVE",
"66 700 CURVE SMOOTH",
"66 700 LINE SMOOTH",
"48 700 OFFCURVE",
"38 684 OFFCURVE",
"52 664 CURVE SMOOTH",
"275 358 LINE",
"40 36 LINE SMOOTH",
"26 16 OFFCURVE",
"34 0 OFFCURVE",
"57 0 CURVE SMOOTH",
"59 0 LINE SMOOTH",
"73 0 OFFCURVE",
"83 5 OFFCURVE",
"92 17 CURVE SMOOTH",
"307 315 LINE",
"517 17 LINE SMOOTH",
"526 5 OFFCURVE",
"536 0 OFFCURVE",
"550 0 CURVE SMOOTH",
"563 0 LINE SMOOTH",
"581 0 OFFCURVE",
"583 16 OFFCURVE",
"569 36 CURVE SMOOTH",
"338 358 LINE"
);
}
);
width = 600;
}
);
unicode = 0058;
},
{
glyphname = Y;
lastChange = "2020-02-05 19:27:15 +0000";
layers = (
{
layerId = "2F22A4FE-F550-4776-9C81-47C8675FAB27";
paths = (
{
closed = 1;
nodes = (
"340 337 LINE",
"589 642 LINE SMOOTH",
"607 664 OFFCURVE",
"615 688 OFFCURVE",
"605 694 CURVE SMOOTH",
"602 696 LINE SMOOTH",
"589 705 OFFCURVE",
"564 692 OFFCURVE",
"550 674 CURVE SMOOTH",
"315 388 LINE",
"70 684 LINE SMOOTH",
"55 702 OFFCURVE",
"43 707 OFFCURVE",
"31 699 CURVE SMOOTH",
"28 697 LINE SMOOTH",
"16 689 OFFCURVE",
"23 662 OFFCURVE",
"31 652 CURVE SMOOTH",
"290 337 LINE",
"290 40 LINE SMOOTH",
"290 14 OFFCURVE",
"291 0 OFFCURVE",
"315 0 CURVE SMOOTH",
"339 0 OFFCURVE",
"340 14 OFFCURVE",
"340 40 CURVE SMOOTH"
);
}
);
width = 600;
}
);
unicode = 0059;
},
{
glyphname = Z;
lastChange = "2020-02-05 19:38:00 +0000";
layers = (
{
layerId = "2F22A4FE-F550-4776-9C81-47C8675FAB27";
paths = (
{
closed = 1;
nodes = (
"513 586 LINE SMOOTH",
"531 610 OFFCURVE",
"557 649 OFFCURVE",
"577 678 CURVE SMOOTH",
"597 708 OFFCURVE",
"562 709 OFFCURVE",
"483 709 CURVE SMOOTH",
"75 709 LINE SMOOTH",
"49 709 OFFCURVE",
"35 708 OFFCURVE",
"35 684 CURVE SMOOTH",
"35 660 OFFCURVE",
"49 659 OFFCURVE",
"75 659 CURVE SMOOTH",
"495 659 LINE",
"93 113 LINE SMOOTH",
"72 84 OFFCURVE",
"57 62 OFFCURVE",
"42 38 CURVE SMOOTH",
"12 -10 OFFCURVE",
"54 -4 OFFCURVE",
"99 -4 CURVE SMOOTH",
"513 -4 LINE SMOOTH",
"539 -4 OFFCURVE",
"553 -2 OFFCURVE",
"553 22 CURVE SMOOTH",
"553 46 OFFCURVE",
"539 46 OFFCURVE",
"513 46 CURVE SMOOTH",
"111 46 LINE"
);
}
);
width = 600;
}
);
unicode = 005A;
},
{
glyphname = a;
lastChange = "2020-02-05 20:28:51 +0000";
layers = (
{
layerId = "2F22A4FE-F550-4776-9C81-47C8675FAB27";
paths = (
{
closed = 1;
nodes = (
"479 40 LINE SMOOTH",
"479 14 OFFCURVE",
"480 0 OFFCURVE",
"504 0 CURVE SMOOTH",
"528 0 OFFCURVE",
"530 14 OFFCURVE",
"530 40 CURVE SMOOTH",
"530 460 LINE SMOOTH",
"530 486 OFFCURVE",
"528 500 OFFCURVE",
"504 500 CURVE SMOOTH",
"480 500 OFFCURVE",
"480 486 OFFCURVE",
"480 460 CURVE SMOOTH",
"480 419 LINE",
"419 508 OFFCURVE",
"168 508 OFFCURVE",
"100 433 QCURVE SMOOTH",
"34 359 OFFCURVE",
"34 250 QCURVE SMOOTH",
"34 141 OFFCURVE",
"100 67 QCURVE SMOOTH",
"168 -8 OFFCURVE",
"276 -8 QCURVE SMOOTH",
"419 -8 OFFCURVE",
"479 80 QCURVE"
);
},
{
closed = 1;
nodes = (
"197 38 OFFCURVE",
"141 101 QCURVE SMOOTH",
"89 160 OFFCURVE",
"89 250 QCURVE SMOOTH",
"89 340 OFFCURVE",
"141 399 QCURVE SMOOTH",
"197 462 OFFCURVE",
"286 462 QCURVE SMOOTH",
"377 462 OFFCURVE",
"429 399 QCURVE SMOOTH",
"479 340 OFFCURVE",
"479 250 QCURVE SMOOTH",
"479 160 OFFCURVE",
"429 101 QCURVE SMOOTH",
"377 38 OFFCURVE",
"286 38 QCURVE SMOOTH"
);
}
);
width = 600;
}
);
unicode = 0061;
},
{
glyphname = b;
lastChange = "2020-02-05 20:30:18 +0000";
layers = (
{
layerId = "2F22A4FE-F550-4776-9C81-47C8675FAB27";
paths = (
{
closed = 1;
nodes = (
"117 760 LINE SMOOTH",
"117 786 OFFCURVE",
"117 800 OFFCURVE",
"93 800 CURVE SMOOTH",
"69 800 OFFCURVE",
"67 786 OFFCURVE",
"67 760 CURVE SMOOTH",
"67 40 LINE SMOOTH",
"67 14 OFFCURVE",
"69 0 OFFCURVE",
"93 0 CURVE SMOOTH",
"117 0 OFFCURVE",
"117 14 OFFCURVE",
"117 40 CURVE SMOOTH",
"117 80 LINE",
"177 -8 OFFCURVE",
"427 -8 OFFCURVE",
"494 67 QCURVE SMOOTH",
"561 141 OFFCURVE",
"561 250 QCURVE SMOOTH",
"561 359 OFFCURVE",
"494 433 QCURVE SMOOTH",
"427 508 OFFCURVE",
"319 508 QCURVE SMOOTH",
"190 508 OFFCURVE",
"117 419 QCURVE"
);
},
{
closed = 1;
nodes = (
"219 40 OFFCURVE",
"167 102 QCURVE SMOOTH",
"118 161 OFFCURVE",
"118 250 QCURVE SMOOTH",
"118 339 OFFCURVE",
"167 398 QCURVE SMOOTH",
"219 460 OFFCURVE",
"309 460 QCURVE SMOOTH",
"397 460 OFFCURVE",
"452 398 QCURVE SMOOTH",
"504 339 OFFCURVE",
"504 250 QCURVE SMOOTH",
"504 161 OFFCURVE",
"452 102 QCURVE SMOOTH",
"397 40 OFFCURVE",
"309 40 QCURVE SMOOTH"
);
}
);
width = 600;
}
);
unicode = 0062;
},
{
glyphname = c;
lastChange = "2020-02-05 20:43:59 +0000";
layers = (
{
layerId = "2F22A4FE-F550-4776-9C81-47C8675FAB27";
paths = (
{
closed = 1;
nodes = (
"364 -10 OFFCURVE",
"438 16 OFFCURVE",
"471 36 QCURVE SMOOTH",
"491 48 OFFCURVE",
"494 85 OFFCURVE",
"463 89 OFFCURVE",
"454 83 QCURVE SMOOTH",
"420 62 OFFCURVE",
"363 37 OFFCURVE",
"323 37 QCURVE SMOOTH",
"226 37 OFFCURVE",
"98 156 OFFCURVE",
"98 245 QCURVE SMOOTH",
"98 334 OFFCURVE",
"226 455 OFFCURVE",
"323 455 QCURVE SMOOTH",
"363 455 OFFCURVE",
"411 434 OFFCURVE",
"449 413 QCURVE SMOOTH",
"461 406 OFFCURVE",
"491 413 OFFCURVE",
"489 444 OFFCURVE",
"474 452 QCURVE SMOOTH",
"440 470 OFFCURVE",
"364 500 OFFCURVE",
"311 500 QCURVE SMOOTH",
"239 500 OFFCURVE",
"117 438 OFFCURVE",
"44 323 OFFCURVE",
"44 245 QCURVE SMOOTH",
"44 167 OFFCURVE",
"117 52 OFFCURVE",
"239 -10 OFFCURVE",
"311 -10 QCURVE SMOOTH"
);
}
);
width = 600;
}
);
unicode = 0063;
},
{
glyphname = d;
lastChange = "2020-02-05 20:47:21 +0000";
layers = (
{
layerId = "2F22A4FE-F550-4776-9C81-47C8675FAB27";
paths = (
{
closed = 1;
nodes = (
"412 508 OFFCURVE",
"270 508 QCURVE SMOOTH",
"162 508 OFFCURVE",
"95 433 QCURVE SMOOTH",
"28 359 OFFCURVE",
"28 250 QCURVE SMOOTH",
"28 141 OFFCURVE",
"95 67 QCURVE SMOOTH",
"162 -8 OFFCURVE",
"400 -8 OFFCURVE",
"473 80 QCURVE",
"473 40 LINE SMOOTH",
"473 14 OFFCURVE",
"473 0 OFFCURVE",
"497 0 CURVE SMOOTH",
"521 0 OFFCURVE",
"523 14 OFFCURVE",
"523 40 CURVE SMOOTH",
"523 760 LINE SMOOTH",
"523 786 OFFCURVE",
"521 800 OFFCURVE",
"497 800 CURVE SMOOTH",
"473 800 OFFCURVE",
"473 786 OFFCURVE",
"473 760 CURVE SMOOTH",
"473 419 LINE"
);
},
{
closed = 1;
nodes = (
"191 38 OFFCURVE",
"135 101 QCURVE SMOOTH",
"83 160 OFFCURVE",
"83 250 QCURVE SMOOTH",
"83 340 OFFCURVE",
"135 399 QCURVE SMOOTH",
"191 462 OFFCURVE",
"280 462 QCURVE SMOOTH",
"371 462 OFFCURVE",
"423 399 QCURVE SMOOTH",
"473 340 OFFCURVE",
"473 250 QCURVE SMOOTH",
"473 160 OFFCURVE",
"423 101 QCURVE SMOOTH",
"371 38 OFFCURVE",
"280 38 QCURVE SMOOTH"
);
}
);
width = 600;
}
);
unicode = 0064;
},
{
glyphname = eth;
lastChange = "2019-12-02 16:06:13 +0000";
layers = (
{
layerId = "2F22A4FE-F550-4776-9C81-47C8675FAB27";
paths = (
{
closed = 1;
nodes = (
"341 -3 OFFCURVE",
"413 17 OFFCURVE",
"453 60 CURVE SMOOTH",
"492 101 OFFCURVE",
"512 151 OFFCURVE",
"512 212 CURVE SMOOTH",
"512 252 OFFCURVE",
"515 286 OFFCURVE",
"476 356 CURVE SMOOTH",
"431 437 LINE SMOOTH",
"405 483 OFFCURVE",
"370 536 OFFCURVE",
"334 584 CURVE",
"374 614 LINE SMOOTH",
"392 628 OFFCURVE",
"399 648 OFFCURVE",
"389 662 CURVE SMOOTH",
"379 675 OFFCURVE",
"357 675 OFFCURVE",
"338 661 CURVE SMOOTH",
"297 630 LINE",
"287 642 LINE SMOOTH",
"250 685 OFFCURVE",
"238 712 OFFCURVE",
"203 691 CURVE",
"179 671 OFFCURVE",
"187 642 OFFCURVE",
"223 597 CURVE SMOOTH",
"234 583 LINE",
"192 552 LINE SMOOTH",
"173 538 OFFCURVE",
"167 518 OFFCURVE",
"177 505 CURVE SMOOTH",
"187 491 OFFCURVE",
"208 491 OFFCURVE",
"228 506 CURVE SMOOTH",
"270 537 LINE",
"329 455 LINE",
"360 411 LINE",
"328 423 OFFCURVE",
"308 429 OFFCURVE",
"274 429 CURVE SMOOTH",
"211 429 OFFCURVE",
"153 408 OFFCURVE",
"113 366 CURVE SMOOTH",
"74 325 OFFCURVE",
"54 274 OFFCURVE",
"54 213 CURVE SMOOTH",
"54 152 OFFCURVE",
"74 101 OFFCURVE",
"113 60 CURVE SMOOTH",
"153 18 OFFCURVE",
"215 -3 OFFCURVE",
"278 -3 CURVE SMOOTH"
);
},
{
closed = 1;
nodes = (
"232 58 OFFCURVE",
"190 77 OFFCURVE",
"167 103 CURVE SMOOTH",
"141 132 OFFCURVE",
"127 169 OFFCURVE",
"127 213 CURVE SMOOTH",
"127 258 OFFCURVE",
"141 294 OFFCURVE",
"167 323 CURVE SMOOTH",
"195 354 OFFCURVE",
"232 369 OFFCURVE",
"278 369 CURVE SMOOTH",
"324 369 OFFCURVE",
"359 353 OFFCURVE",
"388 323 CURVE SMOOTH",
"415 295 OFFCURVE",
"430 258 OFFCURVE",
"433 213 CURVE",
"430 169 OFFCURVE",
"415 132 OFFCURVE",
"388 103 CURVE SMOOTH",
"360 73 OFFCURVE",
"324 58 OFFCURVE",
"278 58 CURVE SMOOTH"
);
}
);
width = 600;
}
);
unicode = 00F0;
},
{
glyphname = e;
lastChange = "2020-02-05 20:54:08 +0000";
layers = (
{
layerId = "2F22A4FE-F550-4776-9C81-47C8675FAB27";
paths = (
{
closed = 1;
nodes = (
"405 482 OFFCURVE",
"358 500 OFFCURVE",
"311 500 CURVE SMOOTH",
"152 500 OFFCURVE",
"44 390 OFFCURVE",
"44 245 CURVE SMOOTH",
"44 145 OFFCURVE",
"95 64 OFFCURVE",
"178 21 CURVE SMOOTH",
"248 -15 OFFCURVE",
"342 -18 OFFCURVE",
"401 3 CURVE SMOOTH",
"451 21 OFFCURVE",
"506 62 OFFCURVE",
"482 89 CURVE",
"458 113 OFFCURVE",
"437 71 OFFCURVE",
"381 48 CURVE SMOOTH",
"304 16 OFFCURVE",
"211 41 OFFCURVE",
"144 108 CURVE SMOOTH",
"94 158 OFFCURVE",
"96 242 OFFCURVE",
"96 275 CURVE",
"465 274 LINE SMOOTH",
"550 274 OFFCURVE",
"538 307 OFFCURVE",
"536 321 CURVE SMOOTH",
"530 365 OFFCURVE",
"499 411 OFFCURVE",
"449 453 CURVE"
);
},
{
closed = 1;
nodes = (
"141 394 OFFCURVE",
"211 451 OFFCURVE",
"324 451 CURVE SMOOTH",
"398 451 OFFCURVE",
"477 378 OFFCURVE",
"487 320 CURVE",
"102 320 LINE"
);
}
);
width = 600;
}
);
unicode = 0065;
},
{
glyphname = f;
lastChange = "2020-02-05 21:52:33 +0000";
layers = (
{
layerId = "2F22A4FE-F550-4776-9C81-47C8675FAB27";
paths = (
{
closed = 1;
nodes = (
"382 755 OFFCURVE",
"401 754 OFFCURVE",
"414 719 CURVE SMOOTH",
"421 700 OFFCURVE",
"418 688 OFFCURVE",
"447 688 CURVE SMOOTH",
"466 688 OFFCURVE",
"466 710 OFFCURVE",
"466 711 CURVE SMOOTH",
"466 794 OFFCURVE",
"396 800 OFFCURVE",
"373 800 CURVE SMOOTH",
"250 800 OFFCURVE",
"249 755 OFFCURVE",
"249 544 CURVE SMOOTH",
"249 529 LINE",
"192 529 LINE SMOOTH",
"166 529 OFFCURVE",
"152 522 OFFCURVE",
"152 501 CURVE SMOOTH",
"152 480 OFFCURVE",
"166 474 OFFCURVE",
"192 474 CURVE SMOOTH",
"250 474 LINE",
"250 41 LINE SMOOTH",
"250 18 OFFCURVE",
"255 0 OFFCURVE",
"277 0 CURVE SMOOTH",
"298 0 OFFCURVE",
"305 18 OFFCURVE",
"305 41 CURVE SMOOTH",
"305 474 LINE",
"370 474 LINE SMOOTH",
"396 474 OFFCURVE",
"410 480 OFFCURVE",
"410 501 CURVE SMOOTH",
"410 522 OFFCURVE",
"396 529 OFFCURVE",
"370 529 CURVE SMOOTH",
"306 529 LINE",
"306 548 LINE SMOOTH",
"306 751 OFFCURVE",
"320 755 OFFCURVE",
"366 755 CURVE SMOOTH"
);
}
);
width = 600;
}
);
unicode = 0066;
},
{
glyphname = g;
lastChange = "2020-02-05 21:55:20 +0000";
layers = (
{
layerId = "2F22A4FE-F550-4776-9C81-47C8675FAB27";
paths = (
{
closed = 1;
nodes = (
"34 146 OFFCURVE",
"100 74 QCURVE SMOOTH",
"168 0 OFFCURVE",
"276 0 QCURVE SMOOTH",
"418 0 OFFCURVE",
"479 89 QCURVE",
"479 -200 LINE SMOOTH",
"479 -278 OFFCURVE",
"377 -375 OFFCURVE",
"290 -375 QCURVE SMOOTH",
"156 -373 OFFCURVE",
"117 -280 QCURVE SMOOTH",
"107 -256 OFFCURVE",
"104 -235 OFFCURVE",
"73 -235 CURVE SMOOTH",
"69 -235 OFFCURVE",
"49 -235 OFFCURVE",
"61 -280 CURVE",
"82 -346 OFFCURVE",
"199 -426 OFFCURVE",
"407 -426 OFFCURVE",
"530 -308 OFFCURVE",
"530 -200 QCURVE SMOOTH",
"530 460 LINE SMOOTH",
"530 486 OFFCURVE",
"528 500 OFFCURVE",
"504 500 CURVE SMOOTH",
"480 500 OFFCURVE",
"479 486 OFFCURVE",
"479 460 CURVE SMOOTH",
"479 420 LINE",
"419 508 OFFCURVE",
"168 508 OFFCURVE",
"100 434 QCURVE SMOOTH",
"34 362 OFFCURVE",
"34 254 QCURVE SMOOTH"
);
},
{
closed = 1;
nodes = (
"89 342 OFFCURVE",
"141 401 QCURVE SMOOTH",
"196 462 OFFCURVE",
"286 462 QCURVE SMOOTH",
"374 462 OFFCURVE",
"429 401 QCURVE SMOOTH",
"479 343 OFFCURVE",
"479 254 QCURVE SMOOTH",
"479 165 OFFCURVE",
"429 107 QCURVE SMOOTH",
"403 79 OFFCURVE",
"332 46 OFFCURVE",
"286 46 QCURVE SMOOTH",
"196 46 OFFCURVE",
"141 107 QCURVE SMOOTH",
"89 166 OFFCURVE",
"89 254 QCURVE SMOOTH"
);
}
);
width = 600;
}
);
unicode = 0067;
},
{
glyphname = h;
lastChange = "2020-02-06 18:56:03 +0000";
layers = (
{
layerId = "2F22A4FE-F550-4776-9C81-47C8675FAB27";
paths = (
{
closed = 1;
nodes = (
"78 800 OFFCURVE",
"78 786 OFFCURVE",
"78 760 CURVE SMOOTH",
"78 40 LINE SMOOTH",
"78 14 OFFCURVE",
"79 0 OFFCURVE",
"103 0 CURVE SMOOTH",
"127 0 OFFCURVE",
"128 14 OFFCURVE",
"128 40 CURVE SMOOTH",
"128 288 LINE SMOOTH",
"128 356 OFFCURVE",
"184 407 QCURVE SMOOTH",
"238 457 OFFCURVE",
"298 460 QCURVE SMOOTH",
"360 460 OFFCURVE",
"444 384 OFFCURVE",
"444 289 QCURVE SMOOTH",
"444 40 LINE SMOOTH",
"444 14 OFFCURVE",
"445 0 OFFCURVE",
"469 0 CURVE SMOOTH",
"493 0 OFFCURVE",
"494 14 OFFCURVE",
"494 40 CURVE SMOOTH",
"494 291 LINE SMOOTH",
"494 391 OFFCURVE",
"444 452 QCURVE SMOOTH",
"417 480 OFFCURVE",
"345 508 OFFCURVE",
"245 508 OFFCURVE",
"167 458 OFFCURVE",
"128 422 QCURVE",
"128 760 LINE SMOOTH",
"128 786 OFFCURVE",
"127 800 OFFCURVE",
"103 800 CURVE SMOOTH"
);
}
);
width = 600;
}
);
unicode = 0068;
},
{
glyphname = i;
lastChange = "2020-02-06 18:57:36 +0000";
layers = (
{
layerId = "2F22A4FE-F550-4776-9C81-47C8675FAB27";
paths = (
{
closed = 1;
nodes = (
"268 40 LINE SMOOTH",
"268 14 OFFCURVE",
"268 0 OFFCURVE",
"290 0 CURVE SMOOTH",
"316 0 OFFCURVE",
"318 14 OFFCURVE",
"318 40 CURVE SMOOTH",
"318 460 LINE SMOOTH",
"318 486 OFFCURVE",
"317 500 OFFCURVE",
"293 500 CURVE SMOOTH",
"269 500 OFFCURVE",
"268 486 OFFCURVE",
"268 460 CURVE SMOOTH"
);
},
{
closed = 1;
nodes = (
"310 646 OFFCURVE",
"323 659 OFFCURVE",
"323 675 CURVE SMOOTH",
"323 690 OFFCURVE",
"310 703 OFFCURVE",
"293 703 CURVE SMOOTH",
"275 703 OFFCURVE",
"262 690 OFFCURVE",
"262 675 CURVE SMOOTH",
"262 659 OFFCURVE",
"275 646 OFFCURVE",
"293 646 CURVE SMOOTH"
);
}
);
width = 600;
}
);
unicode = 0069;
},
{
glyphname = idotless;
lastChange = "2020-02-06 18:57:57 +0000";
layers = (
{
layerId = "2F22A4FE-F550-4776-9C81-47C8675FAB27";
paths = (
{
closed = 1;
nodes = (
"268 40 LINE SMOOTH",
"268 14 OFFCURVE",
"268 0 OFFCURVE",
"290 0 CURVE SMOOTH",
"316 0 OFFCURVE",
"318 14 OFFCURVE",
"318 40 CURVE SMOOTH",
"318 460 LINE SMOOTH",
"318 486 OFFCURVE",
"317 500 OFFCURVE",
"293 500 CURVE SMOOTH",
"269 500 OFFCURVE",
"268 486 OFFCURVE",
"268 460 CURVE SMOOTH"
);
}
);
width = 600;
}
);
unicode = 0131;
},
{
glyphname = j;
lastChange = "2020-02-06 19:03:12 +0000";
layers = (
{
layerId = "2F22A4FE-F550-4776-9C81-47C8675FAB27";
paths = (
{
closed = 1;
nodes = (
"468 89 LINE",
"468 -200 LINE SMOOTH",
"468 -278 OFFCURVE",
"377 -358 OFFCURVE",
"290 -358 QCURVE SMOOTH",
"176 -358 OFFCURVE",
"144 -280 QCURVE SMOOTH",
"134 -256 OFFCURVE",
"125 -238 OFFCURVE",
"110 -238 CURVE SMOOTH",
"106 -238 OFFCURVE",
"79 -235 OFFCURVE",
"91 -280 CURVE",
"112 -346 OFFCURVE",
"199 -406 OFFCURVE",
"407 -403 OFFCURVE",
"518 -309 OFFCURVE",
"518 -200 QCURVE SMOOTH",
"518 460 LINE SMOOTH",
"518 486 OFFCURVE",
"517 500 OFFCURVE",
"493 500 CURVE SMOOTH",
"469 500 OFFCURVE",
"468 485 OFFCURVE",
"468 460 CURVE SMOOTH",
"468 420 LINE"
);
},
{
closed = 1;
nodes = (
"506 625 OFFCURVE",
"519 638 OFFCURVE",
"519 655 CURVE SMOOTH",
"519 672 OFFCURVE",
"506 685 OFFCURVE",
"489 685 CURVE SMOOTH",
"472 685 OFFCURVE",
"459 672 OFFCURVE",
"459 655 CURVE SMOOTH",
"459 638 OFFCURVE",
"472 625 OFFCURVE",
"489 625 CURVE SMOOTH"
);
}
);
width = 600;
}
);
unicode = 006A;
},
{
glyphname = k;
lastChange = "2020-02-06 19:07:48 +0000";
layers = (
{
layerId = "2F22A4FE-F550-4776-9C81-47C8675FAB27";
paths = (
{
closed = 1;
nodes = (
"439 10 OFFCURVE",
"394 57 CURVE SMOOTH",
"186 277 LINE",
"382 488 LINE SMOOTH",
"417 525 OFFCURVE",
"381 558 OFFCURVE",
"352 527 CURVE",
"149 310 LINE",
"149 749 LINE SMOOTH",
"149 775 OFFCURVE",
"147 800 OFFCURVE",
"121 800 CURVE SMOOTH",
"119 800 LINE SMOOTH",
"104 800 OFFCURVE",
"99 775 OFFCURVE",
"99 749 CURVE SMOOTH",
"99 40 LINE SMOOTH",
"99 14 OFFCURVE",
"104 0 OFFCURVE",
"121 0 CURVE SMOOTH",
"124 0 LINE SMOOTH",
"145 0 OFFCURVE",
"149 14 OFFCURVE",
"149 40 CURVE SMOOTH",
"149 247 LINE",
"355 23 LINE SMOOTH",
"397 -23 OFFCURVE"
);
}
);
width = 600;
}
);
unicode = 006B;
},
{
glyphname = l;
lastChange = "2020-02-06 19:11:45 +0000";
layers = (
{
layerId = "2F22A4FE-F550-4776-9C81-47C8675FAB27";
paths = (
{
closed = 1;
nodes = (
"276 40 LINE SMOOTH",
"276 14 OFFCURVE",
"280 0 OFFCURVE",
"299 0 CURVE SMOOTH",
"300 0 LINE SMOOTH",
"322 0 OFFCURVE",
"326 14 OFFCURVE",
"326 40 CURVE SMOOTH",
"326 750 LINE SMOOTH",
"326 776 OFFCURVE",
"324 791 OFFCURVE",
"302 791 CURVE SMOOTH",
"302 791 LINE SMOOTH",
"278 791 OFFCURVE",
"276 776 OFFCURVE",
"276 750 CURVE SMOOTH"
);
}
);
width = 600;
}
);
unicode = 006C;
},
{
glyphname = lslash;
lastChange = "2019-10-21 21:04:50 +0000";
layers = (
{
components = (
{
name = l;
}
);
layerId = "2F22A4FE-F550-4776-9C81-47C8675FAB27";
paths = (
{
closed = 1;
nodes = (
"164 352 OFFCURVE",
"198 339 OFFCURVE",
"232 355 CURVE SMOOTH",
"422 443 LINE SMOOTH",
"438 450 OFFCURVE",
"455 465 OFFCURVE",
"443 494 CURVE SMOOTH",
"435 513 OFFCURVE",
"409 519 OFFCURVE",
"375 503 CURVE SMOOTH",
"185 415 LINE SMOOTH",
"172 409 OFFCURVE",
"164 396 OFFCURVE",
"164 382 CURVE SMOOTH"
);
}
);
width = 600;
}
);
unicode = 0142;
},
{
glyphname = m;
lastChange = "2020-02-06 19:25:47 +0000";
layers = (
{
layerId = "2F22A4FE-F550-4776-9C81-47C8675FAB27";
paths = (
{
closed = 1;
nodes = (
"95 460 LINE SMOOTH",
"95 489 OFFCURVE",
"94 504 OFFCURVE",
"72 504 CURVE SMOOTH",
"49 504 OFFCURVE",
"48 490 OFFCURVE",
"48 460 CURVE SMOOTH",
"48 40 LINE SMOOTH",
"48 14 OFFCURVE",
"49 0 OFFCURVE",
"72 0 CURVE SMOOTH",
"94 0 OFFCURVE",
"95 14 OFFCURVE",
"95 40 CURVE SMOOTH",
"95 299 LINE SMOOTH",
"95 402 OFFCURVE",
"170 444 QCURVE SMOOTH",
"200 461 OFFCURVE",
"246 463 QCURVE SMOOTH",
"293 465 OFFCURVE",
"335 415 QCURVE SMOOTH",
"364 382 OFFCURVE",
"364 305 QCURVE SMOOTH",
"364 40 LINE SMOOTH",
"364 14 OFFCURVE",
"365 0 OFFCURVE",
"387 0 CURVE SMOOTH",
"410 0 OFFCURVE",
"411 14 OFFCURVE",
"411 40 CURVE SMOOTH",
"411 299 LINE SMOOTH",
"411 376 OFFCURVE",
"466 419 QCURVE SMOOTH",
"515 458 OFFCURVE",
"560 460 QCURVE SMOOTH",
"622 463 OFFCURVE",
"658 402 QCURVE SMOOTH",
"679 365 OFFCURVE",
"679 300 QCURVE SMOOTH",
"679 40 LINE SMOOTH",
"679 14 OFFCURVE",
"680 0 OFFCURVE",
"702 0 CURVE SMOOTH",
"725 0 OFFCURVE",
"726 14 OFFCURVE",
"726 40 CURVE SMOOTH",
"726 302 LINE SMOOTH",
"726 393 OFFCURVE",
"685 452 QCURVE SMOOTH",
"664 482 OFFCURVE",
"596 508 OFFCURVE",
"528 508 OFFCURVE",
"500 497 QCURVE SMOOTH",
"433 470 OFFCURVE",
"400 407 QCURVE",
"378 455 OFFCURVE",
"297 508 OFFCURVE",
"250 508 QCURVE SMOOTH",
"133 508 OFFCURVE",
"95 425 QCURVE"
);
}
);
width = 600;
}
);
unicode = 006D;
},
{
glyphname = n;
lastChange = "2020-02-03 15:54:05 +0000";
layers = (
{
layerId = "2F22A4FE-F550-4776-9C81-47C8675FAB27";
paths = (
{
closed = 1;
nodes = (
"128 463 LINE SMOOTH",
"128 491 OFFCURVE",
"127 504 OFFCURVE",
"103 504 CURVE SMOOTH",
"79 504 OFFCURVE",
"78 490 OFFCURVE",
"78 460 CURVE SMOOTH",
"78 40 LINE SMOOTH",
"78 14 OFFCURVE",
"79 0 OFFCURVE",
"103 0 CURVE SMOOTH",
"127 0 OFFCURVE",
"128 14 OFFCURVE",
"128 40 CURVE SMOOTH",
"128 333 LINE SMOOTH",
"128 404 OFFCURVE",
"197 437 QCURVE SMOOTH",
"240 457 OFFCURVE",
"288 457 QCURVE SMOOTH",
"336 457 OFFCURVE",
"379 419 QCURVE SMOOTH",
"416 386 OFFCURVE",
"412 305 QCURVE SMOOTH",
"412 40 LINE SMOOTH",
"412 14 OFFCURVE",
"413 0 OFFCURVE",
"437 0 CURVE SMOOTH",
"461 0 OFFCURVE",
"462 14 OFFCURVE",
"462 40 CURVE SMOOTH",
"462 299 LINE SMOOTH",
"462 375 OFFCURVE",
"433 442 OFFCURVE",
"355 501 OFFCURVE",
"292 501 QCURVE SMOOTH",
"178 504 OFFCURVE",
"128 452 QCURVE"
);
}
);
width = 600;
}
);
unicode = 006E;
},
{
glyphname = o;
lastChange = "2020-02-03 15:55:22 +0000";
layers = (
{
layerId = "2F22A4FE-F550-4776-9C81-47C8675FAB27";
paths = (
{
closed = 1;
nodes = (
"243 556 OFFCURVE",
"118 488 OFFCURVE",
"46 360 OFFCURVE",
"46 274 QCURVE SMOOTH",
"46 188 OFFCURVE",
"118 61 OFFCURVE",
"243 -7 OFFCURVE",
"322 -7 QCURVE SMOOTH",
"401 -7 OFFCURVE",
"526 61 OFFCURVE",
"597 188 OFFCURVE",
"597 274 QCURVE SMOOTH",
"597 360 OFFCURVE",
"526 488 OFFCURVE",
"401 556 OFFCURVE",
"322 556 QCURVE SMOOTH"
);
},
{
closed = 1;
nodes = (
"383 519 OFFCURVE",
"483 465 OFFCURVE",
"546 354 OFFCURVE",
"546 272 QCURVE SMOOTH",
"546 192 OFFCURVE",
"483 81 OFFCURVE",
"382 37 OFFCURVE",
"324 37 QCURVE SMOOTH",
"267 37 OFFCURVE",
"160 81 OFFCURVE",
"98 192 OFFCURVE",
"98 272 QCURVE SMOOTH",
"98 354 OFFCURVE",
"160 465 OFFCURVE",
"261 519 OFFCURVE",
"322 519 QCURVE SMOOTH"
);
}
);
width = 600;
}
);
unicode = 006F;
},
{
glyphname = ocircumflex;
lastChange = "2020-01-06 20:02:18 +0000";
layers = (
{
components = (
{
name = o;
},
{
name = circumflex;
transform = "{1, 0, 0, 1, 0, 30}";
}
);
layerId = "2F22A4FE-F550-4776-9C81-47C8675FAB27";
paths = (
{
closed = 0;
nodes = (
"19 49 LINE"
);
}
);
width = 600;
}
);
unicode = 00F4;
},
{
glyphname = p;
lastChange = "2020-02-06 19:28:34 +0000";
layers = (
{
layerId = "2F22A4FE-F550-4776-9C81-47C8675FAB27";
paths = (
{
closed = 1;
nodes = (
"157 -8 OFFCURVE",
"288 -8 QCURVE SMOOTH",
"396 -8 OFFCURVE",
"464 67 QCURVE SMOOTH",
"536 141 OFFCURVE",
"536 250 QCURVE SMOOTH",
"536 359 OFFCURVE",
"464 433 QCURVE SMOOTH",
"396 508 OFFCURVE",
"158 508 OFFCURVE",
"97 419 QCURVE",
"97 460 LINE SMOOTH",
"97 486 OFFCURVE",
"95 508 OFFCURVE",
"71 508 CURVE SMOOTH",
"47 508 OFFCURVE",
"47 486 OFFCURVE",
"47 460 CURVE SMOOTH",
"47 -330 LINE SMOOTH",
"47 -356 OFFCURVE",
"47 -380 OFFCURVE",
"71 -380 CURVE SMOOTH",
"95 -380 OFFCURVE",
"97 -356 OFFCURVE",
"97 -330 CURVE SMOOTH",
"97 80 LINE"
);
},
{
closed = 1;
nodes = (
"198 38 OFFCURVE",
"146 101 QCURVE SMOOTH",
"97 161 OFFCURVE",
"96 250 QCURVE SMOOTH",
"95 340 OFFCURVE",
"146 399 QCURVE SMOOTH",
"199 461 OFFCURVE",
"289 462 QCURVE SMOOTH",
"378 463 OFFCURVE",
"434 399 QCURVE SMOOTH",
"486 340 OFFCURVE",
"486 250 QCURVE SMOOTH",
"486 160 OFFCURVE",
"434 101 QCURVE SMOOTH",
"378 38 OFFCURVE",
"289 38 QCURVE SMOOTH"
);
}
);
width = 600;
}
);
unicode = 0070;
},
{
glyphname = thorn;
lastChange = "2019-10-21 16:48:40 +0000";
layers = (
{
layerId = "2F22A4FE-F550-4776-9C81-47C8675FAB27";
paths = (
{
closed = 1;
nodes = (
"169 -8 OFFCURVE",
"288 -8 QCURVE SMOOTH",
"396 -8 OFFCURVE",
"464 67 QCURVE SMOOTH",
"530 141 OFFCURVE",
"530 250 QCURVE SMOOTH",
"530 359 OFFCURVE",
"464 433 QCURVE SMOOTH",
"396 508 OFFCURVE",
"170 508 OFFCURVE",
"109 419 QCURVE",
"109 650 LINE SMOOTH",
"109 676 OFFCURVE",
"95 690 OFFCURVE",
"71 690 CURVE SMOOTH",
"47 690 OFFCURVE",
"34 676 OFFCURVE",
"34 650 CURVE SMOOTH",
"34 -340 LINE SMOOTH",
"34 -366 OFFCURVE",
"47 -380 OFFCURVE",
"71 -380 CURVE SMOOTH",
"95 -380 OFFCURVE",
"109 -366 OFFCURVE",
"109 -340 CURVE SMOOTH",
"109 80 LINE"
);
},
{
closed = 1;
nodes = (
"197 60 OFFCURVE",
"150 116 QCURVE SMOOTH",
"105 169 OFFCURVE",
"105 250 QCURVE SMOOTH",
"105 331 OFFCURVE",
"150 384 QCURVE SMOOTH",
"197 440 OFFCURVE",
"278 440 QCURVE SMOOTH",
"358 440 OFFCURVE",
"408 384 QCURVE SMOOTH",
"455 331 OFFCURVE",
"455 250 QCURVE SMOOTH",
"455 169 OFFCURVE",
"408 116 QCURVE SMOOTH",
"358 60 OFFCURVE",
"278 60 QCURVE SMOOTH"
);
}
);
width = 600;
}
);
unicode = 00FE;
},
{
glyphname = q;
lastChange = "2020-02-06 19:33:16 +0000";
layers = (
{
anchors = (
{
name = "new anchor";
position = "{455, 171}";
}
);
layerId = "2F22A4FE-F550-4776-9C81-47C8675FAB27";
paths = (
{
closed = 1;
nodes = (
"731 -69 LINE",
"562 -258 LINE",
"504 -318 OFFCURVE",
"513 -355 OFFCURVE",
"513 -181 CURVE",
"513 -119 LINE",
"513 460 LINE SMOOTH",
"513 486 OFFCURVE",
"510 509 OFFCURVE",
"489 509 CURVE SMOOTH",
"488 509 LINE SMOOTH",
"464 509 OFFCURVE",
"462 486 OFFCURVE",
"462 460 CURVE SMOOTH",
"462 409 LINE",
"421 468 OFFCURVE",
"356 508 OFFCURVE",
"281 508 CURVE SMOOTH",
"206 508 OFFCURVE",
"145 483 OFFCURVE",
"100 433 CURVE SMOOTH",
"56 384 OFFCURVE",
"34 323 OFFCURVE",
"34 250 CURVE SMOOTH",
"34 177 OFFCURVE",
"56 116 OFFCURVE",
"100 67 CURVE SMOOTH",
"145 17 OFFCURVE",
"204 -8 OFFCURVE",
"276 -8 CURVE SMOOTH",
"355 -8 OFFCURVE",
"423 21 OFFCURVE",
"463 80 CURVE",
"463 -119 LINE SMOOTH",
"463 -173 OFFCURVE",
"463 -291 OFFCURVE",
"463 -374 CURVE SMOOTH",
"463 -400 OFFCURVE",
"493 -403 OFFCURVE",
"510 -383 CURVE",
"794 -72 LINE",
"799 -67 OFFCURVE",
"811 -46 OFFCURVE",
"797 -32 CURVE SMOOTH",
"783 -18 OFFCURVE",
"760 -36 OFFCURVE",
"755 -42 CURVE SMOOTH"
);
},
{
closed = 1;
nodes = (
"389 69 OFFCURVE",
"328 38 OFFCURVE",
"271 38 CURVE SMOOTH",
"215 38 OFFCURVE",
"168 69 OFFCURVE",
"133 108 CURVE SMOOTH",
"100 145 OFFCURVE",
"83 193 OFFCURVE",
"83 250 CURVE SMOOTH",
"83 307 OFFCURVE",
"100 355 OFFCURVE",
"133 392 CURVE SMOOTH",
"168 432 OFFCURVE",
"215 459 OFFCURVE",
"271 459 CURVE SMOOTH",
"328 459 OFFCURVE",
"389 432 OFFCURVE",
"422 392 CURVE SMOOTH",
"454 355 OFFCURVE",
"463 304 OFFCURVE",
"463 250 CURVE SMOOTH",
"463 196 OFFCURVE",
"454 145 OFFCURVE",
"422 108 CURVE SMOOTH"
);
}
);
width = 600;
}
);
unicode = 0071;
},
{
glyphname = r;
lastChange = "2020-02-06 19:36:45 +0000";
layers = (
{
layerId = "2F22A4FE-F550-4776-9C81-47C8675FAB27";
paths = (
{
closed = 1;
nodes = (
"191 460 LINE SMOOTH",
"191 490 OFFCURVE",
"190 504 OFFCURVE",
"166 504 CURVE SMOOTH",
"142 504 OFFCURVE",
"141 490 OFFCURVE",
"141 460 CURVE SMOOTH",
"141 40 LINE SMOOTH",
"141 14 OFFCURVE",
"142 0 OFFCURVE",
"166 0 CURVE SMOOTH",
"190 0 OFFCURVE",
"191 14 OFFCURVE",
"191 40 CURVE SMOOTH",
"191 311 LINE SMOOTH",
"191 369 OFFCURVE",
"237 415 QCURVE SMOOTH",
"285 463 OFFCURVE",
"351 463 QCURVE SMOOTH",
"423 463 OFFCURVE",
"455 404 QCURVE",
"460 395 OFFCURVE",
"472 386 OFFCURVE",
"486 393 CURVE SMOOTH",
"498 399 OFFCURVE",
"494 425 OFFCURVE",
"487 435 CURVE SMOOTH",
"458 476 OFFCURVE",
"394 508 OFFCURVE",
"355 508 QCURVE SMOOTH",
"241 508 OFFCURVE",
"191 434 QCURVE"
);
}
);
width = 600;
}
);
unicode = 0072;
},
{
glyphname = s;
lastChange = "2020-02-06 19:46:11 +0000";
layers = (
{
layerId = "2F22A4FE-F550-4776-9C81-47C8675FAB27";
paths = (
{
closed = 1;
nodes = (
"397 264 OFFCURVE",
"303 285 CURVE SMOOTH",
"263 294 OFFCURVE",
"178 323 OFFCURVE",
"178 372 CURVE SMOOTH",
"178 420 OFFCURVE",
"233 463 OFFCURVE",
"303 463 CURVE SMOOTH",
"408 463 OFFCURVE",
"457 369 OFFCURVE",
"486 398 CURVE SMOOTH",
"526 438 OFFCURVE",
"394 508 OFFCURVE",
"309 508 CURVE SMOOTH",
"199 508 OFFCURVE",
"129 465 OFFCURVE",
"129 365 CURVE SMOOTH",
"129 286 OFFCURVE",
"206 253 OFFCURVE",
"282 235 CURVE SMOOTH",
"336 222 OFFCURVE",
"453 189 OFFCURVE",
"453 125 CURVE SMOOTH",
"453 62 OFFCURVE",
"380 44 OFFCURVE",
"317 44 CURVE SMOOTH",
"194 44 OFFCURVE",
"153 168 OFFCURVE",
"115 132 CURVE SMOOTH",
"97 115 OFFCURVE",
"115 89 OFFCURVE",
"164 48 CURVE",
"205 11 OFFCURVE",
"255 -7 OFFCURVE",
"316 -8 CURVE SMOOTH",
"419 -10 OFFCURVE",
"503 37 OFFCURVE",
"503 142 CURVE SMOOTH",
"503 223 OFFCURVE"
);
}
);
width = 600;
}
);
unicode = 0073;
},
{
glyphname = germandbls;
lastChange = "2019-11-25 20:07:07 +0000";
layers = (
{
layerId = "2F22A4FE-F550-4776-9C81-47C8675FAB27";
paths = (
{
closed = 1;
nodes = (
"103 0 OFFCURVE",
"89 18 OFFCURVE",
"89 34 CURVE",
"89 51 OFFCURVE",
"89 133 OFFCURVE",
"89 476 CURVE SMOOTH",
"89 702 OFFCURVE",
"264 708 OFFCURVE",
"304 708 CURVE SMOOTH",
"353 708 OFFCURVE",
"436 694 OFFCURVE",
"478 616 CURVE SMOOTH",
"532 516 OFFCURVE",
"489 417 OFFCURVE",
"340 369 CURVE",
"495 338 OFFCURVE",
"488 224 OFFCURVE",
"488 198 CURVE SMOOTH",
"488 125 OFFCURVE",
"477 0 OFFCURVE",
"318.45 -0.004 CURVE SMOOTH",
"292 0 OFFCURVE",
"249 3 OFFCURVE",
"249 35 CURVE SMOOTH",
"249 64 OFFCURVE",
"265 70 OFFCURVE",
"321 70 CURVE SMOOTH",
"408 70 OFFCURVE",
"422 121 OFFCURVE",
"422 210 CURVE SMOOTH",
"422 310 OFFCURVE",
"292 329 OFFCURVE",
"265 334 CURVE SMOOTH",
"243 338 OFFCURVE",
"221 376 OFFCURVE",
"263 398 CURVE",
"357 448 OFFCURVE",
"424 457 OFFCURVE",
"424 538 CURVE SMOOTH",
"424 578 OFFCURVE",
"388 640 OFFCURVE",
"304 640 CURVE SMOOTH",
"188 640 OFFCURVE",
"155 565 OFFCURVE",
"155 456 CURVE SMOOTH",
"155 387 OFFCURVE",
"155 125 OFFCURVE",
"155 31 CURVE SMOOTH",
"155 12 OFFCURVE",
"144 0 OFFCURVE",
"122 0 CURVE SMOOTH"
);
}
);
width = 600;
}
);
unicode = 00DF;
},
{
glyphname = t;
lastChange = "2020-02-06 19:48:23 +0000";
layers = (
{
layerId = "2F22A4FE-F550-4776-9C81-47C8675FAB27";
paths = (
{
closed = 1;
nodes = (
"282 800 OFFCURVE",
"279 781 OFFCURVE",
"279 755 CURVE SMOOTH",
"279 550 LINE",
"202 550 LINE SMOOTH",
"176 550 OFFCURVE",
"162 546 OFFCURVE",
"162 525 CURVE SMOOTH",
"162 504 OFFCURVE",
"176 500 OFFCURVE",
"202 500 CURVE SMOOTH",
"279 500 LINE",
"279 44 LINE SMOOTH",
"279 18 OFFCURVE",
"283 1 OFFCURVE",
"307 1 CURVE SMOOTH",
"331 1 OFFCURVE",
"334 18 OFFCURVE",
"334 44 CURVE SMOOTH",
"334 500 LINE",
"420 500 LINE SMOOTH",
"446 500 OFFCURVE",
"460 506 OFFCURVE",
"460 527 CURVE SMOOTH",
"460 548 OFFCURVE",
"446 550 OFFCURVE",
"420 550 CURVE SMOOTH",
"334 550 LINE",
"334 755 LINE SMOOTH",
"334 781 OFFCURVE",
"331 800 OFFCURVE",
"307 800 CURVE SMOOTH"
);
}
);
width = 600;
}
);
unicode = 0074;
},
{
glyphname = u;
lastChange = "2020-02-06 19:56:47 +0000";
layers = (
{
layerId = "2F22A4FE-F550-4776-9C81-47C8675FAB27";
paths = (
{
closed = 1;
nodes = (
"411 52 LINE SMOOTH",
"411 22 OFFCURVE",
"412 0 OFFCURVE",
"436 0 CURVE SMOOTH",
"460 0 OFFCURVE",
"462 18 OFFCURVE",
"462 48 CURVE SMOOTH",
"462 461 LINE SMOOTH",
"462 480 OFFCURVE",
"460 508 OFFCURVE",
"436 508 CURVE SMOOTH",
"412 508 OFFCURVE",
"412 480 OFFCURVE",
"412 461 CURVE SMOOTH",
"412 209 LINE SMOOTH",
"412 148 OFFCURVE",
"350 95 QCURVE",
"308 56 OFFCURVE",
"249 56 QCURVE SMOOTH",
"168 56 OFFCURVE",
"144 106 QCURVE SMOOTH",
"128 144 OFFCURVE",
"128 203 QCURVE SMOOTH",
"128 461 LINE SMOOTH",
"128 480 OFFCURVE",
"126 508 OFFCURVE",
"102 508 CURVE SMOOTH",
"78 508 OFFCURVE",
"78 480 OFFCURVE",
"78 461 CURVE SMOOTH",
"78 209 LINE SMOOTH",
"78 134 OFFCURVE",
"90 101 QCURVE",
"114 51 OFFCURVE",
"197 1 OFFCURVE",
"249 1 QCURVE SMOOTH",
"363 5 OFFCURVE",
"411 78 QCURVE"
);
}
);
width = 600;
}
);
unicode = 0075;
},
{
glyphname = v;
lastChange = "2020-02-06 20:12:33 +0000";
layers = (
{
layerId = "2F22A4FE-F550-4776-9C81-47C8675FAB27";
paths = (
{
closed = 1;
nodes = (
"467 506 LINE SMOOTH",
"448 511 OFFCURVE",
"435 485 OFFCURVE",
"430 470 CURVE SMOOTH",
"289 49 LINE",
"144 459 LINE SMOOTH",
"135 484 OFFCURVE",
"124 511 OFFCURVE",
"103 504 CURVE SMOOTH",
"100 503 LINE SMOOTH",
"79 496 OFFCURVE",
"88 469 OFFCURVE",
"95 449 CURVE SMOOTH",
"251 33 LINE SMOOTH",
"259 6 OFFCURVE",
"279 0 OFFCURVE",
"289 0 CURVE SMOOTH",
"302 0 OFFCURVE",
"320 6 OFFCURVE",
"331 33 CURVE SMOOTH",
"477 459 LINE SMOOTH",
"481 472 OFFCURVE",
"490 500 OFFCURVE",
"471 505 CURVE SMOOTH"
);
}
);
width = 600;
}
);
unicode = 0076;
},
{
glyphname = w;
lastChange = "2020-02-06 20:50:38 +0000";
layers = (
{
backgroundImage = {
imagePath = "Images/w.glif-Regular.tif";
};
layerId = "2F22A4FE-F550-4776-9C81-47C8675FAB27";
paths = (
{
closed = 1;
nodes = (
"156 39 LINE SMOOTH",
"170 0 OFFCURVE",
"196 0 OFFCURVE",
"203 0 CURVE SMOOTH",
"209 0 OFFCURVE",
"236 0 OFFCURVE",
"248 39 CURVE SMOOTH",
"350 383 LINE",
"492 39 LINE SMOOTH",
"508 1 OFFCURVE",
"531 0 OFFCURVE",
"537 0 CURVE SMOOTH",
"543 0 OFFCURVE",
"565 -1 OFFCURVE",
"578 39 CURVE SMOOTH",
"717 460 LINE SMOOTH",
"720 470 OFFCURVE",
"720 486 OFFCURVE",
"704 491 CURVE SMOOTH",
"701 492 LINE SMOOTH",
"682 498 OFFCURVE",
"672 484 OFFCURVE",
"668 470 CURVE SMOOTH",
"537 60 LINE",
"376 460 LINE SMOOTH",
"367 482 OFFCURVE",
"363 492 OFFCURVE",
"350 492 CURVE",
"349 492 LINE",
"332 492 OFFCURVE",
"329 482 OFFCURVE",
"322 460 CURVE SMOOTH",
"203 60 LINE",
"56 470 LINE SMOOTH",
"46 497 OFFCURVE",
"32 502 OFFCURVE",
"21 497 CURVE SMOOTH",
"16 495 LINE SMOOTH",
"4 490 OFFCURVE",
"0 480 OFFCURVE",
"7 460 CURVE SMOOTH"
);
}
);
width = 600;
}
);
unicode = 0077;
},
{
glyphname = x;
lastChange = "2020-02-10 20:14:37 +0000";
layers = (
{
layerId = "2F22A4FE-F550-4776-9C81-47C8675FAB27";
paths = (
{
closed = 1;
nodes = (
"490 465 LINE SMOOTH",
"497 475 OFFCURVE",
"495 491 OFFCURVE",
"484 500 CURVE SMOOTH",
"473 509 OFFCURVE",
"456 503 OFFCURVE",
"449 493 CURVE SMOOTH",
"306 293 LINE",
"169 496 LINE SMOOTH",
"162 507 OFFCURVE",
"146 510 OFFCURVE",
"134 503 CURVE SMOOTH",
"122 496 OFFCURVE",
"121 479 OFFCURVE",
"128 468 CURVE SMOOTH",
"276 249 LINE",
"124 36 LINE",
"117 24 OFFCURVE",
"119 9 OFFCURVE",
"130 2 CURVE SMOOTH",
"143 -6 OFFCURVE",
"158 -4 OFFCURVE",
"165 8 CURVE",
"305 205 LINE",
"437 7 LINE SMOOTH",
"445 -4 OFFCURVE",
"460 -7 OFFCURVE",
"471 0 CURVE SMOOTH",
"483 8 OFFCURVE",
"486 24 OFFCURVE",
"478 35 CURVE SMOOTH",
"336 249 LINE"
);
}
);
width = 600;
}
);
unicode = 0078;
},
{
glyphname = y;
lastChange = "2020-02-10 20:18:43 +0000";
layers = (
{
layerId = "2F22A4FE-F550-4776-9C81-47C8675FAB27";
paths = (
{
closed = 1;
nodes = (
"540 453 LINE SMOOTH",
"552 481 OFFCURVE",
"551 497 OFFCURVE",
"533 504 CURVE SMOOTH",
"510 513 OFFCURVE",
"495 490 OFFCURVE",
"486 469 CURVE SMOOTH",
"322 62 LINE",
"157 441 LINE SMOOTH",
"132 498 OFFCURVE",
"111 505 OFFCURVE",
"100 501 CURVE SMOOTH",
"91 498 OFFCURVE",
"80 481 OFFCURVE",
"93 453 CURVE SMOOTH",
"294 7 LINE",
"87 -478 LINE SMOOTH",
"79 -498 OFFCURVE",
"65 -537 OFFCURVE",
"85 -546 CURVE SMOOTH",
"106 -556 OFFCURVE",
"117 -537 OFFCURVE",
"134 -497 CURVE SMOOTH"
);
}
);
width = 600;
}
);
unicode = 0079;
},
{
glyphname = z;
lastChange = "2020-02-10 20:47:36 +0000";
layers = (
{
layerId = "2F22A4FE-F550-4776-9C81-47C8675FAB27";
paths = (
{
closed = 1;
nodes = (
"427 408 LINE SMOOTH",
"440 424 OFFCURVE",
"457 448 OFFCURVE",
"457 468 CURVE SMOOTH",
"457 475 LINE SMOOTH",
"457 497 OFFCURVE",
"431 506 OFFCURVE",
"405 506 CURVE SMOOTH",
"107 506 LINE SMOOTH",
"91 506 OFFCURVE",
"57 506 OFFCURVE",
"57 484 CURVE SMOOTH",
"57 465 OFFCURVE",
"66 460 OFFCURVE",
"102 460 CURVE SMOOTH",
"402 460 LINE",
"106 93 LINE SMOOTH",
"76 56 OFFCURVE",
"64 32 OFFCURVE",
"64 13 CURVE SMOOTH",
"64 -4 OFFCURVE",
"88 0 OFFCURVE",
"114 0 CURVE SMOOTH",
"405 0 LINE SMOOTH",
"431 0 OFFCURVE",
"445 2 OFFCURVE",
"445 24 CURVE SMOOTH",
"445 46 OFFCURVE",
"431 46 OFFCURVE",
"405 46 CURVE SMOOTH",
"145 46 LINE"
);
}
);
width = 600;
}
);
unicode = 007A;
},
{
glyphname = ordfeminine;
lastChange = "2019-10-21 16:17:17 +0000";
layers = (
{
layerId = "2F22A4FE-F550-4776-9C81-47C8675FAB27";
paths = (
{
closed = 1;
nodes = (
"370 483 LINE SMOOTH",
"370 470 OFFCURVE",
"377 463 OFFCURVE",
"390 463 CURVE SMOOTH",
"402 463 OFFCURVE",
"408 470 OFFCURVE",
"408 483 CURVE SMOOTH",
"408 697 LINE SMOOTH",
"408 710 OFFCURVE",
"402 717 OFFCURVE",
"390 717 CURVE SMOOTH",
"377 717 OFFCURVE",
"370 710 OFFCURVE",
"370 697 CURVE SMOOTH",
"370 676 LINE",
"339 721 OFFCURVE",
"224 721 OFFCURVE",
"189 683 QCURVE SMOOTH",
"155 647 OFFCURVE",
"156 590 QCURVE SMOOTH",
"157 534 OFFCURVE",
"189 497 QCURVE SMOOTH",
"223 458 OFFCURVE",
"279 459 QCURVE SMOOTH",
"340 460 OFFCURVE",
"370 503 QCURVE"
);
},
{
closed = 1;
nodes = (
"243 493 OFFCURVE",
"218 522 QCURVE SMOOTH",
"194 549 OFFCURVE",
"194 590 QCURVE SMOOTH",
"194 631 OFFCURVE",
"218 658 QCURVE SMOOTH",
"243 687 OFFCURVE",
"284 687 QCURVE SMOOTH",
"325 687 OFFCURVE",
"349 658 QCURVE SMOOTH",
"372 631 OFFCURVE",
"372 590 QCURVE SMOOTH",
"372 549 OFFCURVE",
"349 522 QCURVE SMOOTH",
"325 493 OFFCURVE",
"284 493 QCURVE SMOOTH"
);
}
);
width = 600;
}
);
unicode = 00AA;
},
{
glyphname = ordmasculine;
lastChange = "2020-01-06 20:02:18 +0000";
layers = (
{
layerId = "2F22A4FE-F550-4776-9C81-47C8675FAB27";
paths = (
{
closed = 1;
nodes = (
"250 713 OFFCURVE",
"184 677 OFFCURVE",
"145 609 OFFCURVE",
"145 563 QCURVE SMOOTH",
"145 518 OFFCURVE",
"184 450 OFFCURVE",
"250 414 OFFCURVE",
"292 414 QCURVE SMOOTH",
"334 414 OFFCURVE",
"400 450 OFFCURVE",
"438 518 OFFCURVE",
"438 563 QCURVE SMOOTH",
"438 609 OFFCURVE",
"400 677 OFFCURVE",
"334 713 OFFCURVE",
"292 713 QCURVE SMOOTH"
);
},
{
closed = 1;
nodes = (
"321 682 OFFCURVE",
"369 656 OFFCURVE",
"399 602 OFFCURVE",
"399 563 QCURVE SMOOTH",
"399 524 OFFCURVE",
"369 470 OFFCURVE",
"320 449 OFFCURVE",
"293 449 QCURVE SMOOTH",
"265 449 OFFCURVE",
"214 470 OFFCURVE",
"184 524 OFFCURVE",
"184 563 QCURVE SMOOTH",
"184 602 OFFCURVE",
"214 656 OFFCURVE",
"263 682 OFFCURVE",
"292 682 QCURVE SMOOTH"
);
}
);
width = 600;
}
);
unicode = 00BA;
},
{
glyphname = Delta;
lastChange = "2019-12-02 16:08:55 +0000";
layers = (
{
layerId = "2F22A4FE-F550-4776-9C81-47C8675FAB27";
paths = (
{
closed = 1;
nodes = (
"541 -5 LINE SMOOTH",
"583 -5 OFFCURVE",
"607 26 OFFCURVE",
"595 58 CURVE SMOOTH",
"368 670 LINE SMOOTH",
"335 758 OFFCURVE",
"261 760 OFFCURVE",
"228 670 CURVE SMOOTH",
"4 58 LINE SMOOTH",
"-8 26 OFFCURVE",
"17 -5 OFFCURVE",
"58 -5 CURVE SMOOTH"
);
},
{
closed = 1;
nodes = (
"68 46 OFFCURVE",
"70 87 OFFCURVE",
"81 118 CURVE SMOOTH",
"252 609 LINE SMOOTH",
"275 675 OFFCURVE",
"323 675 OFFCURVE",
"346 609 CURVE SMOOTH",
"513 118 LINE SMOOTH",
"524 87 OFFCURVE",
"530 46 OFFCURVE",
"491 46 CURVE SMOOTH",
"107 46 LINE SMOOTH"
);
}
);
width = 600;
}
);
unicode = 0394;
},
{
glyphname = Omega;
lastChange = "2019-12-02 16:13:02 +0000";
layers = (
{
layerId = "2F22A4FE-F550-4776-9C81-47C8675FAB27";
paths = (
{
closed = 1;
nodes = (
"156 -1 LINE",
"162 0 LINE SMOOTH",
"197 6 OFFCURVE",
"281 46 OFFCURVE",
"249 93 CURVE SMOOTH",
"142 250 LINE SMOOTH",
"43 395 OFFCURVE",
"177 537 QCURVE",
"236 604 OFFCURVE",
"308 604 QCURVE SMOOTH",
"408 598 OFFCURVE",
"451 529 QCURVE",
"583 374 OFFCURVE",
"464 248 QCURVE SMOOTH",
"340 98 LINE SMOOTH",
"296 45 OFFCURVE",
"396 0 OFFCURVE",
"433 0 CURVE SMOOTH",
"533 0 LINE SMOOTH",
"567 0 OFFCURVE",
"566 55 OFFCURVE",
"526 55 CURVE SMOOTH",
"450 55 LINE SMOOTH",
"412 55 OFFCURVE",
"381 69 OFFCURVE",
"427 124 CURVE SMOOTH",
"529 245 LINE SMOOTH",
"628 362 OFFCURVE",
"440 671 OFFCURVE",
"301 670 QCURVE SMOOTH",
"186 669 OFFCURVE",
"-22 373 OFFCURVE",
"67 249 QCURVE SMOOTH",
"162 117 LINE SMOOTH",
"202 62 OFFCURVE",
"179 55 OFFCURVE",
"98 55 CURVE SMOOTH",
"64 55 LINE SMOOTH",
"25 55 OFFCURVE",
"27 0 OFFCURVE",
"56 0 CURVE SMOOTH"
);
}
);
width = 600;
}
);
unicode = 03A9;
},
{
glyphname = mu;
lastChange = "2019-11-25 20:29:29 +0000";
layers = (
{
layerId = "2F22A4FE-F550-4776-9C81-47C8675FAB27";
paths = (
{
closed = 1;
nodes = (
"117 -188 OFFCURVE",
"145 -186 OFFCURVE",
"145 -158 CURVE SMOOTH",
"145 -125 OFFCURVE",
"148 -25 OFFCURVE",
"148 52 CURVE",
"167 34 LINE SMOOTH",
"203 -1 OFFCURVE",
"237 -8 OFFCURVE",
"287 -8 CURVE SMOOTH",
"376 -8 OFFCURVE",
"382 -7 OFFCURVE",
"432 37 CURVE",
"440 26 OFFCURVE",
"451 14 OFFCURVE",
"452 13 CURVE SMOOTH",
"482 -26 OFFCURVE",
"545 -19 OFFCURVE",
"584 13 CURVE SMOOTH",
"589 17 OFFCURVE",
"600 37 OFFCURVE",
"585 61 CURVE SMOOTH",
"575 77 OFFCURVE",
"559 73 OFFCURVE",
"548 68 CURVE SMOOTH",
"542 65 OFFCURVE",
"521 52 OFFCURVE",
"506 58 CURVE SMOOTH",
"489 65 OFFCURVE",
"477 86 OFFCURVE",
"477 105 CURVE SMOOTH",
"477 130 OFFCURVE",
"477 474 OFFCURVE",
"477 500 CURVE SMOOTH",
"477 512 OFFCURVE",
"468 528 OFFCURVE",
"440 528 CURVE",
"417 528 OFFCURVE",
"405 512 OFFCURVE",
"405 500 CURVE SMOOTH",
"405 476 OFFCURVE",
"406 284 OFFCURVE",
"405 272 CURVE SMOOTH",
"397 92 OFFCURVE",
"392 61 OFFCURVE",
"278 61 CURVE",
"200 61 OFFCURVE",
"154 92 OFFCURVE",
"151 272 CURVE SMOOTH",
"151 284 OFFCURVE",
"153 495 OFFCURVE",
"153 500 CURVE SMOOTH",
"153 511 OFFCURVE",
"138 528 OFFCURVE",
"117 528 CURVE SMOOTH",
"97 528 OFFCURVE",
"81 511 OFFCURVE",
"81 500 CURVE",
"81 500 LINE",
"81 480 OFFCURVE",
"76 -31 OFFCURVE",
"76 -158 CURVE SMOOTH",
"76 -186 OFFCURVE",
"101 -188 OFFCURVE",
"108 -188 CURVE SMOOTH"
);
}
);
width = 600;
}
);
unicode = 03BC;
},
{
glyphname = pi;
lastChange = "2019-09-19 20:50:32 +0000";
layers = (
{
layerId = "2F22A4FE-F550-4776-9C81-47C8675FAB27";
paths = (
{
closed = 1;
nodes = (
"550 490 OFFCURVE",
"537 512 OFFCURVE",
"511 512 CURVE SMOOTH",
"54 512 LINE SMOOTH",
"28 512 OFFCURVE",
"13 490 OFFCURVE",
"13 474 CURVE SMOOTH",
"13 457 OFFCURVE",
"28 429 OFFCURVE",
"54 429 CURVE SMOOTH",
"145 429 LINE",
"145 29 LINE SMOOTH",
"145 10 OFFCURVE",
"159 0 OFFCURVE",
"183 0 CURVE SMOOTH",
"207 0 OFFCURVE",
"220 10 OFFCURVE",
"220 29 CURVE SMOOTH",
"220 429 LINE",
"355 429 LINE",
"360 84 LINE",
"364 0 OFFCURVE",
"465 -26 OFFCURVE",
"534 35 CURVE",
"569 66 OFFCURVE",
"579 81 OFFCURVE",
"570 99 CURVE",
"563 112 OFFCURVE",
"550 119 OFFCURVE",
"534 114 CURVE",
"502 104 OFFCURVE",
"477 71 OFFCURVE",
"445 81 CURVE",
"423 90 OFFCURVE",
"434 314 OFFCURVE",
"432 429 CURVE",
"511 429 LINE SMOOTH",
"537 429 OFFCURVE",
"550 452 OFFCURVE",
"550 474 CURVE SMOOTH"
);
}
);
width = 600;
}
);
unicode = 03C0;
},
{
glyphname = zero;
lastChange = "2020-02-10 20:53:48 +0000";
layers = (
{
layerId = "2F22A4FE-F550-4776-9C81-47C8675FAB27";
paths = (
{
closed = 1;
nodes = (
"57 -1 OFFCURVE",
"285 -3 QCURVE SMOOTH",
"514 -5 OFFCURVE",
"514 346 QCURVE SMOOTH",
"514 687 OFFCURVE",
"285 687 QCURVE SMOOTH",
"57 687 OFFCURVE",
"57 346 QCURVE SMOOTH"
);
},
{
closed = 1;
nodes = (
"176 45 OFFCURVE",
"104 205 OFFCURVE",
"104 346 QCURVE SMOOTH",
"104 487 OFFCURVE",
"199 644 OFFCURVE",
"285 644 QCURVE SMOOTH",
"378 644 OFFCURVE",
"465 487 OFFCURVE",
"465 347 QCURVE SMOOTH",
"465 205 OFFCURVE",
"397 45 OFFCURVE",
"285 45 QCURVE SMOOTH"
);
}
);
width = 600;
}
);
unicode = 0030;
},
{
glyphname = one;
lastChange = "2020-02-05 17:19:00 +0000";
layers = (
{
layerId = "2F22A4FE-F550-4776-9C81-47C8675FAB27";
paths = (
{
closed = 1;
nodes = (
"276 40 LINE SMOOTH",
"276 14 OFFCURVE",
"276 0 OFFCURVE",
"296 0 CURVE SMOOTH",
"305 0 LINE SMOOTH",
"326 0 OFFCURVE",
"326 14 OFFCURVE",
"326 40 CURVE SMOOTH",
"326 660 LINE SMOOTH",
"326 686 OFFCURVE",
"326 700 OFFCURVE",
"305 700 CURVE SMOOTH",
"296 700 LINE SMOOTH",
"276 700 OFFCURVE",
"276 686 OFFCURVE",
"276 660 CURVE SMOOTH"
);
}
);
width = 600;
}
);
unicode = 0031;
},
{
glyphname = two;
lastChange = "2020-02-10 20:55:06 +0000";
layers = (
{
layerId = "2F22A4FE-F550-4776-9C81-47C8675FAB27";
paths = (
{
closed = 1;
nodes = (
"484 0 LINE SMOOTH",
"485 0 OFFCURVE",
"517 0 OFFCURVE",
"517 24 CURVE",
"517 52 OFFCURVE",
"485 55 OFFCURVE",
"474 55 CURVE SMOOTH",
"169 53 LINE",
"341 271 OFFCURVE",
"450 410 OFFCURVE",
"487 500 CURVE SMOOTH",
"537 622 OFFCURVE",
"485 709 OFFCURVE",
"376 709 CURVE",
"315 709 OFFCURVE",
"231 692 OFFCURVE",
"163 549 CURVE",
"150 520 OFFCURVE",
"151 507 OFFCURVE",
"172 501 CURVE SMOOTH",
"192 495 OFFCURVE",
"197 513 OFFCURVE",
"207 533 CURVE SMOOTH",
"291 700 OFFCURVE",
"430 684 OFFCURVE",
"455 605 CURVE SMOOTH",
"472 552 OFFCURVE",
"401 443 OFFCURVE",
"298 303 CURVE SMOOTH",
"218 194 OFFCURVE",
"126 81 OFFCURVE",
"109 60 CURVE SMOOTH",
"93 41 OFFCURVE",
"89 18 OFFCURVE",
"100 9 CURVE",
"111 -1 OFFCURVE",
"132 0 OFFCURVE",
"147 0 CURVE SMOOTH"
);
}
);
width = 600;
}
);
unicode = 0032;
},
{
glyphname = three;
lastChange = "2020-02-10 21:00:01 +0000";
layers = (
{
layerId = "2F22A4FE-F550-4776-9C81-47C8675FAB27";
paths = (
{
closed = 1;
nodes = (
"373 1 OFFCURVE",
"528 83 OFFCURVE",
"528 186 QCURVE SMOOTH",
"528 264 OFFCURVE",
"449 339 OFFCURVE",
"392 352 QCURVE",
"444 371 OFFCURVE",
"514 448 OFFCURVE",
"514 524 QCURVE SMOOTH",
"514 614 OFFCURVE",
"402 708 OFFCURVE",
"287 706 QCURVE SMOOTH",
"183 707 OFFCURVE",
"91 605 OFFCURVE",
"99 583 QCURVE SMOOTH",
"102 575 OFFCURVE",
"117 567 OFFCURVE",
"145 576 OFFCURVE",
"202 654 OFFCURVE",
"286 656 QCURVE SMOOTH",
"374 656 OFFCURVE",
"459 567 OFFCURVE",
"464 524 QCURVE SMOOTH",
"464 459 OFFCURVE",
"336 376 OFFCURVE",
"229 376 QCURVE SMOOTH",
"207 376 OFFCURVE",
"183 370 OFFCURVE",
"183 356 QCURVE SMOOTH",
"183 339 OFFCURVE",
"201 326 OFFCURVE",
"225 326 QCURVE SMOOTH",
"461 326 OFFCURVE",
"478 195 QCURVE SMOOTH",
"478 128 OFFCURVE",
"355 56 OFFCURVE",
"286 56 QCURVE SMOOTH",
"191 56 OFFCURVE",
"142 126 OFFCURVE",
"126 137 OFFCURVE",
"107 134 OFFCURVE",
"98 125 QCURVE SMOOTH",
"91 118 OFFCURVE",
"96 82 OFFCURVE",
"180 1 OFFCURVE",
"286 1 QCURVE SMOOTH"
);
}
);
width = 600;
}
);
unicode = 0033;
},
{
glyphname = four;
lastChange = "2020-02-10 21:03:58 +0000";
layers = (
{
layerId = "2F22A4FE-F550-4776-9C81-47C8675FAB27";
paths = (
{
closed = 1;
nodes = (
"470 344 LINE",
"470 658 LINE SMOOTH",
"470 676 OFFCURVE",
"470 705 OFFCURVE",
"446 705 CURVE SMOOTH",
"419 705 OFFCURVE",
"420 683 OFFCURVE",
"420 658 CURVE SMOOTH",
"420 344 LINE",
"167 344 LINE",
"167 658 LINE SMOOTH",
"167 680 OFFCURVE",
"164 704 OFFCURVE",
"141 704 CURVE SMOOTH",
"122 704 OFFCURVE",
"117 678 OFFCURVE",
"117 658 CURVE SMOOTH",
"117 321 LINE SMOOTH",
"117 318 OFFCURVE",
"116 307 OFFCURVE",
"121 302 CURVE SMOOTH",
"127 295 OFFCURVE",
"138 294 OFFCURVE",
"141 294 CURVE SMOOTH",
"420 294 LINE",
"420 40 LINE SMOOTH",
"420 14 OFFCURVE",
"422 -5 OFFCURVE",
"447 -5 CURVE SMOOTH",
"467 -5 OFFCURVE",
"470 19 OFFCURVE",
"470 40 CURVE SMOOTH",
"470 294 LINE",
"505 294 LINE SMOOTH",
"528 294 OFFCURVE",
"546 304 OFFCURVE",
"546 319 CURVE SMOOTH",
"546 332 OFFCURVE",
"528 344 OFFCURVE",
"505 344 CURVE SMOOTH"
);
}
);
width = 600;
}
);
unicode = 0034;
},
{
glyphname = five;
lastChange = "2020-02-10 21:51:11 +0000";
layers = (
{
layerId = "2F22A4FE-F550-4776-9C81-47C8675FAB27";
paths = (
{
closed = 1;
nodes = (
"384 -6 OFFCURVE",
"495 118 OFFCURVE",
"499 213 QCURVE SMOOTH",
"503 343 OFFCURVE",
"444 411 QCURVE SMOOTH",
"431 426 OFFCURVE",
"360 472 OFFCURVE",
"181 471 OFFCURVE",
"130 428 QCURVE",
"129 654 LINE",
"429 654 LINE SMOOTH",
"455 654 OFFCURVE",
"469 666 OFFCURVE",
"469 679 CURVE SMOOTH",
"469 702 OFFCURVE",
"455 704 OFFCURVE",
"429 704 CURVE SMOOTH",
"120 704 LINE SMOOTH",
"94 704 OFFCURVE",
"80 704 OFFCURVE",
"80 664 CURVE SMOOTH",
"80 376 LINE SMOOTH",
"80 349 OFFCURVE",
"78 331 OFFCURVE",
"104 332 CURVE",
"111 332 OFFCURVE",
"118 337 OFFCURVE",
"122 345 CURVE SMOOTH",
"143 388 OFFCURVE",
"257 434 OFFCURVE",
"324 423 QCURVE SMOOTH",
"395 411 OFFCURVE",
"428 353 QCURVE SMOOTH",
"450 314 OFFCURVE",
"452 248 QCURVE SMOOTH",
"452 129 OFFCURVE",
"350 41 OFFCURVE",
"245 42 OFFCURVE",
"219 54 QCURVE SMOOTH",
"155 86 OFFCURVE",
"126 145 QCURVE",
"104 184 OFFCURVE",
"63 156 OFFCURVE",
"88 113 CURVE SMOOTH",
"112 72 OFFCURVE",
"157 31 QCURVE SMOOTH",
"211 -10 OFFCURVE",
"290 -8 QCURVE SMOOTH"
);
}
);
width = 600;
}
);
unicode = 0035;
},
{
glyphname = six;
lastChange = "2020-02-10 21:57:21 +0000";
layers = (
{
layerId = "2F22A4FE-F550-4776-9C81-47C8675FAB27";
paths = (
{
closed = 1;
nodes = (
"383 408 OFFCURVE",
"325 429 OFFCURVE",
"262 429 CURVE SMOOTH",
"228 429 OFFCURVE",
"208 423 OFFCURVE",
"176 411 CURVE",
"207 455 LINE SMOOTH",
"251 517 OFFCURVE",
"268 539 OFFCURVE",
"326 610 CURVE SMOOTH",
"365 658 OFFCURVE",
"386 686 OFFCURVE",
"365 700 CURVE",
"341 715 OFFCURVE",
"318 683 OFFCURVE",
"294 652 CURVE SMOOTH",
"245 589 OFFCURVE",
"131 439 OFFCURVE",
"127 432 CURVE SMOOTH",
"77 356 LINE",
"34 286 OFFCURVE",
"34 252 OFFCURVE",
"34 212 CURVE SMOOTH",
"34 151 OFFCURVE",
"52 101 OFFCURVE",
"91 60 CURVE SMOOTH",
"131 17 OFFCURVE",
"195 -3 OFFCURVE",
"258 -3 CURVE SMOOTH",
"321 -3 OFFCURVE",
"383 18 OFFCURVE",
"423 60 CURVE SMOOTH",
"462 101 OFFCURVE",
"482 152 OFFCURVE",
"482 213 CURVE SMOOTH",
"482 274 OFFCURVE",
"462 325 OFFCURVE",
"423 366 CURVE SMOOTH"
);
},
{
closed = 1;
nodes = (
"359 57 OFFCURVE",
"306 47 OFFCURVE",
"253 47 CURVE SMOOTH",
"200 47 OFFCURVE",
"164 52 OFFCURVE",
"132 86 CURVE SMOOTH",
"101 120 OFFCURVE",
"85 162 OFFCURVE",
"85 213 CURVE",
"89 265 OFFCURVE",
"99 297 OFFCURVE",
"130 329 CURVE SMOOTH",
"163 364 OFFCURVE",
"205 377 OFFCURVE",
"258 377 CURVE SMOOTH",
"311 377 OFFCURVE",
"357 365 OFFCURVE",
"389 329 CURVE SMOOTH",
"419 296 OFFCURVE",
"432 265 OFFCURVE",
"432 213 CURVE SMOOTH",
"432 162 OFFCURVE",
"416 120 OFFCURVE",
"386 86 CURVE SMOOTH"
);
}
);
width = 600;
}
);
unicode = 0036;
},
{
glyphname = seven;
lastChange = "2020-02-10 22:01:25 +0000";
layers = (
{
layerId = "2F22A4FE-F550-4776-9C81-47C8675FAB27";
paths = (
{
closed = 1;
nodes = (
"87 704 LINE SMOOTH",
"61 704 OFFCURVE",
"47 701 OFFCURVE",
"47 678 CURVE SMOOTH",
"47 655 OFFCURVE",
"61 654 OFFCURVE",
"87 654 CURVE SMOOTH",
"462 654 LINE",
"195 47 LINE SMOOTH",
"185 25 OFFCURVE",
"185 6 OFFCURVE",
"197 0 CURVE SMOOTH",
"197 0 LINE SMOOTH",
"211 -5 OFFCURVE",
"229 -2 OFFCURVE",
"243 30 CURVE SMOOTH",
"496 605 LINE SMOOTH",
"503 622 OFFCURVE",
"508 638 OFFCURVE",
"515 656 CURVE SMOOTH",
"521 672 LINE SMOOTH",
"529 693 OFFCURVE",
"492 704 OFFCURVE",
"466 704 CURVE SMOOTH"
);
}
);
width = 600;
}
);
unicode = 0037;
},
{
glyphname = eight;
lastChange = "2020-02-13 16:26:17 +0000";
layers = (
{
layerId = "2F22A4FE-F550-4776-9C81-47C8675FAB27";
paths = (
{
closed = 1;
nodes = (
"448 3 OFFCURVE",
"548 129 OFFCURVE",
"512 215 CURVE SMOOTH",
"480 292 OFFCURVE",
"402 311 OFFCURVE",
"275 369 CURVE",
"359 445 LINE",
"382 468 OFFCURVE",
"456 542 OFFCURVE",
"497 583 CURVE SMOOTH",
"507 593 OFFCURVE",
"526 618 OFFCURVE",
"509 634 CURVE SMOOTH",
"493 650 OFFCURVE",
"487 644 OFFCURVE",
"472 629 CURVE SMOOTH",
"459 616 LINE",
"429 646 OFFCURVE",
"351 706 OFFCURVE",
"254 706 CURVE SMOOTH",
"85 706 OFFCURVE",
"9 533 OFFCURVE",
"110 410 CURVE SMOOTH",
"138 376 OFFCURVE",
"152 365 OFFCURVE",
"176 351 CURVE",
"106 294 OFFCURVE",
"53 243 OFFCURVE",
"53 171 CURVE SMOOTH",
"53 86 OFFCURVE",
"160 3 OFFCURVE",
"295 3 CURVE SMOOTH"
);
},
{
closed = 1;
nodes = (
"223 49 OFFCURVE",
"104 84 OFFCURVE",
"99 181 CURVE SMOOTH",
"96 243 OFFCURVE",
"220 324 OFFCURVE",
"229 331 CURVE",
"233 330 OFFCURVE",
"436 259 OFFCURVE",
"459 210 CURVE SMOOTH",
"493 137 OFFCURVE",
"435 70 OFFCURVE",
"315 58 CURVE SMOOTH"
);
},
{
closed = 1;
nodes = (
"86 438 OFFCURVE",
"46 636 OFFCURVE",
"254 661 CURVE",
"324 670 OFFCURVE",
"413 590 OFFCURVE",
"425 578 CURVE SMOOTH",
"427 576 OFFCURVE",
"369 525 OFFCURVE",
"337 495 CURVE SMOOTH",
"251 415 OFFCURVE",
"250 414 OFFCURVE",
"224 389 CURVE"
);
}
);
width = 600;
}
);
unicode = 0038;
},
{
glyphname = nine;
lastChange = "2020-02-13 16:32:14 +0000";
layers = (
{
layerId = "2F22A4FE-F550-4776-9C81-47C8675FAB27";
paths = (
{
closed = 1;
nodes = (
"304 316 OFFCURVE",
"393 342 OFFCURVE",
"433 384 CURVE",
"433 162 OFFCURVE",
"434 83 OFFCURVE",
"434 25 CURVE SMOOTH",
"434 -17 OFFCURVE",
"487 -15 OFFCURVE",
"487 24 CURVE",
"481 565 LINE",
"481 579 OFFCURVE",
"484 569 OFFCURVE",
"466 598 CURVE SMOOTH",
"438 643 OFFCURVE",
"418 673 OFFCURVE",
"374 692 CURVE SMOOTH",
"280 733 OFFCURVE",
"160 683 OFFCURVE",
"128 587 CURVE SMOOTH",
"96 491 OFFCURVE",
"139 383 OFFCURVE",
"232 345 CURVE SMOOTH"
);
},
{
closed = 1;
nodes = (
"227 389 OFFCURVE",
"168 448 OFFCURVE",
"168 522 CURVE SMOOTH",
"168 595 OFFCURVE",
"227 654 OFFCURVE",
"301 654 CURVE SMOOTH",
"374 654 OFFCURVE",
"433 595 OFFCURVE",
"433 522 CURVE SMOOTH",
"433 448 OFFCURVE",
"374 389 OFFCURVE",
"301 389 CURVE SMOOTH"
);
}
);
width = 600;
}
);
unicode = 0039;
},
{
glyphname = fraction;
lastChange = "2020-02-10 21:58:09 +0000";
layers = (
{
layerId = "2F22A4FE-F550-4776-9C81-47C8675FAB27";
paths = (
{
closed = 1;
nodes = (
"120 87 LINE SMOOTH",
"101 54 OFFCURVE",
"95 29 OFFCURVE",
"111 19 CURVE SMOOTH",
"125 10 OFFCURVE",
"143 26 OFFCURVE",
"163 61 CURVE SMOOTH",
"500 644 LINE SMOOTH",
"521 681 OFFCURVE",
"528 694 OFFCURVE",
"511 705 CURVE SMOOTH",
"493 716 OFFCURVE",
"479 708 OFFCURVE",
"459 674 CURVE SMOOTH"
);
}
);
width = 600;
}
);
unicode = 2044;
},
{
glyphname = period;
lastChange = "2020-02-13 16:36:14 +0000";
layers = (
{
layerId = "2F22A4FE-F550-4776-9C81-47C8675FAB27";
paths = (
{
closed = 1;
nodes = (
"324 -5 OFFCURVE",
"343 14 OFFCURVE",
"343 38 CURVE SMOOTH",
"343 60 OFFCURVE",
"324 80 OFFCURVE",
"302 80 CURVE SMOOTH",
"276 80 OFFCURVE",
"257 60 OFFCURVE",
"257 38 CURVE SMOOTH",
"257 14 OFFCURVE",
"276 -5 OFFCURVE",
"302 -5 CURVE SMOOTH"
);
}
);
width = 600;
}
);
unicode = 002E;
},
{
glyphname = comma;
lastChange = "2020-02-13 16:44:35 +0000";
layers = (
{
layerId = "2F22A4FE-F550-4776-9C81-47C8675FAB27";
paths = (
{
closed = 1;
nodes = (
"343 60 OFFCURVE",
"324 80 OFFCURVE",
"302 80 CURVE SMOOTH",
"276 80 OFFCURVE",
"257 60 OFFCURVE",
"257 38 CURVE SMOOTH",
"257 14 OFFCURVE",
"276 -5 OFFCURVE",
"302 -5 CURVE SMOOTH",
"305 -5 LINE",
"288 -48 OFFCURVE",
"286 -48 OFFCURVE",
"289 -51 CURVE SMOOTH",
"292 -54 LINE SMOOTH",
"295 -57 OFFCURVE",
"298 -54 OFFCURVE",
"301 -49 CURVE SMOOTH",
"335 13 LINE",
"339 20 OFFCURVE",
"343 29 OFFCURVE",
"343 38 CURVE SMOOTH"
);
}
);
width = 600;
}
);
unicode = 002C;
},
{
glyphname = exclam;
lastChange = "2020-02-13 16:38:11 +0000";
layers = (
{
components = (
{
name = period;
}
);
layerId = "2F22A4FE-F550-4776-9C81-47C8675FAB27";
paths = (
{
closed = 1;
nodes = (
"319 160 OFFCURVE",
"326 176 OFFCURVE",
"326 201 CURVE SMOOTH",
"326 598 LINE SMOOTH",
"326 625 OFFCURVE",
"314 639 OFFCURVE",
"302 639 CURVE SMOOTH",
"298 639 LINE SMOOTH",
"288 639 OFFCURVE",
"276 625 OFFCURVE",
"276 598 CURVE SMOOTH",
"276 201 LINE SMOOTH",
"276 176 OFFCURVE",
"283 160 OFFCURVE",
"301 160 CURVE SMOOTH"
);
}
);
width = 600;
}
);
unicode = 0021;
},
{
glyphname = question;
lastChange = "2020-02-13 16:55:59 +0000";
layers = (
{
components = (
{
name = period;
}
);
layerId = "2F22A4FE-F550-4776-9C81-47C8675FAB27";
paths = (
{
closed = 1;
nodes = (
"178 460 OFFCURVE",
"224 460 OFFCURVE",
"228 507 QCURVE",
"244 591 OFFCURVE",
"437 590 OFFCURVE",
"434 437 OFFCURVE",
"276 332 OFFCURVE",
"275 236 OFFCURVE",
"272 124 OFFCURVE",
"320 124 OFFCURVE",
"323 196 OFFCURVE",
"325 319 OFFCURVE",
"490 413 OFFCURVE",
"482 539 QCURVE SMOOTH",
"479 594 OFFCURVE",
"333 654 OFFCURVE",
"178 581 OFFCURVE",
"178 500 QCURVE SMOOTH"
);
}
);
width = 600;
}
);
unicode = 003F;
},
{
glyphname = slash;
lastChange = "2020-02-13 16:33:45 +0000";
layers = (
{
layerId = "2F22A4FE-F550-4776-9C81-47C8675FAB27";
paths = (
{
closed = 1;
nodes = (
"120 87 LINE SMOOTH",
"101 54 OFFCURVE",
"95 29 OFFCURVE",
"111 19 CURVE SMOOTH",
"125 10 OFFCURVE",
"143 26 OFFCURVE",
"163 61 CURVE SMOOTH",
"500 644 LINE SMOOTH",
"521 681 OFFCURVE",
"528 694 OFFCURVE",
"511 705 CURVE SMOOTH",
"493 716 OFFCURVE",
"479 708 OFFCURVE",
"459 674 CURVE SMOOTH"
);
}
);
width = 600;
}
);
unicode = 002F;
},
{
glyphname = backslash;
lastChange = "2020-02-13 16:34:29 +0000";
layers = (
{
layerId = "2F22A4FE-F550-4776-9C81-47C8675FAB27";
paths = (
{
closed = 1;
nodes = (
"479 92 LINE SMOOTH",
"501 61 OFFCURVE",
"521 45 OFFCURVE",
"537 56 CURVE SMOOTH",
"550 65 OFFCURVE",
"544 87 OFFCURVE",
"521 120 CURVE SMOOTH",
"135 672 LINE SMOOTH",
"110 707 OFFCURVE",
"101 719 OFFCURVE",
"84 708 CURVE SMOOTH",
"67 697 OFFCURVE",
"68 680 OFFCURVE",
"90 648 CURVE SMOOTH"
);
}
);
width = 600;
}
);
unicode = 005C;
},
{
glyphname = parenleft;
lastChange = "2020-02-13 19:30:05 +0000";
layers = (
{
layerId = "2F22A4FE-F550-4776-9C81-47C8675FAB27";
paths = (
{
closed = 1;
nodes = (
"321 -17 OFFCURVE",
"418 0 QCURVE SMOOTH",
"441 4 OFFCURVE",
"444 23 QCURVE SMOOTH",
"446 33 OFFCURVE",
"435 49 OFFCURVE",
"421 52 QCURVE SMOOTH",
"416 53 OFFCURVE",
"408 52 QCURVE SMOOTH",
"294 38 OFFCURVE",
"187 148 OFFCURVE",
"154 268 OFFCURVE",
"149 346 QCURVE SMOOTH",
"149 423 OFFCURVE",
"207 558 OFFCURVE",
"317 653 OFFCURVE",
"414 653 QCURVE SMOOTH",
"421 653 OFFCURVE",
"427 654 QCURVE SMOOTH",
"445 657 OFFCURVE",
"445 685 OFFCURVE",
"432 689 QCURVE SMOOTH",
"358 712 OFFCURVE",
"186 627 OFFCURVE",
"93 453 OFFCURVE",
"99 346 QCURVE SMOOTH",
"99 238 OFFCURVE",
"162 76 OFFCURVE"
);
}
);
width = 600;
}
);
unicode = 0028;
},
{
glyphname = braceleft;
lastChange = "2020-02-13 19:51:53 +0000";
layers = (
{
layerId = "2F22A4FE-F550-4776-9C81-47C8675FAB27";
paths = (
{
closed = 1;
nodes = (
"288 -133 OFFCURVE",
"297 -117 OFFCURVE",
"297 -105 CURVE SMOOTH",
"297 -97 OFFCURVE",
"290 -84 OFFCURVE",
"279 -84 CURVE SMOOTH",
"199 -84 OFFCURVE",
"157 -62 OFFCURVE",
"157 7 CURVE SMOOTH",
"157 144 LINE SMOOTH",
"157 205 OFFCURVE",
"143 248 OFFCURVE",
"96 273 CURVE",
"133 293 OFFCURVE",
"157 327 OFFCURVE",
"157 402 CURVE SMOOTH",
"157 541 LINE SMOOTH",
"157 610 OFFCURVE",
"185 632 OFFCURVE",
"265 632 CURVE SMOOTH",
"279 632 OFFCURVE",
"286 644 OFFCURVE",
"286 653 CURVE SMOOTH",
"286 665 OFFCURVE",
"279 679 OFFCURVE",
"265 679 CURVE SMOOTH",
"241 679 OFFCURVE",
"220 678 OFFCURVE",
"202 676 CURVE SMOOTH",
"134 668 OFFCURVE",
"109 621 OFFCURVE",
"109 535 CURVE SMOOTH",
"107 391 LINE SMOOTH",
"106 366 OFFCURVE",
"87 341 OFFCURVE",
"68 316 CURVE SMOOTH",
"58 303 OFFCURVE",
"44 297 OFFCURVE",
"26 298 CURVE SMOOTH",
"19 298 OFFCURVE",
"10 287 OFFCURVE",
"10 274 CURVE SMOOTH",
"10 261 OFFCURVE",
"16 248 OFFCURVE",
"26 248 CURVE SMOOTH",
"45 248 OFFCURVE",
"60 241 OFFCURVE",
"72 228 CURVE SMOOTH",
"89 209 OFFCURVE",
"108 184 OFFCURVE",
"109 155 CURVE SMOOTH",
"109 11 LINE SMOOTH",
"109 -50 OFFCURVE",
"116 -91 OFFCURVE",
"149 -112 CURVE SMOOTH",
"180 -131 OFFCURVE",
"231 -133 OFFCURVE",
"279 -133 CURVE SMOOTH"
);
},
{
closed = 0;
nodes = (
"265 679 LINE",
"276 678 OFFCURVE",
"286 664 OFFCURVE",
"286 653 CURVE"
);
}
);
width = 600;
}
);
unicode = 007B;
},
{
glyphname = bracketleft;
lastChange = "2020-02-13 19:53:38 +0000";
layers = (
{
layerId = "2F22A4FE-F550-4776-9C81-47C8675FAB27";
paths = (
{
closed = 1;
nodes = (
"347 -120 LINE SMOOTH",
"298 -120 OFFCURVE",
"298 -120 OFFCURVE",
"298 -70 CURVE SMOOTH",
"298 598 LINE SMOOTH",
"298 648 OFFCURVE",
"298 648 OFFCURVE",
"347 648 CURVE SMOOTH",
"410 648 LINE SMOOTH",
"433 648 OFFCURVE",
"451 654 OFFCURVE",
"451 673 CURVE SMOOTH",
"451 692 OFFCURVE",
"433 698 OFFCURVE",
"410 698 CURVE SMOOTH",
"280 698 LINE SMOOTH",
"248 698 OFFCURVE",
"248 698 OFFCURVE",
"248 674 CURVE",
"248 -137 LINE SMOOTH",
"248 -170 OFFCURVE",
"248 -170 OFFCURVE",
"280 -170 CURVE SMOOTH",
"410 -170 LINE SMOOTH",
"433 -170 OFFCURVE",
"451 -164 OFFCURVE",
"451 -145 CURVE SMOOTH",
"451 -126 OFFCURVE",
"433 -120 OFFCURVE",
"410 -120 CURVE SMOOTH"
);
}
);
width = 600;
}
);
unicode = 005B;
},
{
glyphname = hyphen;
lastChange = "2020-02-13 19:54:21 +0000";
layers = (
{
layerId = "2F22A4FE-F550-4776-9C81-47C8675FAB27";
paths = (
{
closed = 1;
nodes = (
"139 287 LINE SMOOTH",
"139 261 OFFCURVE",
"153 262 OFFCURVE",
"179 262 CURVE SMOOTH",
"420 262 LINE SMOOTH",
"446 262 OFFCURVE",
"460 261 OFFCURVE",
"460 287 CURVE SMOOTH",
"460 287 LINE SMOOTH",
"460 312 OFFCURVE",
"446 312 OFFCURVE",
"420 312 CURVE SMOOTH",
"179 312 LINE SMOOTH",
"153 312 OFFCURVE",
"139 312 OFFCURVE",
"139 287 CURVE SMOOTH"
);
}
);
width = 600;
}
);
unicode = 002D;
},
{
glyphname = endash;
lastChange = "2020-02-13 17:16:11 +0000";
layers = (
{
layerId = "2F22A4FE-F550-4776-9C81-47C8675FAB27";
paths = (
{
closed = 1;
nodes = (
"50 288 LINE SMOOTH",
"50 265 OFFCURVE",
"68 263 OFFCURVE",
"91 263 CURVE SMOOTH",
"508 263 LINE SMOOTH",
"531 263 OFFCURVE",
"549 265 OFFCURVE",
"549 288 CURVE SMOOTH",
"549 288 LINE SMOOTH",
"549 311 OFFCURVE",
"531 313 OFFCURVE",
"508 313 CURVE SMOOTH",
"91 313 LINE SMOOTH",
"68 313 OFFCURVE",
"50 311 OFFCURVE",
"50 288 CURVE SMOOTH"
);
}
);
width = 600;
}
);
unicode = 2013;
},
{
glyphname = emdash;
lastChange = "2020-02-13 19:55:03 +0000";
layers = (
{
layerId = "2F22A4FE-F550-4776-9C81-47C8675FAB27";
paths = (
{
closed = 1;
nodes = (
"-201 264 OFFCURVE",
"-183 262 OFFCURVE",
"-160 262 CURVE SMOOTH",
"758 262 LINE SMOOTH",
"781 262 OFFCURVE",
"799 264 OFFCURVE",
"799 287 CURVE SMOOTH",
"799 310 OFFCURVE",
"781 312 OFFCURVE",
"758 312 CURVE SMOOTH",
"-160 312 LINE SMOOTH",
"-183 312 OFFCURVE",
"-201 310 OFFCURVE",
"-201 287 CURVE SMOOTH"
);
}
);
width = 600;
}
);
unicode = 2014;
},
{
glyphname = underscore;
lastChange = "2020-02-13 19:56:11 +0000";
layers = (
{
layerId = "2F22A4FE-F550-4776-9C81-47C8675FAB27";
paths = (
{
closed = 1;
nodes = (
"120 -71 LINE SMOOTH",
"103 -71 OFFCURVE",
"63 -71 OFFCURVE",
"63 -94 CURVE SMOOTH",
"63 -97 LINE SMOOTH",
"63 -121 OFFCURVE",
"103 -121 OFFCURVE",
"120 -121 CURVE SMOOTH",
"478 -121 LINE SMOOTH",
"496 -121 OFFCURVE",
"535 -121 OFFCURVE",
"535 -97 CURVE SMOOTH",
"535 -94 LINE SMOOTH",
"535 -70 OFFCURVE",
"496 -71 OFFCURVE",
"478 -71 CURVE SMOOTH"
);
}
);
width = 600;
}
);
unicode = 005F;
},
{
glyphname = quotedblleft;
lastChange = "2020-02-13 20:16:30 +0000";
layers = (
{
layerId = "2F22A4FE-F550-4776-9C81-47C8675FAB27";
paths = (
{
closed = 1;
nodes = (
"325 544 OFFCURVE",
"326 607 OFFCURVE",
"375 640 CURVE SMOOTH",
"390 650 OFFCURVE",
"409 678 OFFCURVE",
"390 694 CURVE SMOOTH",
"370 711 OFFCURVE",
"351 708 OFFCURVE",
"334 687 CURVE SMOOTH",
"271 609 OFFCURVE",
"283 553 OFFCURVE",
"290 491 CURVE SMOOTH",
"293 466 OFFCURVE",
"307 452 OFFCURVE",
"332 455 CURVE SMOOTH",
"357 458 OFFCURVE",
"345 473 OFFCURVE",
"338 498 CURVE SMOOTH"
);
},
{
closed = 1;
nodes = (
"168 541 OFFCURVE",
"169 604 OFFCURVE",
"218 637 CURVE SMOOTH",
"233 647 OFFCURVE",
"250 675 OFFCURVE",
"231 691 CURVE SMOOTH",
"211 708 OFFCURVE",
"192 705 OFFCURVE",
"175 684 CURVE SMOOTH",
"112 606 OFFCURVE",
"125 550 OFFCURVE",
"130 487 CURVE SMOOTH",
"132 463 OFFCURVE",
"148 449 OFFCURVE",
"173 452 CURVE SMOOTH",
"198 455 OFFCURVE",
"188 470 OFFCURVE",
"181 495 CURVE SMOOTH"
);
}
);
width = 600;
}
);
unicode = 201C;
},
{
glyphname = quotedblright;
lastChange = "2020-02-13 20:16:20 +0000";
layers = (
{
layerId = "2F22A4FE-F550-4776-9C81-47C8675FAB27";
paths = (
{
closed = 1;
nodes = (
"243 597 OFFCURVE",
"235 536 OFFCURVE",
"188 501 CURVE",
"180 496 OFFCURVE",
"169 473 OFFCURVE",
"176 463 CURVE SMOOTH",
"191 441 OFFCURVE",
"215 449 OFFCURVE",
"232 470 CURVE SMOOTH",
"295 548 OFFCURVE",
"283 604 OFFCURVE",
"276 666 CURVE SMOOTH",
"273 691 OFFCURVE",
"266 705 OFFCURVE",
"241 702 CURVE SMOOTH",
"216 699 OFFCURVE",
"223 668 OFFCURVE",
"230 643 CURVE SMOOTH"
);
},
{
closed = 1;
nodes = (
"387 598 OFFCURVE",
"387 555 OFFCURVE",
"338 520 CURVE SMOOTH",
"323 509 OFFCURVE",
"315 482 OFFCURVE",
"325 466 CURVE SMOOTH",
"339 443 OFFCURVE",
"364 452 OFFCURVE",
"381 473 CURVE SMOOTH",
"444 551 OFFCURVE",
"431 607 OFFCURVE",
"426 670 CURVE SMOOTH",
"424 694 OFFCURVE",
"403 711 OFFCURVE",
"383 705 CURVE SMOOTH",
"363 699 OFFCURVE",
"373 655 OFFCURVE",
"375 647 CURVE SMOOTH"
);
}
);
width = 600;
}
);
unicode = 201D;
},
{
glyphname = quoteleft;
lastChange = "2020-02-13 20:05:08 +0000";
layers = (
{
layerId = "2F22A4FE-F550-4776-9C81-47C8675FAB27";
paths = (
{
closed = 1;
nodes = (
"268 541 OFFCURVE",
"269 604 OFFCURVE",
"318 637 CURVE SMOOTH",
"333 647 OFFCURVE",
"350 675 OFFCURVE",
"331 691 CURVE SMOOTH",
"311 708 OFFCURVE",
"292 705 OFFCURVE",
"275 684 CURVE SMOOTH",
"212 606 OFFCURVE",
"225 550 OFFCURVE",
"230 487 CURVE SMOOTH",
"232 463 OFFCURVE",
"248 449 OFFCURVE",
"273 452 CURVE SMOOTH",
"298 455 OFFCURVE",
"288 470 OFFCURVE",
"281 495 CURVE SMOOTH"
);
}
);
width = 600;
}
);
unicode = 2018;
},
{
glyphname = quoteright;
lastChange = "2020-02-13 20:05:43 +0000";
layers = (
{
layerId = "2F22A4FE-F550-4776-9C81-47C8675FAB27";
paths = (
{
closed = 1;
nodes = (
"307 598 OFFCURVE",
"307 556 OFFCURVE",
"258 520 CURVE SMOOTH",
"243 509 OFFCURVE",
"235 482 OFFCURVE",
"245 466 CURVE SMOOTH",
"259 443 OFFCURVE",
"284 452 OFFCURVE",
"301 473 CURVE SMOOTH",
"364 551 OFFCURVE",
"351 607 OFFCURVE",
"346 670 CURVE SMOOTH",
"344 694 OFFCURVE",
"323 711 OFFCURVE",
"303 705 CURVE SMOOTH",
"283 699 OFFCURVE",
"293 655 OFFCURVE",
"295 647 CURVE SMOOTH"
);
}
);
width = 600;
}
);
unicode = 2019;
},
{
glyphname = guilsinglleft;
lastChange = "2020-02-13 20:14:09 +0000";
layers = (
{
layerId = "2F22A4FE-F550-4776-9C81-47C8675FAB27";
paths = (
{
closed = 1;
nodes = (
"138 306 LINE SMOOTH",
"134 299 OFFCURVE",
"134 291 OFFCURVE",
"138 284 CURVE SMOOTH",
"250 90 LINE SMOOTH",
"258 76 OFFCURVE",
"274 70 OFFCURVE",
"281 70 CURVE SMOOTH",
"284 70 LINE SMOOTH",
"297 70 OFFCURVE",
"303 93 OFFCURVE",
"290 115 CURVE SMOOTH",
"192 283 LINE SMOOTH",
"188 290 OFFCURVE",
"189 298 OFFCURVE",
"193 305 CURVE SMOOTH",
"286 453 LINE SMOOTH",
"300 476 OFFCURVE",
"293 500 OFFCURVE",
"273 500 CURVE SMOOTH",
"266 500 OFFCURVE",
"259 497 OFFCURVE",
"255 490 CURVE SMOOTH"
);
}
);
width = 600;
}
);
unicode = 2039;
},
{
glyphname = currency;
lastChange = "2020-02-13 20:17:52 +0000";
layers = (
{
layerId = "2F22A4FE-F550-4776-9C81-47C8675FAB27";
paths = (
{
closed = 1;
nodes = (
"113 149 OFFCURVE",
"134 150 OFFCURVE",
"151 165 CURVE SMOOTH",
"193 201 LINE",
"199 197 OFFCURVE",
"205 194 OFFCURVE",
"211 191 CURVE SMOOTH",
"238 177 OFFCURVE",
"268 170 OFFCURVE",
"302 170 CURVE SMOOTH",
"348 170 OFFCURVE",
"389 183 OFFCURVE",
"420 209 CURVE",
"463 169 LINE SMOOTH",
"480 153 OFFCURVE",
"501 150 OFFCURVE",
"513 162 CURVE SMOOTH",
"525 174 OFFCURVE",
"520 196 OFFCURVE",
"503 212 CURVE SMOOTH",
"458 254 LINE",
"471 279 OFFCURVE",
"478 307 OFFCURVE",
"478 340 CURVE SMOOTH",
"478 369 OFFCURVE",
"472 395 OFFCURVE",
"462 418 CURVE",
"511 456 LINE SMOOTH",
"529 470 OFFCURVE",
"537 491 OFFCURVE",
"525 505 CURVE SMOOTH",
"514 518 OFFCURVE",
"492 517 OFFCURVE",
"474 503 CURVE SMOOTH",
"427 466 LINE",
"417 475 OFFCURVE",
"405 484 OFFCURVE",
"392 491 CURVE SMOOTH",
"365 504 OFFCURVE",
"335 511 OFFCURVE",
"302 511 CURVE SMOOTH",
"253 511 OFFCURVE",
"210 496 OFFCURVE",
"179 469 CURVE",
"128 505 LINE SMOOTH",
"110 518 OFFCURVE",
"88 518 OFFCURVE",
"78 505 CURVE SMOOTH",
"68 491 OFFCURVE",
"75 469 OFFCURVE",
"94 456 CURVE SMOOTH",
"143 422 LINE",
"131 398 OFFCURVE",
"125 371 OFFCURVE",
"125 340 CURVE SMOOTH",
"125 302 OFFCURVE",
"135 270 OFFCURVE",
"152 243 CURVE",
"113 209 LINE SMOOTH",
"95 194 OFFCURVE",
"89 173 OFFCURVE",
"101 161 CURVE SMOOTH"
);
},
{
closed = 1;
nodes = (
"260 217 OFFCURVE",
"216 230 OFFCURVE",
"194 268 CURVE SMOOTH",
"183 287 OFFCURVE",
"176 310 OFFCURVE",
"176 339 CURVE SMOOTH",
"176 394 OFFCURVE",
"202 433 OFFCURVE",
"240 451 CURVE SMOOTH",
"259 460 OFFCURVE",
"279 464 OFFCURVE",
"302 464 CURVE SMOOTH",
"347 464 OFFCURVE",
"386 446 OFFCURVE",
"410 408 CURVE SMOOTH",
"422 389 OFFCURVE",
"428 365 OFFCURVE",
"428 339 CURVE SMOOTH",
"428 282 OFFCURVE",
"401 243 OFFCURVE",
"364 227 CURVE SMOOTH",
"345 219 OFFCURVE",
"325 217 OFFCURVE",
"303 217 CURVE SMOOTH"
);
}
);
width = 600;
}
);
unicode = 00A4;
},
{
glyphname = euro;
lastChange = "2020-02-13 20:23:44 +0000";
layers = (
{
layerId = "2F22A4FE-F550-4776-9C81-47C8675FAB27";
paths = (
{
closed = 1;
nodes = (
"520 6 OFFCURVE",
"642 66 OFFCURVE",
"603 111 CURVE SMOOTH",
"577 141 OFFCURVE",
"545 56 OFFCURVE",
"436 56 CURVE SMOOTH",
"312 56 OFFCURVE",
"255 183 OFFCURVE",
"244 228 CURVE",
"370 228 LINE SMOOTH",
"393 228 OFFCURVE",
"411 235 OFFCURVE",
"411 253 CURVE SMOOTH",
"411 271 OFFCURVE",
"393 278 OFFCURVE",
"370 278 CURVE SMOOTH",
"234 278 LINE",
"232 329 LINE",
"234 379 LINE",
"370 379 LINE SMOOTH",
"393 379 OFFCURVE",
"411 386 OFFCURVE",
"411 404 CURVE SMOOTH",
"411 422 OFFCURVE",
"393 429 OFFCURVE",
"370 429 CURVE SMOOTH",
"244 429 LINE",
"276 545 OFFCURVE",
"334 645 OFFCURVE",
"432 646 CURVE SMOOTH",
"545 647 OFFCURVE",
"598 576 OFFCURVE",
"613 606 CURVE",
"634 654 OFFCURVE",
"533 696 OFFCURVE",
"429 696 CURVE SMOOTH",
"284 696 OFFCURVE",
"216 537 OFFCURVE",
"194 429 CURVE",
"101 429 LINE SMOOTH",
"78 429 OFFCURVE",
"60 422 OFFCURVE",
"60 404 CURVE SMOOTH",
"60 385 OFFCURVE",
"78 379 OFFCURVE",
"101 379 CURVE SMOOTH",
"184 379 LINE",
"182 329 LINE",
"184 278 LINE",
"101 278 LINE SMOOTH",
"78 278 OFFCURVE",
"60 271 OFFCURVE",
"60 253 CURVE SMOOTH",
"60 234 OFFCURVE",
"78 228 OFFCURVE",
"101 228 CURVE SMOOTH",
"194 228 LINE",
"217 103 OFFCURVE",
"298 6 OFFCURVE",
"429 6 CURVE SMOOTH"
);
}
);
width = 600;
}
);
unicode = 20AC;
},
{
glyphname = florin;
lastChange = "2020-02-13 20:29:48 +0000";
layers = (
{
layerId = "2F22A4FE-F550-4776-9C81-47C8675FAB27";
paths = (
{
closed = 1;
nodes = (
"181 -186 OFFCURVE",
"240 -162 OFFCURVE",
"285 -118 OFFCURVE",
"293 -66 OFFCURVE",
"293 -21 QCURVE SMOOTH",
"293 402 LINE",
"410 402 LINE SMOOTH",
"433 402 OFFCURVE",
"451 407 OFFCURVE",
"451 427 CURVE SMOOTH",
"451 447 OFFCURVE",
"433 452 OFFCURVE",
"410 452 CURVE SMOOTH",
"293 452 LINE",
"293 536 LINE SMOOTH",
"293 599 OFFCURVE",
"332 678 OFFCURVE",
"393 678 QCURVE SMOOTH",
"431 678 OFFCURVE",
"458 657 OFFCURVE",
"472 647 QCURVE",
"496 631 OFFCURVE",
"503 650 OFFCURVE",
"503 665 CURVE SMOOTH",
"503 676 OFFCURVE",
"431 728 OFFCURVE",
"393 728 QCURVE SMOOTH",
"310 728 OFFCURVE",
"243 637 OFFCURVE",
"243 533 QCURVE SMOOTH",
"243 452 LINE",
"194 452 LINE SMOOTH",
"171 452 OFFCURVE",
"153 446 OFFCURVE",
"153 427 CURVE SMOOTH",
"153 407 OFFCURVE",
"171 402 OFFCURVE",
"194 402 CURVE SMOOTH",
"243 402 LINE",
"243 -23 LINE SMOOTH",
"243 -97 OFFCURVE",
"165 -134 OFFCURVE",
"140 -134 QCURVE SMOOTH",
"122 -134 OFFCURVE",
"81 -125 OFFCURVE",
"67 -113 QCURVE",
"55 -102 OFFCURVE",
"45 -102 OFFCURVE",
"32 -115 CURVE",
"26 -122 OFFCURVE",
"31 -144 OFFCURVE",
"38 -151 CURVE",
"62 -173 OFFCURVE",
"116 -186 OFFCURVE",
"150 -186 QCURVE SMOOTH"
);
}
);
width = 600;
}
);
unicode = 0192;
},
{
glyphname = sterling;
lastChange = "2020-02-13 20:34:50 +0000";
layers = (
{
layerId = "2F22A4FE-F550-4776-9C81-47C8675FAB27";
paths = (
{
closed = 1;
nodes = (
"38 366 OFFCURVE",
"27 354 OFFCURVE",
"27 342 CURVE",
"26 326 OFFCURVE",
"42 316 OFFCURVE",
"53 316 CURVE",
"166 316 LINE",
"172 293 OFFCURVE",
"172 260 QCURVE SMOOTH",
"172 211 OFFCURVE",
"117 117 OFFCURVE",
"53 56 QCURVE",
"40 41 OFFCURVE",
"39 21 OFFCURVE",
"43 13 CURVE",
"50 2 OFFCURVE",
"68 -9 OFFCURVE",
"81 -6 CURVE",
"108 2 OFFCURVE",
"164 10 OFFCURVE",
"189 10 QCURVE SMOOTH",
"212 10 OFFCURVE",
"255 2 OFFCURVE",
"297 -7 OFFCURVE",
"338 -15 OFFCURVE",
"361 -15 QCURVE SMOOTH",
"389 -15 OFFCURVE",
"427 -8 OFFCURVE",
"453 5 QCURVE",
"464 10 OFFCURVE",
"484 24 OFFCURVE",
"473 50 CURVE",
"468 64 OFFCURVE",
"424 60 OFFCURVE",
"414 56 CURVE",
"378 47 OFFCURVE",
"358 47 QCURVE SMOOTH",
"323 47 OFFCURVE",
"258 65 OFFCURVE",
"218 65 QCURVE SMOOTH",
"155 65 OFFCURVE",
"118 55 QCURVE",
"172 113 OFFCURVE",
"223 215 OFFCURVE",
"223 264 QCURVE SMOOTH",
"223 275 OFFCURVE",
"221 296 OFFCURVE",
"219 316 QCURVE",
"361 316 LINE SMOOTH",
"384 316 OFFCURVE",
"402 322 OFFCURVE",
"402 341 CURVE SMOOTH",
"402 360 OFFCURVE",
"384 366 OFFCURVE",
"361 366 CURVE SMOOTH",
"197 366 LINE",
"187 388 OFFCURVE",
"164 437 OFFCURVE",
"145 476 OFFCURVE",
"132 515 OFFCURVE",
"132 535 QCURVE SMOOTH",
"132 557 OFFCURVE",
"148 597 OFFCURVE",
"181 633 OFFCURVE",
"229 664 OFFCURVE",
"265 663 QCURVE SMOOTH",
"359 661 OFFCURVE",
"392 604 QCURVE SMOOTH",
"395 598 OFFCURVE",
"420 576 OFFCURVE",
"430 583 CURVE SMOOTH",
"442 591 OFFCURVE",
"445 608 OFFCURVE",
"437 627 CURVE",
"405 676 OFFCURVE",
"345 715 OFFCURVE",
"266 715 QCURVE SMOOTH",
"227 715 OFFCURVE",
"158 688 OFFCURVE",
"107 641 OFFCURVE",
"77 578 OFFCURVE",
"77 542 QCURVE SMOOTH",
"77 519 OFFCURVE",
"89 476 OFFCURVE",
"108 436 OFFCURVE",
"130 396 OFFCURVE",
"140 366 QCURVE",
"53 366 LINE"
);
}
);
width = 600;
}
);
unicode = 00A3;
},
{
glyphname = greater;
lastChange = "2020-02-13 20:47:01 +0000";
layers = (
{
layerId = "2F22A4FE-F550-4776-9C81-47C8675FAB27";
paths = (
{
closed = 1;
nodes = (
"126 430 OFFCURVE",
"147 416 OFFCURVE",
"176 402 CURVE SMOOTH",
"451 272 LINE",
"168 119 LINE SMOOTH",
"150 109 OFFCURVE",
"127 92 OFFCURVE",
"136 73 CURVE SMOOTH",
"144 56 OFFCURVE",
"161 64 OFFCURVE",
"182 75 CURVE SMOOTH",
"479 224 LINE SMOOTH",
"499 234 OFFCURVE",
"513 246 OFFCURVE",
"513 273 CURVE SMOOTH",
"513 301 OFFCURVE",
"492 310 OFFCURVE",
"472 319 CURVE SMOOTH",
"182 458 LINE SMOOTH",
"168 465 OFFCURVE",
"141 470 OFFCURVE",
"133 448 CURVE SMOOTH"
);
}
);
width = 600;
}
);
unicode = 003E;
},
{
glyphname = logicalnot;
lastChange = "2020-01-06 20:02:18 +0000";
layers = (
{
layerId = "2F22A4FE-F550-4776-9C81-47C8675FAB27";
paths = (
{
closed = 1;
nodes = (
"77 256 OFFCURVE",
"95 239 OFFCURVE",
"118 239 CURVE SMOOTH",
"446 239 LINE",
"446 74 LINE SMOOTH",
"446 51 OFFCURVE",
"463 33 OFFCURVE",
"485 33 CURVE SMOOTH",
"507 33 OFFCURVE",
"524 51 OFFCURVE",
"524 74 CURVE SMOOTH",
"524 278 LINE SMOOTH",
"524 301 OFFCURVE",
"506 319 OFFCURVE",
"483 319 CURVE SMOOTH",
"118 319 LINE SMOOTH",
"95 319 OFFCURVE",
"77 302 OFFCURVE",
"77 279 CURVE SMOOTH"
);
}
);
width = 600;
}
);
unicode = 00AC;
},
{
glyphname = integral;
lastChange = "2019-11-26 15:01:36 +0000";
layers = (
{
layerId = "2F22A4FE-F550-4776-9C81-47C8675FAB27";
paths = (
{
closed = 1;
nodes = (
"139 -35 LINE SMOOTH",
"133 -64 OFFCURVE",
"109 -97 OFFCURVE",
"83 -97 QCURVE SMOOTH",
"72 -97 OFFCURVE",
"43 -90 OFFCURVE",
"29 -85 QCURVE",
"18 -81 OFFCURVE",
"1 -92 OFFCURVE",
"-3 -106 CURVE",
"-8 -121 OFFCURVE",
"-3 -141 OFFCURVE",
"8 -146 CURVE",
"31 -155 OFFCURVE",
"90 -167 OFFCURVE",
"113 -167 QCURVE SMOOTH",
"165 -167 OFFCURVE",
"208 -109 OFFCURVE",
"218 -57 QCURVE SMOOTH",
"367 686 LINE SMOOTH",
"373 715 OFFCURVE",
"397 748 OFFCURVE",
"423 748 QCURVE SMOOTH",
"434 748 OFFCURVE",
"464 741 OFFCURVE",
"478 736 QCURVE",
"493 731 OFFCURVE",
"508 742 OFFCURVE",
"514 758 CURVE",
"519 770 OFFCURVE",
"514 790 OFFCURVE",
"499 797 CURVE",
"476 806 OFFCURVE",
"416 818 OFFCURVE",
"393 818 QCURVE SMOOTH",
"340 818 OFFCURVE",
"295 755 OFFCURVE",
"287 708 QCURVE",
"287 708 LINE"
);
}
);
width = 600;
}
);
unicode = 222B;
},
{
glyphname = product;
lastChange = "2019-10-21 21:23:56 +0000";
layers = (
{
layerId = "2F22A4FE-F550-4776-9C81-47C8675FAB27";
paths = (
{
closed = 1;
nodes = (
"52 780 LINE SMOOTH",
"29 780 OFFCURVE",
"11 762 OFFCURVE",
"11 739 CURVE SMOOTH",
"11 734 LINE SMOOTH",
"11 711 OFFCURVE",
"29 693 OFFCURVE",
"52 693 CURVE SMOOTH",
"110 693 LINE",
"110 -100 LINE SMOOTH",
"110 -123 OFFCURVE",
"128 -141 OFFCURVE",
"151 -141 CURVE SMOOTH",
"156 -141 LINE SMOOTH",
"179 -141 OFFCURVE",
"197 -123 OFFCURVE",
"197 -100 CURVE SMOOTH",
"197 693 LINE",
"410 692 LINE",
"410 -100 LINE SMOOTH",
"410 -123 OFFCURVE",
"428 -141 OFFCURVE",
"451 -141 CURVE SMOOTH",
"456 -141 LINE SMOOTH",
"479 -141 OFFCURVE",
"497 -123 OFFCURVE",
"497 -100 CURVE SMOOTH",
"497 692 LINE",
"548 692 LINE SMOOTH",
"571 692 OFFCURVE",
"589 710 OFFCURVE",
"589 733 CURVE SMOOTH",
"589 738 LINE SMOOTH",
"589 761 OFFCURVE",
"571 779 OFFCURVE",
"548 779 CURVE SMOOTH"
);
}
);
width = 600;
}
);
unicode = 220F;
},
{
glyphname = summation;
lastChange = "2019-11-26 14:58:03 +0000";
layers = (
{
layerId = "2F22A4FE-F550-4776-9C81-47C8675FAB27";
paths = (
{
closed = 1;
nodes = (
"53 588 OFFCURVE",
"69 569 OFFCURVE",
"88 549 CURVE",
"147 492 OFFCURVE",
"205 434 OFFCURVE",
"264 376 CURVE SMOOTH",
"328 312 OFFCURVE",
"328 346 OFFCURVE",
"260 278 CURVE SMOOTH",
"203 220 OFFCURVE",
"146 163 OFFCURVE",
"88 106 CURVE",
"68 86 OFFCURVE",
"53 66 OFFCURVE",
"53 29 CURVE",
"53 -6 OFFCURVE",
"69 -16 OFFCURVE",
"99 -16 CURVE",
"478 -16 LINE",
"495 -16 OFFCURVE",
"520 -5 OFFCURVE",
"518 21 CURVE SMOOTH",
"520 50 OFFCURVE",
"503 65 OFFCURVE",
"478 65 CURVE",
"146 65 LINE",
"348 265 LINE",
"368 283 OFFCURVE",
"384 300 OFFCURVE",
"384 328 CURVE",
"384 355 OFFCURVE",
"368 371 OFFCURVE",
"348 390 CURVE",
"144 589 LINE",
"478 589 LINE",
"495 589 OFFCURVE",
"515 609 OFFCURVE",
"518 629 CURVE",
"515 650 OFFCURVE",
"500 670 OFFCURVE",
"478 670 CURVE",
"99 670 LINE",
"69 670 OFFCURVE",
"53 661 OFFCURVE",
"53 626 CURVE"
);
}
);
width = 600;
}
);
unicode = 2211;
},
{
glyphname = radical;
lastChange = "2019-12-02 16:24:23 +0000";
layers = (
{
layerId = "2F22A4FE-F550-4776-9C81-47C8675FAB27";
paths = (
{
closed = 1;
nodes = (
"455 781 OFFCURVE",
"393 781 OFFCURVE",
"380 781 CURVE",
"378 781 OFFCURVE",
"360 779 OFFCURVE",
"356 759 CURVE",
"342 670 OFFCURVE",
"275 246 OFFCURVE",
"260 155 CURVE SMOOTH",
"256 130 OFFCURVE",
"248 64 OFFCURVE",
"229 64 CURVE SMOOTH",
"201 64 OFFCURVE",
"179 260 OFFCURVE",
"169 334 CURVE SMOOTH",
"164 370 OFFCURVE",
"146 365 OFFCURVE",
"142 365 CURVE SMOOTH",
"117 365 OFFCURVE",
"77 365 OFFCURVE",
"51 365 CURVE SMOOTH",
"18 365 OFFCURVE",
"10 351 OFFCURVE",
"10 333 CURVE SMOOTH",
"10 315 OFFCURVE",
"28 301 OFFCURVE",
"51 301 CURVE SMOOTH",
"60 301 OFFCURVE",
"86 301 OFFCURVE",
"98 301 CURVE",
"119 301 OFFCURVE",
"117 301 OFFCURVE",
"119 284 CURVE",
"142 151 OFFCURVE",
"142 151 OFFCURVE",
"162 67 CURVE SMOOTH",
"177 4 OFFCURVE",
"211 0 OFFCURVE",
"228 0 CURVE SMOOTH",
"228 0 LINE SMOOTH",
"247 0 OFFCURVE",
"284 3 OFFCURVE",
"294 59 CURVE SMOOTH",
"410 708 LINE",
"412 718 OFFCURVE",
"411 719 OFFCURVE",
"422 719 CURVE",
"508 719 LINE SMOOTH",
"531 719 OFFCURVE",
"549 730 OFFCURVE",
"549 750 CURVE SMOOTH",
"549 770 OFFCURVE",
"531 781 OFFCURVE",
"508 781 CURVE SMOOTH"
);
}
);
width = 600;
}
);
unicode = 221A;
},
{
glyphname = micro;
lastChange = "2019-11-25 21:55:46 +0000";
layers = (
{
layerId = "2F22A4FE-F550-4776-9C81-47C8675FAB27";
paths = (
{
closed = 1;
nodes = (
"117 -188 OFFCURVE",
"145 -186 OFFCURVE",
"145 -158 CURVE SMOOTH",
"145 -125 OFFCURVE",
"148 -25 OFFCURVE",
"148 52 CURVE",
"167 34 LINE SMOOTH",
"203 -1 OFFCURVE",
"237 -8 OFFCURVE",
"287 -8 CURVE SMOOTH",
"376 -8 OFFCURVE",
"382 -7 OFFCURVE",
"432 37 CURVE",
"440 26 OFFCURVE",
"451 14 OFFCURVE",
"452 13 CURVE SMOOTH",
"482 -26 OFFCURVE",
"545 -19 OFFCURVE",
"584 13 CURVE SMOOTH",
"589 17 OFFCURVE",
"600 37 OFFCURVE",
"585 61 CURVE SMOOTH",
"575 77 OFFCURVE",
"559 73 OFFCURVE",
"548 68 CURVE SMOOTH",
"542 65 OFFCURVE",
"521 52 OFFCURVE",
"506 58 CURVE SMOOTH",
"489 65 OFFCURVE",
"477 86 OFFCURVE",
"477 105 CURVE SMOOTH",
"477 130 OFFCURVE",
"477 474 OFFCURVE",
"477 500 CURVE SMOOTH",
"477 512 OFFCURVE",
"468 528 OFFCURVE",
"440 528 CURVE",
"417 528 OFFCURVE",
"405 512 OFFCURVE",
"405 500 CURVE SMOOTH",
"405 476 OFFCURVE",
"406 284 OFFCURVE",
"405 272 CURVE SMOOTH",
"397 92 OFFCURVE",
"392 61 OFFCURVE",
"278 61 CURVE",
"200 61 OFFCURVE",
"154 92 OFFCURVE",
"151 272 CURVE SMOOTH",
"151 284 OFFCURVE",
"153 495 OFFCURVE",
"153 500 CURVE SMOOTH",
"153 511 OFFCURVE",
"138 528 OFFCURVE",
"117 528 CURVE SMOOTH",
"97 528 OFFCURVE",
"81 511 OFFCURVE",
"81 500 CURVE",
"81 500 LINE",
"81 480 OFFCURVE",
"76 -31 OFFCURVE",
"76 -158 CURVE SMOOTH",
"76 -186 OFFCURVE",
"101 -188 OFFCURVE",
"108 -188 CURVE SMOOTH"
);
}
);
width = 600;
}
);
unicode = 00B5;
},
{
glyphname = partialdiff;
lastChange = "2019-11-25 21:57:22 +0000";
layers = (
{
layerId = "2F22A4FE-F550-4776-9C81-47C8675FAB27";
paths = (
{
closed = 1;
nodes = (
"78 325 OFFCURVE",
"58 274 OFFCURVE",
"58 213 CURVE SMOOTH",
"58 152 OFFCURVE",
"78 101 OFFCURVE",
"117 60 CURVE SMOOTH",
"157 18 OFFCURVE",
"219 -3 OFFCURVE",
"282 -3 CURVE SMOOTH",
"345 -3 OFFCURVE",
"417 17 OFFCURVE",
"457 60 CURVE SMOOTH",
"496 101 OFFCURVE",
"516 151 OFFCURVE",
"516 212 CURVE SMOOTH",
"516 252 OFFCURVE",
"516 285 OFFCURVE",
"480 356 CURVE",
"435 434 LINE SMOOTH",
"410 477 OFFCURVE",
"332 579 OFFCURVE",
"282 642 CURVE SMOOTH",
"246 688 OFFCURVE",
"236 708 OFFCURVE",
"201 687 CURVE",
"177 667 OFFCURVE",
"191 642 OFFCURVE",
"227 597 CURVE SMOOTH",
"285 524 OFFCURVE",
"289 517 OFFCURVE",
"333 455 CURVE SMOOTH",
"364 411 LINE",
"332 423 OFFCURVE",
"312 429 OFFCURVE",
"278 429 CURVE SMOOTH",
"215 429 OFFCURVE",
"157 408 OFFCURVE",
"117 366 CURVE SMOOTH"
);
},
{
closed = 1;
nodes = (
"145 132 OFFCURVE",
"131 169 OFFCURVE",
"131 213 CURVE SMOOTH",
"131 258 OFFCURVE",
"145 294 OFFCURVE",
"171 323 CURVE SMOOTH",
"199 354 OFFCURVE",
"236 369 OFFCURVE",
"282 369 CURVE SMOOTH",
"328 369 OFFCURVE",
"363 353 OFFCURVE",
"392 323 CURVE SMOOTH",
"419 295 OFFCURVE",
"434 258 OFFCURVE",
"437 213 CURVE",
"434 169 OFFCURVE",
"419 132 OFFCURVE",
"392 103 CURVE SMOOTH",
"364 73 OFFCURVE",
"328 58 OFFCURVE",
"282 58 CURVE SMOOTH",
"236 58 OFFCURVE",
"194 77 OFFCURVE",
"171 103 CURVE SMOOTH"
);
}
);
width = 600;
}
);
unicode = 2202;
},
{
glyphname = leftRightArrow;
lastChange = "2019-11-25 20:57:56 +0000";
layers = (
{
layerId = "2F22A4FE-F550-4776-9C81-47C8675FAB27";
paths = (
{
closed = 1;
nodes = (
"609 312 OFFCURVE",
"641 325 OFFCURVE",
"640 363 CURVE SMOOTH",
"639 394 OFFCURVE",
"618 386 OFFCURVE",
"439 549 CURVE SMOOTH",
"428 559 OFFCURVE",
"401 567 OFFCURVE",
"386 545 CURVE SMOOTH",
"371 523 OFFCURVE",
"388 508 OFFCURVE",
"402 497 CURVE SMOOTH",
"527 405 LINE",
"42 400 LINE",
"156 497 LINE SMOOTH",
"167 507 OFFCURVE",
"192 525 OFFCURVE",
"170 549 CURVE SMOOTH",
"150 570 OFFCURVE",
"126 560 OFFCURVE",
"115 551 CURVE SMOOTH",
"-14 445 LINE SMOOTH",
"-26 435 OFFCURVE",
"-74 396 OFFCURVE",
"-74 361 CURVE SMOOTH",
"-74 326 OFFCURVE",
"-24 288 OFFCURVE",
"-12 278 CURVE SMOOTH",
"119 164 LINE SMOOTH",
"131 153 OFFCURVE",
"157 145 OFFCURVE",
"173 167 CURVE SMOOTH",
"188 187 OFFCURVE",
"171 203 OFFCURVE",
"159 214 CURVE SMOOTH",
"36 322 LINE",
"531 327 LINE",
"402 215 LINE SMOOTH",
"391 205 OFFCURVE",
"367 185 OFFCURVE",
"388 163 CURVE SMOOTH",
"409 141 OFFCURVE",
"433 152 OFFCURVE",
"444 162 CURVE SMOOTH"
);
}
);
width = 600;
}
);
unicode = 2194;
},
{
glyphname = upDownArrow;
lastChange = "2019-11-25 20:58:27 +0000";
layers = (
{
layerId = "2F22A4FE-F550-4776-9C81-47C8675FAB27";
paths = (
{
closed = 1;
nodes = (
"312 6 OFFCURVE",
"351 55 OFFCURVE",
"361 67 CURVE SMOOTH",
"476 197 LINE SMOOTH",
"487 209 OFFCURVE",
"495 235 OFFCURVE",
"474 251 CURVE SMOOTH",
"454 266 OFFCURVE",
"437 250 OFFCURVE",
"426 237 CURVE SMOOTH",
"317 115 LINE",
"317 610 LINE",
"450 465 LINE SMOOTH",
"460 454 OFFCURVE",
"479 430 OFFCURVE",
"502 451 CURVE SMOOTH",
"524 471 OFFCURVE",
"513 496 OFFCURVE",
"503 507 CURVE SMOOTH",
"352 671 OFFCURVE",
"320 720 OFFCURVE",
"282 720 CURVE SMOOTH",
"251 720 OFFCURVE",
"229 681 OFFCURVE",
"66 502 CURVE SMOOTH",
"56 491 OFFCURVE",
"48 464 OFFCURVE",
"70 449 CURVE SMOOTH",
"91 434 OFFCURVE",
"107 451 OFFCURVE",
"118 464 CURVE SMOOTH",
"239 607 LINE",
"239 122 LINE",
"143 237 LINE SMOOTH",
"134 248 OFFCURVE",
"116 273 OFFCURVE",
"92 252 CURVE SMOOTH",
"70 232 OFFCURVE",
"80 208 OFFCURVE",
"89 197 CURVE SMOOTH",
"194 67 LINE SMOOTH",
"203 55 OFFCURVE",
"242 6 OFFCURVE",
"277 6 CURVE SMOOTH"
);
}
);
width = 600;
}
);
unicode = 2195;
},
{
glyphname = lozenge;
lastChange = "2019-11-26 16:05:12 +0000";
layers = (
{
layerId = "2F22A4FE-F550-4776-9C81-47C8675FAB27";
paths = (
{
closed = 1;
nodes = (
"343 666 LINE SMOOTH",
"328 666 OFFCURVE",
"303 665 OFFCURVE",
"290 633 CURVE SMOOTH",
"159 319 LINE",
"290 4 LINE SMOOTH",
"300 -20 OFFCURVE",
"328 -21 OFFCURVE",
"343 -21 CURVE SMOOTH",
"343 -21 LINE SMOOTH",
"358 -21 OFFCURVE",
"383 -20 OFFCURVE",
"395 4 CURVE SMOOTH",
"446 106 OFFCURVE",
"482 214 OFFCURVE",
"526 319 CURVE",
"482 424 OFFCURVE",
"443 530 OFFCURVE",
"395 633 CURVE SMOOTH",
"380 665 OFFCURVE",
"359 666 OFFCURVE",
"344 666 CURVE SMOOTH"
);
},
{
closed = 1;
nodes = (
"246 319 LINE",
"343 551 LINE",
"439 319 LINE",
"343 87 LINE"
);
}
);
width = 600;
}
);
unicode = 25CA;
},
{
glyphname = at;
lastChange = "2019-09-15 02:30:44 +0000";
layers = (
{
layerId = "2F22A4FE-F550-4776-9C81-47C8675FAB27";
paths = (
{
closed = 1;
nodes = (
"284 -109 OFFCURVE",
"269 -93 OFFCURVE",
"247 -91 CURVE SMOOTH",
"162 -85 OFFCURVE",
"94 -57 OFFCURVE",
"44 -8 CURVE SMOOTH",
"-12 49 OFFCURVE",
"-40 131 OFFCURVE",
"-40 238 CURVE SMOOTH",
"-40 311 OFFCURVE",
"-26 377 OFFCURVE",
"1 436 CURVE SMOOTH",
"29 495 OFFCURVE",
"71 541 OFFCURVE",
"125 576 CURVE SMOOTH",
"179 609 OFFCURVE",
"242 626 OFFCURVE",
"316 626 CURVE SMOOTH",
"381 626 OFFCURVE",
"436 613 OFFCURVE",
"482 589 CURVE SMOOTH",
"526 562 OFFCURVE",
"560 528 OFFCURVE",
"584 481 CURVE SMOOTH",
"607 435 OFFCURVE",
"618 383 OFFCURVE",
"618 321 CURVE SMOOTH",
"618 277 OFFCURVE",
"614 240 OFFCURVE",
"603 208 CURVE SMOOTH",
"593 175 OFFCURVE",
"580 151 OFFCURVE",
"562 134 CURVE SMOOTH",
"545 117 OFFCURVE",
"526 108 OFFCURVE",
"506 106 CURVE SMOOTH",
"489 103 OFFCURVE",
"477 107 OFFCURVE",
"472 129 CURVE",
"472 422 LINE SMOOTH",
"472 444 OFFCURVE",
"462 455 OFFCURVE",
"444 455 CURVE SMOOTH",
"426 455 OFFCURVE",
"415 444 OFFCURVE",
"415 422 CURVE SMOOTH",
"415 389 LINE",
"384 437 OFFCURVE",
"340 461 OFFCURVE",
"283 461 CURVE SMOOTH",
"226 461 OFFCURVE",
"180 441 OFFCURVE",
"146 401 CURVE SMOOTH",
"113 361 OFFCURVE",
"96 312 OFFCURVE",
"96 253 CURVE SMOOTH",
"96 195 OFFCURVE",
"113 146 OFFCURVE",
"146 106 CURVE SMOOTH",
"180 66 OFFCURVE",
"225 45 OFFCURVE",
"280 45 CURVE SMOOTH",
"339 45 OFFCURVE",
"385 69 OFFCURVE",
"415 117 CURVE",
"415 84 LINE SMOOTH",
"415 66 OFFCURVE",
"433 53 OFFCURVE",
"445 48 CURVE",
"461 40 OFFCURVE",
"475 36 OFFCURVE",
"503 38 CURVE SMOOTH",
"537 40 OFFCURVE",
"566 56 OFFCURVE",
"595 81 CURVE SMOOTH",
"623 105 OFFCURVE",
"646 139 OFFCURVE",
"664 181 CURVE SMOOTH",
"680 225 OFFCURVE",
"689 271 OFFCURVE",
"689 323 CURVE SMOOTH",
"689 397 OFFCURVE",
"675 461 OFFCURVE",
"647 516 CURVE SMOOTH",
"618 571 OFFCURVE",
"577 613 OFFCURVE",
"522 643 CURVE SMOOTH",
"468 673 OFFCURVE",
"402 687 OFFCURVE",
"326 687 CURVE SMOOTH",
"241 687 OFFCURVE",
"166 669 OFFCURVE",
"100 630 CURVE SMOOTH",
"33 591 OFFCURVE",
"-18 537 OFFCURVE",
"-53 468 CURVE SMOOTH",
"-90 400 OFFCURVE",
"-108 322 OFFCURVE",
"-108 238 CURVE SMOOTH",
"-108 113 OFFCURVE",
"-75 17 OFFCURVE",
"-8 -51 CURVE SMOOTH",
"55 -113 OFFCURVE",
"140 -147 OFFCURVE",
"250 -153 CURVE SMOOTH",
"265 -153 OFFCURVE",
"277 -143 OFFCURVE",
"280 -129 CURVE SMOOTH"
);
},
{
closed = 1;
nodes = (
"171 135 OFFCURVE",
"153 210 OFFCURVE",
"153 253 CURVE SMOOTH",
"153 297 OFFCURVE",
"165 333 OFFCURVE",
"188 361 CURVE SMOOTH",
"214 391 OFFCURVE",
"247 406 OFFCURVE",
"287 406 CURVE SMOOTH",
"328 406 OFFCURVE",
"361 391 OFFCURVE",
"384 361 CURVE SMOOTH",
"407 333 OFFCURVE",
"418 297 OFFCURVE",
"418 253 CURVE SMOOTH",
"418 210 OFFCURVE",
"407 174 OFFCURVE",
"384 146 CURVE SMOOTH",
"361 116 OFFCURVE",
"289 91 OFFCURVE",
"241 105 CURVE"
);
}
);
width = 600;
}
);
unicode = 0040;
},
{
glyphname = ampersand;
lastChange = "2019-11-26 15:18:37 +0000";
layers = (
{
layerId = "2F22A4FE-F550-4776-9C81-47C8675FAB27";
paths = (
{
closed = 1;
nodes = (
"616 0 OFFCURVE",
"622 56 OFFCURVE",
"584 96 CURVE SMOOTH",
"539 143 LINE",
"568 189 OFFCURVE",
"599 301 OFFCURVE",
"600 366 QCURVE",
"600 384 OFFCURVE",
"577 393 OFFCURVE",
"564 393 CURVE",
"553 393 OFFCURVE",
"528 384 OFFCURVE",
"529 366 CURVE",
"529 318 OFFCURVE",
"506 233 OFFCURVE",
"487 197 QCURVE",
"306 387 LINE",
"336 407 OFFCURVE",
"384 447 OFFCURVE",
"424 497 OFFCURVE",
"452 594 OFFCURVE",
"452 624 QCURVE SMOOTH",
"452 657 OFFCURVE",
"425 711 OFFCURVE",
"378 749 OFFCURVE",
"315 775 OFFCURVE",
"279 775 QCURVE SMOOTH",
"240 775 OFFCURVE",
"173 757 OFFCURVE",
"117 716 OFFCURVE",
"91 652 OFFCURVE",
"88 609 QCURVE SMOOTH",
"87 590 OFFCURVE",
"95 536 OFFCURVE",
"127 466 OFFCURVE",
"161 422 OFFCURVE",
"185 395 QCURVE",
"157 376 OFFCURVE",
"107 333 OFFCURVE",
"68 283 OFFCURVE",
"45 223 OFFCURVE",
"45 188 QCURVE SMOOTH",
"45 145 OFFCURVE",
"80 73 OFFCURVE",
"142 20 OFFCURVE",
"226 -10 OFFCURVE",
"275 -10 QCURVE SMOOTH",
"336 -10 OFFCURVE",
"443 35 OFFCURVE",
"486 77 QCURVE",
"550 10 LINE SMOOTH",
"556 3 OFFCURVE",
"565 0 OFFCURVE",
"574 0 CURVE SMOOTH"
);
},
{
closed = 1;
nodes = (
"254 60 OFFCURVE",
"199 77 OFFCURVE",
"156 109 OFFCURVE",
"130 157 OFFCURVE",
"130 187 QCURVE SMOOTH",
"130 234 OFFCURVE",
"189 307 OFFCURVE",
"236 341 QCURVE",
"438 128 LINE",
"407 96 OFFCURVE",
"329 60 OFFCURVE",
"284 60 QCURVE SMOOTH"
);
},
{
closed = 1;
nodes = (
"177 650 OFFCURVE",
"234 702 OFFCURVE",
"279 702 QCURVE SMOOTH",
"319 702 OFFCURVE",
"371 657 OFFCURVE",
"371 622 QCURVE SMOOTH",
"371 584 OFFCURVE",
"307 473 OFFCURVE",
"255 440 QCURVE",
"231 465 OFFCURVE",
"201 502 OFFCURVE",
"179 537 OFFCURVE",
"172 588 OFFCURVE",
"174 611 QCURVE SMOOTH"
);
}
);
width = 600;
}
);
unicode = 0026;
},
{
glyphname = paragraph;
lastChange = "2019-11-26 15:59:04 +0000";
layers = (
{
layerId = "2F22A4FE-F550-4776-9C81-47C8675FAB27";
paths = (
{
closed = 1;
nodes = (
"222 708 OFFCURVE",
"132 675 OFFCURVE",
"83 617 CURVE SMOOTH",
"58 588 OFFCURVE",
"46 555 OFFCURVE",
"46 516 CURVE SMOOTH",
"46 439 OFFCURVE",
"98 379 OFFCURVE",
"183 349 CURVE SMOOTH",
"215 337 OFFCURVE",
"250 330 OFFCURVE",
"289 327 CURVE",
"288 -66 LINE SMOOTH",
"288 -89 OFFCURVE",
"304 -107 OFFCURVE",
"324 -107 CURVE SMOOTH",
"344 -107 OFFCURVE",
"360 -89 OFFCURVE",
"360 -66 CURVE SMOOTH",
"360 666 LINE SMOOTH",
"360 708 OFFCURVE",
"362 707 OFFCURVE",
"332 707 CURVE"
);
},
{
closed = 1;
nodes = (
"446 707 OFFCURVE",
"430 689 OFFCURVE",
"430 666 CURVE SMOOTH",
"430 -66 LINE SMOOTH",
"430 -89 OFFCURVE",
"446 -107 OFFCURVE",
"466 -107 CURVE SMOOTH",
"486 -107 OFFCURVE",
"502 -89 OFFCURVE",
"502 -66 CURVE SMOOTH",
"502 666 LINE SMOOTH",
"502 689 OFFCURVE",
"486 707 OFFCURVE",
"466 707 CURVE SMOOTH"
);
},
{
closed = 1;
nodes = (
"128 430 OFFCURVE",
"128 515 CURVE SMOOTH",
"128 593 OFFCURVE",
"187 637 OFFCURVE",
"289 636 CURVE",
"289 404 LINE",
"181 404 OFFCURVE"
);
}
);
width = 600;
}
);
unicode = 00B6;
},
{
glyphname = section;
lastChange = "2019-10-21 21:21:19 +0000";
layers = (
{
layerId = "2F22A4FE-F550-4776-9C81-47C8675FAB27";
paths = (
{
closed = 1;
nodes = (
"746 152 OFFCURVE",
"731 165 OFFCURVE",
"711 175 CURVE",
"723 184 LINE SMOOTH",
"756 209 OFFCURVE",
"770 247 OFFCURVE",
"770 296 CURVE SMOOTH",
"770 327 OFFCURVE",
"762 352 OFFCURVE",
"749 370 CURVE SMOOTH",
"735 390 OFFCURVE",
"718 402 OFFCURVE",
"697 413 CURVE SMOOTH",
"675 424 OFFCURVE",
"652 431 OFFCURVE",
"628 437 CURVE SMOOTH",
"603 443 OFFCURVE",
"581 448 OFFCURVE",
"561 455 CURVE SMOOTH",
"539 463 OFFCURVE",
"521 470 OFFCURVE",
"508 481 CURVE SMOOTH",
"494 493 OFFCURVE",
"487 506 OFFCURVE",
"487 526 CURVE SMOOTH",
"487 574 OFFCURVE",
"519 598 OFFCURVE",
"585 598 CURVE SMOOTH",
"650 598 OFFCURVE",
"686 572 OFFCURVE",
"691 520 CURVE SMOOTH",
"693 499 OFFCURVE",
"706 483 OFFCURVE",
"723 483 CURVE SMOOTH",
"741 483 OFFCURVE",
"758 502 OFFCURVE",
"757 520 CURVE SMOOTH",
"755 561 OFFCURVE",
"737 593 OFFCURVE",
"712 618 CURVE SMOOTH",
"683 647 OFFCURVE",
"641 662 OFFCURVE",
"590 662 CURVE SMOOTH",
"535 662 OFFCURVE",
"492 650 OFFCURVE",
"465 625 CURVE SMOOTH",
"437 599 OFFCURVE",
"423 564 OFFCURVE",
"423 519 CURVE SMOOTH",
"423 488 OFFCURVE",
"429 464 OFFCURVE",
"444 447 CURVE SMOOTH",
"457 433 OFFCURVE",
"470 420 OFFCURVE",
"487 411 CURVE",
"474 405 OFFCURVE",
"463 399 OFFCURVE",
"454 391 CURVE SMOOTH",
"425 365 OFFCURVE",
"409 330 OFFCURVE",
"409 285 CURVE SMOOTH",
"409 254 OFFCURVE",
"416 230 OFFCURVE",
"431 213 CURVE SMOOTH",
"447 195 OFFCURVE",
"465 182 OFFCURVE",
"488 172 CURVE SMOOTH",
"500 167 OFFCURVE",
"513 162 OFFCURVE",
"526 158 CURVE SMOOTH",
"537 155 OFFCURVE",
"548 152 OFFCURVE",
"560 149 CURVE SMOOTH",
"588 142 OFFCURVE",
"612 137 OFFCURVE",
"635 130 CURVE SMOOTH",
"658 123 OFFCURVE",
"676 114 OFFCURVE",
"691 103 CURVE SMOOTH",
"707 92 OFFCURVE",
"714 76 OFFCURVE",
"714 55 CURVE SMOOTH",
"714 24 OFFCURVE",
"699 1 OFFCURVE",
"670 -10 CURVE SMOOTH",
"657 -15 OFFCURVE",
"644 -19 OFFCURVE",
"631 -21 CURVE SMOOTH",
"617 -23 OFFCURVE",
"602 -24 OFFCURVE",
"587 -24 CURVE SMOOTH",
"571 -24 OFFCURVE",
"556 -21 OFFCURVE",
"540 -16 CURVE SMOOTH",
"497 -3 OFFCURVE",
"474 30 OFFCURVE",
"467 77 CURVE SMOOTH",
"464 97 OFFCURVE",
"452 112 OFFCURVE",
"433 112 CURVE SMOOTH",
"415 112 OFFCURVE",
"399 97 OFFCURVE",
"399 77 CURVE SMOOTH",
"399 29 OFFCURVE",
"414 -7 OFFCURVE",
"444 -32 CURVE SMOOTH",
"486 -67 OFFCURVE",
"535 -87 OFFCURVE",
"596 -88 CURVE SMOOTH",
"654 -89 OFFCURVE",
"698 -76 OFFCURVE",
"732 -50 CURVE SMOOTH",
"766 -24 OFFCURVE",
"783 13 OFFCURVE",
"783 62 CURVE SMOOTH",
"783 93 OFFCURVE",
"775 118 OFFCURVE",
"760 136 CURVE SMOOTH"
);
},
{
closed = 1;
nodes = (
"517 233 OFFCURVE",
"503 245 CURVE",
"488 259 OFFCURVE",
"478 279 OFFCURVE",
"478 301 CURVE",
"481 343 OFFCURVE",
"517 364 OFFCURVE",
"583 364 CURVE SMOOTH",
"654 364 OFFCURVE",
"692 338 OFFCURVE",
"698 286 CURVE",
"699 274 OFFCURVE",
"704 240 OFFCURVE",
"665 224 CURVE SMOOTH",
"650 218 OFFCURVE",
"618 208 OFFCURVE",
"598 210 CURVE",
"579 210 OFFCURVE"
);
}
);
width = 1200;
}
);
unicode = 00A7;
},
{
glyphname = copyright;
lastChange = "2019-09-19 20:17:13 +0000";
layers = (
{
layerId = "2F22A4FE-F550-4776-9C81-47C8675FAB27";
paths = (
{
closed = 1;
nodes = (
"338 85 OFFCURVE",
"392 104 OFFCURVE",
"416 119 QCURVE SMOOTH",
"431 128 OFFCURVE",
"431 144 QCURVE SMOOTH",
"431 155 OFFCURVE",
"414 173 OFFCURVE",
"403 173 QCURVE SMOOTH",
"395 173 OFFCURVE",
"389 169 QCURVE SMOOTH",
"367 155 OFFCURVE",
"331 138 OFFCURVE",
"305 138 QCURVE SMOOTH",
"242 138 OFFCURVE",
"161 217 OFFCURVE",
"161 275 QCURVE SMOOTH",
"161 333 OFFCURVE",
"242 413 OFFCURVE",
"305 413 QCURVE SMOOTH",
"331 413 OFFCURVE",
"361 400 OFFCURVE",
"385 385 QCURVE SMOOTH",
"393 380 OFFCURVE",
"401 382 QCURVE SMOOTH",
"412 385 OFFCURVE",
"429 400 OFFCURVE",
"429 410 QCURVE SMOOTH",
"429 426 OFFCURVE",
"418 431 QCURVE SMOOTH",
"392 443 OFFCURVE",
"338 465 OFFCURVE",
"299 465 QCURVE SMOOTH",
"247 465 OFFCURVE",
"158 419 OFFCURVE",
"104 333 OFFCURVE",
"104 275 QCURVE SMOOTH",
"104 217 OFFCURVE",
"158 131 OFFCURVE",
"247 85 OFFCURVE",
"299 85 QCURVE SMOOTH"
);
},
{
closed = 1;
nodes = (
"148 602 OFFCURVE",
"55 505 QCURVE SMOOTH",
"-36 411 OFFCURVE",
"-36 128 OFFCURVE",
"55 34 QCURVE SMOOTH",
"148 -63 OFFCURVE",
"294 -63 QCURVE SMOOTH",
"439 -63 OFFCURVE",
"532 34 QCURVE SMOOTH",
"623 128 OFFCURVE",
"623 411 OFFCURVE",
"532 505 QCURVE SMOOTH",
"439 602 OFFCURVE",
"294 602 QCURVE SMOOTH"
);
},
{
closed = 1;
nodes = (
"174 1 OFFCURVE",
"100 78 QCURVE SMOOTH",
"29 152 OFFCURVE",
"23 270 QCURVE SMOOTH",
"16 387 OFFCURVE",
"100 461 QCURVE SMOOTH",
"181 539 OFFCURVE",
"294 539 QCURVE SMOOTH",
"414 539 OFFCURVE",
"487 461 QCURVE SMOOTH",
"557 387 OFFCURVE",
"558 270 QCURVE SMOOTH",
"563 153 OFFCURVE",
"487 78 QCURVE SMOOTH",
"410 1 OFFCURVE",
"294 1 QCURVE SMOOTH"
);
}
);
width = 600;
}
);
unicode = 00A9;
},
{
glyphname = registered;
lastChange = "2019-09-19 20:38:04 +0000";
layers = (
{
layerId = "2F22A4FE-F550-4776-9C81-47C8675FAB27";
paths = (
{
closed = 1;
nodes = (
"237 761 OFFCURVE",
"166 723 OFFCURVE",
"125 650 OFFCURVE",
"125 601 QCURVE SMOOTH",
"125 553 OFFCURVE",
"166 480 OFFCURVE",
"237 442 OFFCURVE",
"282 442 QCURVE SMOOTH",
"327 442 OFFCURVE",
"397 480 OFFCURVE",
"438 553 OFFCURVE",
"438 601 QCURVE SMOOTH",
"438 650 OFFCURVE",
"397 723 OFFCURVE",
"327 761 OFFCURVE",
"282 761 QCURVE SMOOTH"
);
},
{
closed = 1;
nodes = (
"317 743 OFFCURVE",
"374 711 OFFCURVE",
"411 646 OFFCURVE",
"411 600 QCURVE SMOOTH",
"411 554 OFFCURVE",
"374 490 OFFCURVE",
"316 465 OFFCURVE",
"283 465 QCURVE SMOOTH",
"250 465 OFFCURVE",
"189 490 OFFCURVE",
"153 554 OFFCURVE",
"153 600 QCURVE SMOOTH",
"153 646 OFFCURVE",
"189 711 OFFCURVE",
"247 743 OFFCURVE",
"282 743 QCURVE SMOOTH"
);
},
{
closed = 1;
nodes = (
"225 682 LINE",
"295 682 LINE SMOOTH",
"318 682 OFFCURVE",
"343 661 OFFCURVE",
"343 642 QCURVE SMOOTH",
"343 630 OFFCURVE",
"339 622 QCURVE SMOOTH",
"328 603 OFFCURVE",
"295 603 QCURVE SMOOTH",
"225 603 LINE"
);
},
{
closed = 1;
nodes = (
"225 582 LINE",
"225 582 LINE",
"339 512 LINE SMOOTH",
"343 509 OFFCURVE",
"347 504 OFFCURVE",
"352 504 CURVE SMOOTH",
"356 504 LINE SMOOTH",
"364 504 OFFCURVE",
"369 517 OFFCURVE",
"360 522 CURVE SMOOTH",
"254 586 LINE",
"260 586 OFFCURVE",
"318 583 OFFCURVE",
"335 591 CURVE SMOOTH",
"356 600 OFFCURVE",
"365 617 OFFCURVE",
"365 642 CURVE SMOOTH",
"365 661 OFFCURVE",
"360 674 OFFCURVE",
"347 687 CURVE SMOOTH",
"335 699 OFFCURVE",
"318 704 OFFCURVE",
"299 704 CURVE SMOOTH",
"216 704 LINE SMOOTH",
"207 704 OFFCURVE",
"203 699 OFFCURVE",
"203 691 CURVE SMOOTH",
"203 517 LINE SMOOTH",
"203 509 OFFCURVE",
"207 504 OFFCURVE",
"214 504 CURVE SMOOTH",
"221 504 OFFCURVE",
"225 509 OFFCURVE",
"225 517 CURVE SMOOTH"
);
}
);
width = 600;
}
);
unicode = 00AE;
},
{
glyphname = degree;
lastChange = "2020-01-06 20:02:18 +0000";
layers = (
{
layerId = "2F22A4FE-F550-4776-9C81-47C8675FAB27";
paths = (
{
closed = 1;
nodes = (
"283 707 OFFCURVE",
"236 681 OFFCURVE",
"208 632 OFFCURVE",
"208 599 QCURVE SMOOTH",
"208 566 OFFCURVE",
"236 518 OFFCURVE",
"283 492 OFFCURVE",
"314 492 QCURVE SMOOTH",
"344 492 OFFCURVE",
"392 518 OFFCURVE",
"419 566 OFFCURVE",
"419 599 QCURVE SMOOTH",
"419 632 OFFCURVE",
"392 681 OFFCURVE",
"344 707 OFFCURVE",
"314 707 QCURVE SMOOTH"
);
},
{
closed = 1;
nodes = (
"329 660 OFFCURVE",
"353 646 OFFCURVE",
"368 619 OFFCURVE",
"368 600 QCURVE SMOOTH",
"368 580 OFFCURVE",
"353 553 OFFCURVE",
"329 542 OFFCURVE",
"315 542 QCURVE SMOOTH",
"301 542 OFFCURVE",
"274 553 OFFCURVE",
"259 580 OFFCURVE",
"259 600 QCURVE SMOOTH",
"259 619 OFFCURVE",
"274 646 OFFCURVE",
"299 660 OFFCURVE",
"314 660 QCURVE SMOOTH"
);
}
);
width = 600;
}
);
unicode = 00B0;
},
{
glyphname = bar;
lastChange = "2020-01-06 20:02:18 +0000";
layers = (
{
layerId = "2F22A4FE-F550-4776-9C81-47C8675FAB27";
paths = (
{
closed = 1;
nodes = (
"254 -107 LINE SMOOTH",
"254 -130 OFFCURVE",
"271 -148 OFFCURVE",
"294 -148 CURVE SMOOTH",
"317 -148 OFFCURVE",
"334 -130 OFFCURVE",
"334 -107 CURVE SMOOTH",
"334 665 LINE SMOOTH",
"334 688 OFFCURVE",
"317 706 OFFCURVE",
"294 706 CURVE SMOOTH",
"271 706 OFFCURVE",
"254 688 OFFCURVE",
"254 665 CURVE SMOOTH"
);
}
);
width = 600;
}
);
unicode = 007C;
},
{
glyphname = brokenbar;
lastChange = "2019-10-21 21:13:50 +0000";
layers = (
{
layerId = "2F22A4FE-F550-4776-9C81-47C8675FAB27";
paths = (
{
closed = 1;
nodes = (
"257 403 LINE SMOOTH",
"257 380 OFFCURVE",
"275 362 OFFCURVE",
"298 362 CURVE SMOOTH",
"298 362 LINE SMOOTH",
"321 362 OFFCURVE",
"339 380 OFFCURVE",
"339 403 CURVE SMOOTH",
"339 669 LINE SMOOTH",
"339 692 OFFCURVE",
"321 710 OFFCURVE",
"298 710 CURVE SMOOTH",
"298 710 LINE SMOOTH",
"275 710 OFFCURVE",
"257 692 OFFCURVE",
"257 669 CURVE SMOOTH"
);
},
{
closed = 1;
nodes = (
"257 -17 LINE SMOOTH",
"257 -40 OFFCURVE",
"275 -58 OFFCURVE",
"298 -58 CURVE SMOOTH",
"298 -58 LINE SMOOTH",
"321 -58 OFFCURVE",
"339 -40 OFFCURVE",
"339 -17 CURVE SMOOTH",
"339 249 LINE SMOOTH",
"339 272 OFFCURVE",
"321 290 OFFCURVE",
"298 290 CURVE SMOOTH",
"298 290 LINE SMOOTH",
"275 290 OFFCURVE",
"257 272 OFFCURVE",
"257 249 CURVE SMOOTH"
);
}
);
width = 600;
}
);
unicode = 00A6;
},
{
glyphname = dagger;
lastChange = "2020-01-06 20:02:18 +0000";
layers = (
{
layerId = "2F22A4FE-F550-4776-9C81-47C8675FAB27";
paths = (
{
closed = 1;
nodes = (
"339 644 LINE",
"339 713 LINE SMOOTH",
"339 736 OFFCURVE",
"322 754 OFFCURVE",
"300 754 CURVE SMOOTH",
"277 754 OFFCURVE",
"260 736 OFFCURVE",
"260 713 CURVE SMOOTH",
"260 644 LINE",
"184 644 LINE SMOOTH",
"161 644 OFFCURVE",
"143 626 OFFCURVE",
"143 603 CURVE SMOOTH",
"143 580 OFFCURVE",
"161 562 OFFCURVE",
"184 562 CURVE SMOOTH",
"260 562 LINE",
"260 318 LINE SMOOTH",
"260 295 OFFCURVE",
"277 277 OFFCURVE",
"300 277 CURVE SMOOTH",
"323 277 OFFCURVE",
"339 295 OFFCURVE",
"339 318 CURVE SMOOTH",
"339 562 LINE",
"413 562 LINE SMOOTH",
"436 562 OFFCURVE",
"454 580 OFFCURVE",
"454 603 CURVE SMOOTH",
"454 626 OFFCURVE",
"436 644 OFFCURVE",
"413 644 CURVE SMOOTH"
);
}
);
width = 600;
}
);
unicode = 2020;
},
{
glyphname = daggerdbl;
lastChange = "2020-01-06 20:02:18 +0000";
layers = (
{
layerId = "2F22A4FE-F550-4776-9C81-47C8675FAB27";
paths = (
{
closed = 1;
nodes = (
"336 469 LINE",
"336 574 LINE",
"417 574 LINE SMOOTH",
"440 574 OFFCURVE",
"458 590 OFFCURVE",
"458 612 CURVE SMOOTH",
"458 633 OFFCURVE",
"440 649 OFFCURVE",
"417 649 CURVE SMOOTH",
"336 649 LINE",
"336 712 LINE SMOOTH",
"336 735 OFFCURVE",
"320 753 OFFCURVE",
"299 753 CURVE SMOOTH",
"278 753 OFFCURVE",
"261 735 OFFCURVE",
"261 712 CURVE SMOOTH",
"261 649 LINE",
"182 649 LINE SMOOTH",
"159 649 OFFCURVE",
"141 633 OFFCURVE",
"141 612 CURVE SMOOTH",
"141 590 OFFCURVE",
"159 574 OFFCURVE",
"182 574 CURVE SMOOTH",
"261 574 LINE",
"261 469 LINE",
"182 469 LINE SMOOTH",
"159 469 OFFCURVE",
"141 453 OFFCURVE",
"141 432 CURVE SMOOTH",
"141 410 OFFCURVE",
"159 394 OFFCURVE",
"182 394 CURVE SMOOTH",
"261 394 LINE",
"261 319 LINE SMOOTH",
"261 296 OFFCURVE",
"277 278 OFFCURVE",
"299 278 CURVE SMOOTH",
"320 278 OFFCURVE",
"336 296 OFFCURVE",
"336 319 CURVE SMOOTH",
"336 394 LINE",
"417 394 LINE SMOOTH",
"440 394 OFFCURVE",
"458 410 OFFCURVE",
"458 432 CURVE SMOOTH",
"458 453 OFFCURVE",
"440 469 OFFCURVE",
"417 469 CURVE SMOOTH"
);
}
);
width = 600;
}
);
unicode = 2021;
},
{
glyphname = grave;
lastChange = "2020-02-13 21:19:34 +0000";
layers = (
{
layerId = "2F22A4FE-F550-4776-9C81-47C8675FAB27";
paths = (
{
closed = 1;
nodes = (
"277 774 LINE",
"256 798 OFFCURVE",
"250 798 OFFCURVE",
"231 798 CURVE",
"222 798 LINE",
"205 795 OFFCURVE",
"207 785 OFFCURVE",
"215 774 CURVE",
"286 679 LINE",
"302 658 OFFCURVE",
"314 651 OFFCURVE",
"326 651 CURVE",
"337 651 LINE",
"351 651 OFFCURVE",
"352 666 OFFCURVE",
"337 689 CURVE"
);
}
);
width = 600;
}
);
unicode = 0060;
},
{
glyphname = acute;
lastChange = "2020-02-13 21:19:57 +0000";
layers = (
{
layerId = "2F22A4FE-F550-4776-9C81-47C8675FAB27";
paths = (
{
closed = 1;
nodes = (
"369 775 LINE",
"375 784 OFFCURVE",
"380 799 OFFCURVE",
"361 799 CURVE",
"352 799 LINE",
"331 799 OFFCURVE",
"314 789 OFFCURVE",
"305 775 CURVE",
"245 670 LINE",
"240 661 OFFCURVE",
"255 652 OFFCURVE",
"271 652 CURVE",
"277 652 LINE",
"294 652 OFFCURVE",
"297 661 OFFCURVE",
"303 670 CURVE"
);
}
);
width = 600;
}
);
unicode = 00B4;
},
{
glyphname = breve;
lastChange = "2020-02-13 21:23:49 +0000";
layers = (
{
layerId = "2F22A4FE-F550-4776-9C81-47C8675FAB27";
paths = (
{
closed = 1;
nodes = (
"380 632 OFFCURVE",
"398 775 OFFCURVE",
"452 729 CURVE SMOOTH",
"473 712 OFFCURVE",
"401 582 OFFCURVE",
"307 582 CURVE SMOOTH",
"213 582 OFFCURVE",
"121 717 OFFCURVE",
"144 735 CURVE",
"192 772 OFFCURVE",
"216 632 OFFCURVE",
"307 632 CURVE SMOOTH"
);
}
);
width = 600;
}
);
unicode = 02D8;
},
{
glyphname = ring;
lastChange = "2020-02-13 21:24:32 +0000";
layers = (
{
layerId = "2F22A4FE-F550-4776-9C81-47C8675FAB27";
paths = (
{
closed = 1;
nodes = (
"262 780 OFFCURVE",
"222 758 OFFCURVE",
"198 716 OFFCURVE",
"198 688 QCURVE SMOOTH",
"198 659 OFFCURVE",
"222 618 OFFCURVE",
"262 596 OFFCURVE",
"289 596 QCURVE SMOOTH",
"314 596 OFFCURVE",
"356 618 OFFCURVE",
"379 659 OFFCURVE",
"379 688 QCURVE SMOOTH",
"379 716 OFFCURVE",
"356 758 OFFCURVE",
"314 780 OFFCURVE",
"289 780 QCURVE SMOOTH"
);
},
{
closed = 1;
nodes = (
"304 749 OFFCURVE",
"328 735 OFFCURVE",
"344 708 OFFCURVE",
"344 688 QCURVE SMOOTH",
"344 668 OFFCURVE",
"328 640 OFFCURVE",
"304 630 OFFCURVE",
"290 630 QCURVE SMOOTH",
"276 630 OFFCURVE",
"249 640 OFFCURVE",
"233 668 OFFCURVE",
"233 688 QCURVE SMOOTH",
"233 708 OFFCURVE",
"249 735 OFFCURVE",
"274 749 OFFCURVE",
"289 749 QCURVE SMOOTH"
);
}
);
width = 600;
}
);
unicode = 02DA;
},
{
glyphname = tilde;
lastChange = "2020-02-13 21:16:22 +0000";
layers = (
{
layerId = "2F22A4FE-F550-4776-9C81-47C8675FAB27";
paths = (
{
closed = 1;
nodes = (
"155 642 OFFCURVE",
"169 651 OFFCURVE",
"184 673 CURVE SMOOTH",
"194 687 OFFCURVE",
"204 707 OFFCURVE",
"219 707 CURVE SMOOTH",
"229 707 OFFCURVE",
"240 698 OFFCURVE",
"265 679 CURVE SMOOTH",
"295 657 OFFCURVE",
"307 651 OFFCURVE",
"334 651 CURVE SMOOTH",
"358 651 OFFCURVE",
"391 698 OFFCURVE",
"399 710 CURVE SMOOTH",
"418 738 OFFCURVE",
"413 746 OFFCURVE",
"402 753 CURVE SMOOTH",
"389 761 OFFCURVE",
"373 753 OFFCURVE",
"358 731 CURVE SMOOTH",
"347 715 OFFCURVE",
"338 701 OFFCURVE",
"325 700 CURVE SMOOTH",
"309 700 OFFCURVE",
"290 717 OFFCURVE",
"272 729 CURVE SMOOTH",
"227 758 OFFCURVE",
"234 758 OFFCURVE",
"212 758 CURVE SMOOTH",
"189 758 OFFCURVE",
"157 720 OFFCURVE",
"138 689 CURVE SMOOTH",
"130 676 OFFCURVE",
"127 657 OFFCURVE",
"142 649 CURVE SMOOTH"
);
}
);
width = 600;
}
);
unicode = 02DC;
},
{
glyphname = macron;
lastChange = "2020-02-13 21:24:55 +0000";
layers = (
{
layerId = "2F22A4FE-F550-4776-9C81-47C8675FAB27";
paths = (
{
closed = 1;
nodes = (
"160 660 OFFCURVE",
"178 653 OFFCURVE",
"201 653 CURVE SMOOTH",
"399 653 LINE SMOOTH",
"422 653 OFFCURVE",
"440 660 OFFCURVE",
"440 678 CURVE SMOOTH",
"440 696 OFFCURVE",
"422 703 OFFCURVE",
"399 703 CURVE SMOOTH",
"201 703 LINE SMOOTH",
"178 703 OFFCURVE",
"160 696 OFFCURVE",
"160 678 CURVE SMOOTH"
);
}
);
width = 600;
}
);
unicode = 00AF;
},
{
glyphname = cedilla;
lastChange = "2020-02-13 21:28:44 +0000";
layers = (
{
layerId = "2F22A4FE-F550-4776-9C81-47C8675FAB27";
paths = (
{
closed = 1;
nodes = (
"285 5 LINE",
"295 5 LINE",
"277 -34 LINE SMOOTH",
"274 -41 OFFCURVE",
"258 -77 OFFCURVE",
"257 -80 CURVE SMOOTH",
"252 -91 LINE SMOOTH",
"249 -97 OFFCURVE",
"244 -111 OFFCURVE",
"257 -111 CURVE SMOOTH",
"270 -111 OFFCURVE",
"348.192 -104.558 OFFCURVE",
"348.192 -143.721 CURVE SMOOTH",
"348.192 -165.222 OFFCURVE",
"320 -172 OFFCURVE",
"290 -172 CURVE SMOOTH",
"270 -172 OFFCURVE",
"249 -166 OFFCURVE",
"236.69 -167.484 CURVE SMOOTH",
"219 -170 OFFCURVE",
"204 -192 OFFCURVE",
"232 -213 CURVE",
"254 -223 OFFCURVE",
"275 -223 OFFCURVE",
"299 -223 CURVE SMOOTH",
"359 -223 OFFCURVE",
"399 -195 OFFCURVE",
"399 -145 CURVE SMOOTH",
"399 -96 OFFCURVE",
"370 -74 OFFCURVE",
"335 -74 CURVE SMOOTH",
"330 -74 OFFCURVE",
"317 -74 OFFCURVE",
"311 -74 CURVE SMOOTH",
"307 -74 OFFCURVE",
"311 -68 OFFCURVE",
"313 -64 CURVE SMOOTH",
"315 -60 OFFCURVE",
"346 5 OFFCURVE",
"345 5 CURVE SMOOTH",
"312 5 LINE"
);
}
);
width = 600;
}
);
unicode = 00B8;
},
{
glyphname = ogonek;
lastChange = "2020-02-13 21:32:17 +0000";
layers = (
{
layerId = "2F22A4FE-F550-4776-9C81-47C8675FAB27";
paths = (
{
closed = 1;
nodes = (
"188 -167 OFFCURVE",
"188 -108 CURVE SMOOTH",
"188 -56 OFFCURVE",
"219 -9 OFFCURVE",
"275 14 CURVE",
"299 14 OFFCURVE",
"325 15 OFFCURVE",
"366 14 CURVE",
"315 -17 OFFCURVE",
"234 -54 OFFCURVE",
"234 -104 CURVE SMOOTH",
"234 -125 OFFCURVE",
"249 -172 OFFCURVE",
"311 -152 CURVE SMOOTH",
"339 -143 OFFCURVE",
"381 -132 OFFCURVE",
"382 -159 CURVE SMOOTH",
"383 -188 OFFCURVE",
"340 -205 OFFCURVE",
"300 -205 CURVE SMOOTH",
"229 -205 OFFCURVE"
);
}
